<?xml version="1.0" encoding="UTF-8" standalone="no"?><svg xmlns="http://www.w3.org/2000/svg" xmlns:xlink="http://www.w3.org/1999/xlink" contentScriptType="application/ecmascript" contentStyleType="text/css" height="252px" preserveAspectRatio="none" style="width:195px;height:252px;" version="1.1" viewBox="0 0 195 252" width="195px" zoomAndPan="magnify"><defs><filter height="300%" id="f1icmf4nzjlq4p" width="300%" x="-1" y="-1"><feGaussianBlur result="blurOut" stdDeviation="2.0"/><feColorMatrix in="blurOut" result="blurOut2" type="matrix" values="0 0 0 0 0 0 0 0 0 0 0 0 0 0 0 0 0 0 .4 0"/><feOffset dx="4.0" dy="4.0" in="blurOut2" result="blurOut3"/><feBlend in="SourceGraphic" in2="blurOut3" mode="normal"/></filter></defs><g><!--MD5=[5922eaf8aba881550ef2788428d4f6e1]
entity ABS Client--><rect fill="#FEFECE" filter="url(#f1icmf4nzjlq4p)" height="37.6094" style="stroke: #A80036; stroke-width: 1.5;" width="87" x="6" y="8"/><rect fill="#FEFECE" height="5" style="stroke: #A80036; stroke-width: 1.5;" width="10" x="1" y="13"/><rect fill="#FEFECE" height="5" style="stroke: #A80036; stroke-width: 1.5;" width="10" x="1" y="35.6094"/><text fill="#000000" font-family="sans-serif" font-size="14" lengthAdjust="spacingAndGlyphs" textLength="67" x="16" y="32.5332">ABS Client</text><!--MD5=[65a2b404102c7bc03a55f085c1197dcb]
entity MOM--><rect fill="#FEFECE" filter="url(#f1icmf4nzjlq4p)" height="37.6094" style="stroke: #A80036; stroke-width: 1.5;" width="53" x="76" y="106"/><rect fill="#FEFECE" height="5" style="stroke: #A80036; stroke-width: 1.5;" width="10" x="71" y="111"/><rect fill="#FEFECE" height="5" style="stroke: #A80036; stroke-width: 1.5;" width="10" x="71" y="133.6094"/><text fill="#000000" font-family="sans-serif" font-size="14" lengthAdjust="spacingAndGlyphs" textLength="33" x="86" y="130.5332">MOM</text><!--MD5=[f729b69e388d687b52ac21b4c34bd064]
entity Batch--><rect fill="#FEFECE" filter="url(#f1icmf4nzjlq4p)" height="37.6094" style="stroke: #A80036; stroke-width: 1.5;" width="56" x="128.5" y="8"/><rect fill="#FEFECE" height="5" style="stroke: #A80036; stroke-width: 1.5;" width="10" x="123.5" y="13"/><rect fill="#FEFECE" height="5" style="stroke: #A80036; stroke-width: 1.5;" width="10" x="123.5" y="35.6094"/><text fill="#000000" font-family="sans-serif" font-size="14" lengthAdjust="spacingAndGlyphs" textLength="36" x="138.5" y="32.5332">Batch</text><!--MD5=[671e1a69a1c9898b1090a0f3ee2d2b16]
entity Tarif Engine--><rect fill="#FEFECE" filter="url(#f1icmf4nzjlq4p)" height="37.6094" style="stroke: #A80036; stroke-width: 1.5;" width="97" x="54" y="204"/><rect fill="#FEFECE" height="5" style="stroke: #A80036; stroke-width: 1.5;" width="10" x="49" y="209"/><rect fill="#FEFECE" height="5" style="stroke: #A80036; stroke-width: 1.5;" width="10" x="49" y="231.6094"/><text fill="#000000" font-family="sans-serif" font-size="14" lengthAdjust="spacingAndGlyphs" textLength="77" x="64" y="228.5332">Tarif Engine</text><!--MD5=[8d91bdb2a7474861c2797c3859babc6b]
link ABS Client to MOM--><path d="M59.4689,46.057 C68.0753,61.646 80.555,84.251 89.8609,101.107 " fill="none" id="ABS Client-&gt;MOM" style="stroke: #A80036; stroke-width: 1.0;"/><polygon fill="#A80036" points="92.3956,105.698,91.5491,95.8856,89.9797,101.3204,84.5449,99.751,92.3956,105.698" style="stroke: #A80036; stroke-width: 1.0;"/><!--MD5=[b91490e816fa422920ba1f8237381be5]
link Batch to MOM--><path d="M146.343,46.057 C137.574,61.646 124.859,84.251 115.378,101.107 " fill="none" id="Batch-&gt;MOM" style="stroke: #A80036; stroke-width: 1.0;"/><polygon fill="#A80036" points="112.795,105.698,120.6934,99.8145,115.2461,101.34,113.7206,95.8927,112.795,105.698" style="stroke: #A80036; stroke-width: 1.0;"/><!--MD5=[a599dfd364e9483cddd6690dd7d0544f]
link MOM to Tarif Engine--><path d="M102.5,144.0569 C102.5,159.5126 102.5,181.8647 102.5,198.6731 " fill="none" id="MOM-&gt;Tarif Engine" style="stroke: #A80036; stroke-width: 1.0;"/><polygon fill="#A80036" points="102.5,203.6977,106.5,194.6977,102.5,198.6977,98.5,194.6977,102.5,203.6977" style="stroke: #A80036; stroke-width: 1.0;"/><!--MD5=[ada2e122f48c063b9c01faeccc6880ef]
@startuml
[ABS Client] - -> [MOM]
[Batch] - -> [MOM]
[MOM] - -> [Tarif Engine]
@enduml

PlantUML version 1.2020.06(Sun Apr 05 14:38:32 CEST 2020)
(APACHE source distribution)
Java Runtime: OpenJDK Runtime Environment
JVM: OpenJDK 64-Bit Server VM
Java Version: 11.0.3+7
Operating System: Windows 10
Default Encoding: Cp1252
Language: de
Country: DE
--></g></svg>