<?xml version="1.0" encoding="UTF-8" standalone="no"?><svg xmlns="http://www.w3.org/2000/svg" xmlns:xlink="http://www.w3.org/1999/xlink" contentScriptType="application/ecmascript" contentStyleType="text/css" height="1166px" preserveAspectRatio="none" style="width:1016px;height:1166px;" version="1.1" viewBox="0 0 1016 1166" width="1016px" zoomAndPan="magnify"><defs><filter height="300%" id="ffdca494njbzz" width="300%" x="-1" y="-1"><feGaussianBlur result="blurOut" stdDeviation="2.0"/><feColorMatrix in="blurOut" result="blurOut2" type="matrix" values="0 0 0 0 0 0 0 0 0 0 0 0 0 0 0 0 0 0 .4 0"/><feOffset dx="4.0" dy="4.0" in="blurOut2" result="blurOut3"/><feBlend in="SourceGraphic" in2="blurOut3" mode="normal"/></filter></defs><g><!--MD5=[cdcf13912bae490172ec520f941b2123]
cluster ABS\noperational\ndatabase--><path d="M30,42 C30,32 261,32 261,32 C261,32 492,32 492,42 L492,820 C492,830 261,830 261,830 C261,830 30,830 30,820 L30,42 " fill="#FFFFFF" filter="url(#ffdca494njbzz)" style="stroke: #000000; stroke-width: 1.5;"/><path d="M30,42 C30,52 261,52 261,52 C261,52 492,52 492,42 " fill="none" style="stroke: #000000; stroke-width: 1.5;"/><text fill="#000000" font-family="sans-serif" font-size="14" font-weight="bold" lengthAdjust="spacingAndGlyphs" textLength="28" x="247" y="68.5332">ABS</text><text fill="#000000" font-family="sans-serif" font-size="14" font-weight="bold" lengthAdjust="spacingAndGlyphs" textLength="80" x="221" y="86.1426">operational</text><text fill="#000000" font-family="sans-serif" font-size="14" font-weight="bold" lengthAdjust="spacingAndGlyphs" textLength="64" x="229" y="103.752">database</text><!--MD5=[cfaba821609d5a45b464c3ca34eed0be]
cluster ABS\ndefining\ndatabase--><path d="M642,458 C642,448 823,448 823,448 C823,448 1004,448 1004,458 L1004,1144 C1004,1154 823,1154 823,1154 C823,1154 642,1154 642,1144 L642,458 " fill="#FFFFFF" filter="url(#ffdca494njbzz)" style="stroke: #000000; stroke-width: 1.5;"/><path d="M642,458 C642,468 823,468 823,468 C823,468 1004,468 1004,458 " fill="none" style="stroke: #000000; stroke-width: 1.5;"/><text fill="#000000" font-family="sans-serif" font-size="14" font-weight="bold" lengthAdjust="spacingAndGlyphs" textLength="28" x="809" y="484.5332">ABS</text><text fill="#000000" font-family="sans-serif" font-size="14" font-weight="bold" lengthAdjust="spacingAndGlyphs" textLength="58" x="794" y="502.1426">defining</text><text fill="#000000" font-family="sans-serif" font-size="14" font-weight="bold" lengthAdjust="spacingAndGlyphs" textLength="64" x="791" y="519.752">database</text><!--MD5=[bb9a5335a18e47208ee6d86699645932]
class TVERTRAG--><rect fill="#FEFECE" filter="url(#ffdca494njbzz)" height="48" id="TVERTRAG" style="stroke: #A80036; stroke-width: 1.5;" width="95" x="279.5" y="126"/><ellipse cx="294.5" cy="142" fill="#ADD1B2" rx="11" ry="11" style="stroke: #A80036; stroke-width: 1.0;"/><path d="M297.2656,137.875 Q297.4219,137.6563 297.6094,137.5469 Q297.7969,137.4375 298.0156,137.4375 Q298.3906,137.4375 298.625,137.7031 Q298.8594,137.9531 298.8594,138.5625 L298.8594,140.0156 Q298.8594,140.625 298.625,140.8906 Q298.3906,141.1563 298.0156,141.1563 Q297.6719,141.1563 297.4688,140.9531 Q297.2656,140.7656 297.1563,140.25 Q297.1094,139.8906 296.9219,139.7031 Q296.5938,139.3281 295.9844,139.1094 Q295.375,138.8906 294.75,138.8906 Q293.9844,138.8906 293.3438,139.2188 Q292.7188,139.5469 292.2188,140.2969 Q291.7344,141.0469 291.7344,142.0781 L291.7344,143.1719 Q291.7344,144.4063 292.625,145.2344 Q293.5156,146.0469 295.1094,146.0469 Q296.0469,146.0469 296.7031,145.7969 Q297.0938,145.6406 297.5156,145.2031 Q297.7813,144.9375 297.9219,144.8594 Q298.0781,144.7813 298.2813,144.7813 Q298.6094,144.7813 298.8594,145.0469 Q299.125,145.2969 299.125,145.6406 Q299.125,145.9844 298.7813,146.3906 Q298.2813,146.9688 297.4844,147.2969 Q296.4063,147.75 295.1094,147.75 Q293.5938,147.75 292.3906,147.125 Q291.4063,146.625 290.7188,145.5625 Q290.0313,144.4844 290.0313,143.2031 L290.0313,142.0469 Q290.0313,140.7188 290.6406,139.5781 Q291.2656,138.4219 292.3594,137.8125 Q293.4531,137.1875 294.6875,137.1875 Q295.4219,137.1875 296.0625,137.3594 Q296.7188,137.5156 297.2656,137.875 Z "/><text fill="#000000" font-family="sans-serif" font-size="12" lengthAdjust="spacingAndGlyphs" textLength="63" x="308.5" y="146.9102">TVERTRAG</text><line style="stroke: #A80036; stroke-width: 1.5;" x1="280.5" x2="373.5" y1="158" y2="158"/><line style="stroke: #A80036; stroke-width: 1.5;" x1="280.5" x2="373.5" y1="166" y2="166"/><!--MD5=[6781ccb08deb7c2e3e9397945298f170]
class TVERSVERTRAG--><rect fill="#FEFECE" filter="url(#ffdca494njbzz)" height="48" id="TVERSVERTRAG" style="stroke: #A80036; stroke-width: 1.5;" width="127" x="189.5" y="305"/><ellipse cx="204.5" cy="321" fill="#ADD1B2" rx="11" ry="11" style="stroke: #A80036; stroke-width: 1.0;"/><path d="M207.2656,316.875 Q207.4219,316.6563 207.6094,316.5469 Q207.7969,316.4375 208.0156,316.4375 Q208.3906,316.4375 208.625,316.7031 Q208.8594,316.9531 208.8594,317.5625 L208.8594,319.0156 Q208.8594,319.625 208.625,319.8906 Q208.3906,320.1563 208.0156,320.1563 Q207.6719,320.1563 207.4688,319.9531 Q207.2656,319.7656 207.1563,319.25 Q207.1094,318.8906 206.9219,318.7031 Q206.5938,318.3281 205.9844,318.1094 Q205.375,317.8906 204.75,317.8906 Q203.9844,317.8906 203.3438,318.2188 Q202.7188,318.5469 202.2188,319.2969 Q201.7344,320.0469 201.7344,321.0781 L201.7344,322.1719 Q201.7344,323.4063 202.625,324.2344 Q203.5156,325.0469 205.1094,325.0469 Q206.0469,325.0469 206.7031,324.7969 Q207.0938,324.6406 207.5156,324.2031 Q207.7813,323.9375 207.9219,323.8594 Q208.0781,323.7813 208.2813,323.7813 Q208.6094,323.7813 208.8594,324.0469 Q209.125,324.2969 209.125,324.6406 Q209.125,324.9844 208.7813,325.3906 Q208.2813,325.9688 207.4844,326.2969 Q206.4063,326.75 205.1094,326.75 Q203.5938,326.75 202.3906,326.125 Q201.4063,325.625 200.7188,324.5625 Q200.0313,323.4844 200.0313,322.2031 L200.0313,321.0469 Q200.0313,319.7188 200.6406,318.5781 Q201.2656,317.4219 202.3594,316.8125 Q203.4531,316.1875 204.6875,316.1875 Q205.4219,316.1875 206.0625,316.3594 Q206.7188,316.5156 207.2656,316.875 Z "/><text fill="#000000" font-family="sans-serif" font-size="12" lengthAdjust="spacingAndGlyphs" textLength="95" x="218.5" y="325.9102">TVERSVERTRAG</text><line style="stroke: #A80036; stroke-width: 1.5;" x1="190.5" x2="315.5" y1="337" y2="337"/><line style="stroke: #A80036; stroke-width: 1.5;" x1="190.5" x2="315.5" y1="345" y2="345"/><!--MD5=[e0c1a6527b08fe2e1901ad96ddab2677]
class TVNEHMER--><rect fill="#FEFECE" filter="url(#ffdca494njbzz)" height="48" id="TVNEHMER" style="stroke: #A80036; stroke-width: 1.5;" width="98" x="352" y="305"/><ellipse cx="367" cy="321" fill="#ADD1B2" rx="11" ry="11" style="stroke: #A80036; stroke-width: 1.0;"/><path d="M369.7656,316.875 Q369.9219,316.6563 370.1094,316.5469 Q370.2969,316.4375 370.5156,316.4375 Q370.8906,316.4375 371.125,316.7031 Q371.3594,316.9531 371.3594,317.5625 L371.3594,319.0156 Q371.3594,319.625 371.125,319.8906 Q370.8906,320.1563 370.5156,320.1563 Q370.1719,320.1563 369.9688,319.9531 Q369.7656,319.7656 369.6563,319.25 Q369.6094,318.8906 369.4219,318.7031 Q369.0938,318.3281 368.4844,318.1094 Q367.875,317.8906 367.25,317.8906 Q366.4844,317.8906 365.8438,318.2188 Q365.2188,318.5469 364.7188,319.2969 Q364.2344,320.0469 364.2344,321.0781 L364.2344,322.1719 Q364.2344,323.4063 365.125,324.2344 Q366.0156,325.0469 367.6094,325.0469 Q368.5469,325.0469 369.2031,324.7969 Q369.5938,324.6406 370.0156,324.2031 Q370.2813,323.9375 370.4219,323.8594 Q370.5781,323.7813 370.7813,323.7813 Q371.1094,323.7813 371.3594,324.0469 Q371.625,324.2969 371.625,324.6406 Q371.625,324.9844 371.2813,325.3906 Q370.7813,325.9688 369.9844,326.2969 Q368.9063,326.75 367.6094,326.75 Q366.0938,326.75 364.8906,326.125 Q363.9063,325.625 363.2188,324.5625 Q362.5313,323.4844 362.5313,322.2031 L362.5313,321.0469 Q362.5313,319.7188 363.1406,318.5781 Q363.7656,317.4219 364.8594,316.8125 Q365.9531,316.1875 367.1875,316.1875 Q367.9219,316.1875 368.5625,316.3594 Q369.2188,316.5156 369.7656,316.875 Z "/><text fill="#000000" font-family="sans-serif" font-size="12" lengthAdjust="spacingAndGlyphs" textLength="66" x="381" y="325.9102">TVNEHMER</text><line style="stroke: #A80036; stroke-width: 1.5;" x1="353" x2="449" y1="337" y2="337"/><line style="stroke: #A80036; stroke-width: 1.5;" x1="353" x2="449" y1="345" y2="345"/><!--MD5=[782d486b7834d7ec09fcfef670405a37]
class TPRODAUS--><rect fill="#FEFECE" filter="url(#ffdca494njbzz)" height="48" id="TPRODAUS" style="stroke: #A80036; stroke-width: 1.5;" width="98" x="204" y="542"/><ellipse cx="219" cy="558" fill="#ADD1B2" rx="11" ry="11" style="stroke: #A80036; stroke-width: 1.0;"/><path d="M221.7656,553.875 Q221.9219,553.6563 222.1094,553.5469 Q222.2969,553.4375 222.5156,553.4375 Q222.8906,553.4375 223.125,553.7031 Q223.3594,553.9531 223.3594,554.5625 L223.3594,556.0156 Q223.3594,556.625 223.125,556.8906 Q222.8906,557.1563 222.5156,557.1563 Q222.1719,557.1563 221.9688,556.9531 Q221.7656,556.7656 221.6563,556.25 Q221.6094,555.8906 221.4219,555.7031 Q221.0938,555.3281 220.4844,555.1094 Q219.875,554.8906 219.25,554.8906 Q218.4844,554.8906 217.8438,555.2188 Q217.2188,555.5469 216.7188,556.2969 Q216.2344,557.0469 216.2344,558.0781 L216.2344,559.1719 Q216.2344,560.4063 217.125,561.2344 Q218.0156,562.0469 219.6094,562.0469 Q220.5469,562.0469 221.2031,561.7969 Q221.5938,561.6406 222.0156,561.2031 Q222.2813,560.9375 222.4219,560.8594 Q222.5781,560.7813 222.7813,560.7813 Q223.1094,560.7813 223.3594,561.0469 Q223.625,561.2969 223.625,561.6406 Q223.625,561.9844 223.2813,562.3906 Q222.7813,562.9688 221.9844,563.2969 Q220.9063,563.75 219.6094,563.75 Q218.0938,563.75 216.8906,563.125 Q215.9063,562.625 215.2188,561.5625 Q214.5313,560.4844 214.5313,559.2031 L214.5313,558.0469 Q214.5313,556.7188 215.1406,555.5781 Q215.7656,554.4219 216.8594,553.8125 Q217.9531,553.1875 219.1875,553.1875 Q219.9219,553.1875 220.5625,553.3594 Q221.2188,553.5156 221.7656,553.875 Z "/><text fill="#000000" font-family="sans-serif" font-size="12" lengthAdjust="spacingAndGlyphs" textLength="66" x="233" y="562.9102">TPRODAUS</text><line style="stroke: #A80036; stroke-width: 1.5;" x1="205" x2="301" y1="574" y2="574"/><line style="stroke: #A80036; stroke-width: 1.5;" x1="205" x2="301" y1="582" y2="582"/><!--MD5=[806cb19d44e80575afd5b01774873ba3]
class TVERSPERS--><rect fill="#FEFECE" filter="url(#ffdca494njbzz)" height="48" id="TVERSPERS" style="stroke: #A80036; stroke-width: 1.5;" width="104" x="54" y="650"/><ellipse cx="69" cy="666" fill="#ADD1B2" rx="11" ry="11" style="stroke: #A80036; stroke-width: 1.0;"/><path d="M71.7656,661.875 Q71.9219,661.6563 72.1094,661.5469 Q72.2969,661.4375 72.5156,661.4375 Q72.8906,661.4375 73.125,661.7031 Q73.3594,661.9531 73.3594,662.5625 L73.3594,664.0156 Q73.3594,664.625 73.125,664.8906 Q72.8906,665.1563 72.5156,665.1563 Q72.1719,665.1563 71.9688,664.9531 Q71.7656,664.7656 71.6563,664.25 Q71.6094,663.8906 71.4219,663.7031 Q71.0938,663.3281 70.4844,663.1094 Q69.875,662.8906 69.25,662.8906 Q68.4844,662.8906 67.8438,663.2188 Q67.2188,663.5469 66.7188,664.2969 Q66.2344,665.0469 66.2344,666.0781 L66.2344,667.1719 Q66.2344,668.4063 67.125,669.2344 Q68.0156,670.0469 69.6094,670.0469 Q70.5469,670.0469 71.2031,669.7969 Q71.5938,669.6406 72.0156,669.2031 Q72.2813,668.9375 72.4219,668.8594 Q72.5781,668.7813 72.7813,668.7813 Q73.1094,668.7813 73.3594,669.0469 Q73.625,669.2969 73.625,669.6406 Q73.625,669.9844 73.2813,670.3906 Q72.7813,670.9688 71.9844,671.2969 Q70.9063,671.75 69.6094,671.75 Q68.0938,671.75 66.8906,671.125 Q65.9063,670.625 65.2188,669.5625 Q64.5313,668.4844 64.5313,667.2031 L64.5313,666.0469 Q64.5313,664.7188 65.1406,663.5781 Q65.7656,662.4219 66.8594,661.8125 Q67.9531,661.1875 69.1875,661.1875 Q69.9219,661.1875 70.5625,661.3594 Q71.2188,661.5156 71.7656,661.875 Z "/><text fill="#000000" font-family="sans-serif" font-size="12" lengthAdjust="spacingAndGlyphs" textLength="72" x="83" y="670.9102">TVERSPERS</text><line style="stroke: #A80036; stroke-width: 1.5;" x1="55" x2="157" y1="682" y2="682"/><line style="stroke: #A80036; stroke-width: 1.5;" x1="55" x2="157" y1="690" y2="690"/><!--MD5=[94f6cd57f055dccf1e210cd81507a00e]
class TZUABSCHLAG--><rect fill="#FEFECE" filter="url(#ffdca494njbzz)" height="48" id="TZUABSCHLAG" style="stroke: #A80036; stroke-width: 1.5;" width="119" x="193.5" y="650"/><ellipse cx="208.5" cy="666" fill="#ADD1B2" rx="11" ry="11" style="stroke: #A80036; stroke-width: 1.0;"/><path d="M211.2656,661.875 Q211.4219,661.6563 211.6094,661.5469 Q211.7969,661.4375 212.0156,661.4375 Q212.3906,661.4375 212.625,661.7031 Q212.8594,661.9531 212.8594,662.5625 L212.8594,664.0156 Q212.8594,664.625 212.625,664.8906 Q212.3906,665.1563 212.0156,665.1563 Q211.6719,665.1563 211.4688,664.9531 Q211.2656,664.7656 211.1563,664.25 Q211.1094,663.8906 210.9219,663.7031 Q210.5938,663.3281 209.9844,663.1094 Q209.375,662.8906 208.75,662.8906 Q207.9844,662.8906 207.3438,663.2188 Q206.7188,663.5469 206.2188,664.2969 Q205.7344,665.0469 205.7344,666.0781 L205.7344,667.1719 Q205.7344,668.4063 206.625,669.2344 Q207.5156,670.0469 209.1094,670.0469 Q210.0469,670.0469 210.7031,669.7969 Q211.0938,669.6406 211.5156,669.2031 Q211.7813,668.9375 211.9219,668.8594 Q212.0781,668.7813 212.2813,668.7813 Q212.6094,668.7813 212.8594,669.0469 Q213.125,669.2969 213.125,669.6406 Q213.125,669.9844 212.7813,670.3906 Q212.2813,670.9688 211.4844,671.2969 Q210.4063,671.75 209.1094,671.75 Q207.5938,671.75 206.3906,671.125 Q205.4063,670.625 204.7188,669.5625 Q204.0313,668.4844 204.0313,667.2031 L204.0313,666.0469 Q204.0313,664.7188 204.6406,663.5781 Q205.2656,662.4219 206.3594,661.8125 Q207.4531,661.1875 208.6875,661.1875 Q209.4219,661.1875 210.0625,661.3594 Q210.7188,661.5156 211.2656,661.875 Z "/><text fill="#000000" font-family="sans-serif" font-size="12" lengthAdjust="spacingAndGlyphs" textLength="87" x="222.5" y="670.9102">TZUABSCHLAG</text><line style="stroke: #A80036; stroke-width: 1.5;" x1="194.5" x2="311.5" y1="682" y2="682"/><line style="stroke: #A80036; stroke-width: 1.5;" x1="194.5" x2="311.5" y1="690" y2="690"/><!--MD5=[e5241dbd8acc271f6a9ec036cc575c13]
class TVERSSACHE--><rect fill="#FEFECE" filter="url(#ffdca494njbzz)" height="48" id="TVERSSACHE" style="stroke: #A80036; stroke-width: 1.5;" width="112" x="348" y="650"/><ellipse cx="363" cy="666" fill="#ADD1B2" rx="11" ry="11" style="stroke: #A80036; stroke-width: 1.0;"/><path d="M365.7656,661.875 Q365.9219,661.6563 366.1094,661.5469 Q366.2969,661.4375 366.5156,661.4375 Q366.8906,661.4375 367.125,661.7031 Q367.3594,661.9531 367.3594,662.5625 L367.3594,664.0156 Q367.3594,664.625 367.125,664.8906 Q366.8906,665.1563 366.5156,665.1563 Q366.1719,665.1563 365.9688,664.9531 Q365.7656,664.7656 365.6563,664.25 Q365.6094,663.8906 365.4219,663.7031 Q365.0938,663.3281 364.4844,663.1094 Q363.875,662.8906 363.25,662.8906 Q362.4844,662.8906 361.8438,663.2188 Q361.2188,663.5469 360.7188,664.2969 Q360.2344,665.0469 360.2344,666.0781 L360.2344,667.1719 Q360.2344,668.4063 361.125,669.2344 Q362.0156,670.0469 363.6094,670.0469 Q364.5469,670.0469 365.2031,669.7969 Q365.5938,669.6406 366.0156,669.2031 Q366.2813,668.9375 366.4219,668.8594 Q366.5781,668.7813 366.7813,668.7813 Q367.1094,668.7813 367.3594,669.0469 Q367.625,669.2969 367.625,669.6406 Q367.625,669.9844 367.2813,670.3906 Q366.7813,670.9688 365.9844,671.2969 Q364.9063,671.75 363.6094,671.75 Q362.0938,671.75 360.8906,671.125 Q359.9063,670.625 359.2188,669.5625 Q358.5313,668.4844 358.5313,667.2031 L358.5313,666.0469 Q358.5313,664.7188 359.1406,663.5781 Q359.7656,662.4219 360.8594,661.8125 Q361.9531,661.1875 363.1875,661.1875 Q363.9219,661.1875 364.5625,661.3594 Q365.2188,661.5156 365.7656,661.875 Z "/><text fill="#000000" font-family="sans-serif" font-size="12" lengthAdjust="spacingAndGlyphs" textLength="80" x="377" y="670.9102">TVERSSACHE</text><line style="stroke: #A80036; stroke-width: 1.5;" x1="349" x2="459" y1="682" y2="682"/><line style="stroke: #A80036; stroke-width: 1.5;" x1="349" x2="459" y1="690" y2="690"/><!--MD5=[1784c217f9deeaa1e713a78b4ca2699e]
class TPERSON--><rect fill="#FEFECE" filter="url(#ffdca494njbzz)" height="48" id="TPERSON" style="stroke: #A80036; stroke-width: 1.5;" width="90" x="61" y="758"/><ellipse cx="76" cy="774" fill="#ADD1B2" rx="11" ry="11" style="stroke: #A80036; stroke-width: 1.0;"/><path d="M78.7656,769.875 Q78.9219,769.6563 79.1094,769.5469 Q79.2969,769.4375 79.5156,769.4375 Q79.8906,769.4375 80.125,769.7031 Q80.3594,769.9531 80.3594,770.5625 L80.3594,772.0156 Q80.3594,772.625 80.125,772.8906 Q79.8906,773.1563 79.5156,773.1563 Q79.1719,773.1563 78.9688,772.9531 Q78.7656,772.7656 78.6563,772.25 Q78.6094,771.8906 78.4219,771.7031 Q78.0938,771.3281 77.4844,771.1094 Q76.875,770.8906 76.25,770.8906 Q75.4844,770.8906 74.8438,771.2188 Q74.2188,771.5469 73.7188,772.2969 Q73.2344,773.0469 73.2344,774.0781 L73.2344,775.1719 Q73.2344,776.4063 74.125,777.2344 Q75.0156,778.0469 76.6094,778.0469 Q77.5469,778.0469 78.2031,777.7969 Q78.5938,777.6406 79.0156,777.2031 Q79.2813,776.9375 79.4219,776.8594 Q79.5781,776.7813 79.7813,776.7813 Q80.1094,776.7813 80.3594,777.0469 Q80.625,777.2969 80.625,777.6406 Q80.625,777.9844 80.2813,778.3906 Q79.7813,778.9688 78.9844,779.2969 Q77.9063,779.75 76.6094,779.75 Q75.0938,779.75 73.8906,779.125 Q72.9063,778.625 72.2188,777.5625 Q71.5313,776.4844 71.5313,775.2031 L71.5313,774.0469 Q71.5313,772.7188 72.1406,771.5781 Q72.7656,770.4219 73.8594,769.8125 Q74.9531,769.1875 76.1875,769.1875 Q76.9219,769.1875 77.5625,769.3594 Q78.2188,769.5156 78.7656,769.875 Z "/><text fill="#000000" font-family="sans-serif" font-size="12" lengthAdjust="spacingAndGlyphs" textLength="58" x="90" y="778.9102">TPERSON</text><line style="stroke: #A80036; stroke-width: 1.5;" x1="62" x2="150" y1="790" y2="790"/><line style="stroke: #A80036; stroke-width: 1.5;" x1="62" x2="150" y1="798" y2="798"/><!--MD5=[472a4f45801039a3e111306306e6b7a5]
class THSP_EIGEN--><rect fill="#FEFECE" filter="url(#ffdca494njbzz)" height="48" id="THSP_EIGEN" style="stroke: #A80036; stroke-width: 1.5;" width="108" x="772" y="542"/><ellipse cx="787" cy="558" fill="#ADD1B2" rx="11" ry="11" style="stroke: #A80036; stroke-width: 1.0;"/><path d="M789.7656,553.875 Q789.9219,553.6563 790.1094,553.5469 Q790.2969,553.4375 790.5156,553.4375 Q790.8906,553.4375 791.125,553.7031 Q791.3594,553.9531 791.3594,554.5625 L791.3594,556.0156 Q791.3594,556.625 791.125,556.8906 Q790.8906,557.1563 790.5156,557.1563 Q790.1719,557.1563 789.9688,556.9531 Q789.7656,556.7656 789.6563,556.25 Q789.6094,555.8906 789.4219,555.7031 Q789.0938,555.3281 788.4844,555.1094 Q787.875,554.8906 787.25,554.8906 Q786.4844,554.8906 785.8438,555.2188 Q785.2188,555.5469 784.7188,556.2969 Q784.2344,557.0469 784.2344,558.0781 L784.2344,559.1719 Q784.2344,560.4063 785.125,561.2344 Q786.0156,562.0469 787.6094,562.0469 Q788.5469,562.0469 789.2031,561.7969 Q789.5938,561.6406 790.0156,561.2031 Q790.2813,560.9375 790.4219,560.8594 Q790.5781,560.7813 790.7813,560.7813 Q791.1094,560.7813 791.3594,561.0469 Q791.625,561.2969 791.625,561.6406 Q791.625,561.9844 791.2813,562.3906 Q790.7813,562.9688 789.9844,563.2969 Q788.9063,563.75 787.6094,563.75 Q786.0938,563.75 784.8906,563.125 Q783.9063,562.625 783.2188,561.5625 Q782.5313,560.4844 782.5313,559.2031 L782.5313,558.0469 Q782.5313,556.7188 783.1406,555.5781 Q783.7656,554.4219 784.8594,553.8125 Q785.9531,553.1875 787.1875,553.1875 Q787.9219,553.1875 788.5625,553.3594 Q789.2188,553.5156 789.7656,553.875 Z "/><text fill="#000000" font-family="sans-serif" font-size="12" lengthAdjust="spacingAndGlyphs" textLength="76" x="801" y="562.9102">THSP_EIGEN</text><line style="stroke: #A80036; stroke-width: 1.5;" x1="773" x2="879" y1="574" y2="574"/><line style="stroke: #A80036; stroke-width: 1.5;" x1="773" x2="879" y1="582" y2="582"/><!--MD5=[82f338cd481206c8bc5b4b36c0707b6e]
class TPBUENDBEST--><rect fill="#FEFECE" filter="url(#ffdca494njbzz)" height="48" id="TPBUENDBEST" style="stroke: #A80036; stroke-width: 1.5;" width="121" x="765.5" y="650"/><ellipse cx="780.5" cy="666" fill="#ADD1B2" rx="11" ry="11" style="stroke: #A80036; stroke-width: 1.0;"/><path d="M783.2656,661.875 Q783.4219,661.6563 783.6094,661.5469 Q783.7969,661.4375 784.0156,661.4375 Q784.3906,661.4375 784.625,661.7031 Q784.8594,661.9531 784.8594,662.5625 L784.8594,664.0156 Q784.8594,664.625 784.625,664.8906 Q784.3906,665.1563 784.0156,665.1563 Q783.6719,665.1563 783.4688,664.9531 Q783.2656,664.7656 783.1563,664.25 Q783.1094,663.8906 782.9219,663.7031 Q782.5938,663.3281 781.9844,663.1094 Q781.375,662.8906 780.75,662.8906 Q779.9844,662.8906 779.3438,663.2188 Q778.7188,663.5469 778.2188,664.2969 Q777.7344,665.0469 777.7344,666.0781 L777.7344,667.1719 Q777.7344,668.4063 778.625,669.2344 Q779.5156,670.0469 781.1094,670.0469 Q782.0469,670.0469 782.7031,669.7969 Q783.0938,669.6406 783.5156,669.2031 Q783.7813,668.9375 783.9219,668.8594 Q784.0781,668.7813 784.2813,668.7813 Q784.6094,668.7813 784.8594,669.0469 Q785.125,669.2969 785.125,669.6406 Q785.125,669.9844 784.7813,670.3906 Q784.2813,670.9688 783.4844,671.2969 Q782.4063,671.75 781.1094,671.75 Q779.5938,671.75 778.3906,671.125 Q777.4063,670.625 776.7188,669.5625 Q776.0313,668.4844 776.0313,667.2031 L776.0313,666.0469 Q776.0313,664.7188 776.6406,663.5781 Q777.2656,662.4219 778.3594,661.8125 Q779.4531,661.1875 780.6875,661.1875 Q781.4219,661.1875 782.0625,661.3594 Q782.7188,661.5156 783.2656,661.875 Z "/><text fill="#000000" font-family="sans-serif" font-size="12" lengthAdjust="spacingAndGlyphs" textLength="89" x="794.5" y="670.9102">TPBUENDBEST</text><line style="stroke: #A80036; stroke-width: 1.5;" x1="766.5" x2="885.5" y1="682" y2="682"/><line style="stroke: #A80036; stroke-width: 1.5;" x1="766.5" x2="885.5" y1="690" y2="690"/><!--MD5=[1ffddc8c81ffa3e3efcc9ad2f295803f]
class TSP_EIGEN--><rect fill="#FEFECE" filter="url(#ffdca494njbzz)" height="48" id="TSP_EIGEN" style="stroke: #A80036; stroke-width: 1.5;" width="99" x="776.5" y="758"/><ellipse cx="791.5" cy="774" fill="#ADD1B2" rx="11" ry="11" style="stroke: #A80036; stroke-width: 1.0;"/><path d="M794.2656,769.875 Q794.4219,769.6563 794.6094,769.5469 Q794.7969,769.4375 795.0156,769.4375 Q795.3906,769.4375 795.625,769.7031 Q795.8594,769.9531 795.8594,770.5625 L795.8594,772.0156 Q795.8594,772.625 795.625,772.8906 Q795.3906,773.1563 795.0156,773.1563 Q794.6719,773.1563 794.4688,772.9531 Q794.2656,772.7656 794.1563,772.25 Q794.1094,771.8906 793.9219,771.7031 Q793.5938,771.3281 792.9844,771.1094 Q792.375,770.8906 791.75,770.8906 Q790.9844,770.8906 790.3438,771.2188 Q789.7188,771.5469 789.2188,772.2969 Q788.7344,773.0469 788.7344,774.0781 L788.7344,775.1719 Q788.7344,776.4063 789.625,777.2344 Q790.5156,778.0469 792.1094,778.0469 Q793.0469,778.0469 793.7031,777.7969 Q794.0938,777.6406 794.5156,777.2031 Q794.7813,776.9375 794.9219,776.8594 Q795.0781,776.7813 795.2813,776.7813 Q795.6094,776.7813 795.8594,777.0469 Q796.125,777.2969 796.125,777.6406 Q796.125,777.9844 795.7813,778.3906 Q795.2813,778.9688 794.4844,779.2969 Q793.4063,779.75 792.1094,779.75 Q790.5938,779.75 789.3906,779.125 Q788.4063,778.625 787.7188,777.5625 Q787.0313,776.4844 787.0313,775.2031 L787.0313,774.0469 Q787.0313,772.7188 787.6406,771.5781 Q788.2656,770.4219 789.3594,769.8125 Q790.4531,769.1875 791.6875,769.1875 Q792.4219,769.1875 793.0625,769.3594 Q793.7188,769.5156 794.2656,769.875 Z "/><text fill="#000000" font-family="sans-serif" font-size="12" lengthAdjust="spacingAndGlyphs" textLength="67" x="805.5" y="778.9102">TSP_EIGEN</text><line style="stroke: #A80036; stroke-width: 1.5;" x1="777.5" x2="874.5" y1="790" y2="790"/><line style="stroke: #A80036; stroke-width: 1.5;" x1="777.5" x2="874.5" y1="798" y2="798"/><!--MD5=[62a172e36ec7a30bad9d7c87ffb8fee9]
class TPRODSCHABL--><rect fill="#FEFECE" filter="url(#ffdca494njbzz)" height="48" id="TPRODSCHABL" style="stroke: #A80036; stroke-width: 1.5;" width="122" x="765" y="866"/><ellipse cx="780" cy="882" fill="#ADD1B2" rx="11" ry="11" style="stroke: #A80036; stroke-width: 1.0;"/><path d="M782.7656,877.875 Q782.9219,877.6563 783.1094,877.5469 Q783.2969,877.4375 783.5156,877.4375 Q783.8906,877.4375 784.125,877.7031 Q784.3594,877.9531 784.3594,878.5625 L784.3594,880.0156 Q784.3594,880.625 784.125,880.8906 Q783.8906,881.1563 783.5156,881.1563 Q783.1719,881.1563 782.9688,880.9531 Q782.7656,880.7656 782.6563,880.25 Q782.6094,879.8906 782.4219,879.7031 Q782.0938,879.3281 781.4844,879.1094 Q780.875,878.8906 780.25,878.8906 Q779.4844,878.8906 778.8438,879.2188 Q778.2188,879.5469 777.7188,880.2969 Q777.2344,881.0469 777.2344,882.0781 L777.2344,883.1719 Q777.2344,884.4063 778.125,885.2344 Q779.0156,886.0469 780.6094,886.0469 Q781.5469,886.0469 782.2031,885.7969 Q782.5938,885.6406 783.0156,885.2031 Q783.2813,884.9375 783.4219,884.8594 Q783.5781,884.7813 783.7813,884.7813 Q784.1094,884.7813 784.3594,885.0469 Q784.625,885.2969 784.625,885.6406 Q784.625,885.9844 784.2813,886.3906 Q783.7813,886.9688 782.9844,887.2969 Q781.9063,887.75 780.6094,887.75 Q779.0938,887.75 777.8906,887.125 Q776.9063,886.625 776.2188,885.5625 Q775.5313,884.4844 775.5313,883.2031 L775.5313,882.0469 Q775.5313,880.7188 776.1406,879.5781 Q776.7656,878.4219 777.8594,877.8125 Q778.9531,877.1875 780.1875,877.1875 Q780.9219,877.1875 781.5625,877.3594 Q782.2188,877.5156 782.7656,877.875 Z "/><text fill="#000000" font-family="sans-serif" font-size="12" lengthAdjust="spacingAndGlyphs" textLength="90" x="794" y="886.9102">TPRODSCHABL</text><line style="stroke: #A80036; stroke-width: 1.5;" x1="766" x2="886" y1="898" y2="898"/><line style="stroke: #A80036; stroke-width: 1.5;" x1="766" x2="886" y1="906" y2="906"/><!--MD5=[a200e55f45d3e614e961f205db0a5954]
class TPRODBAUSTEIN--><rect fill="#FEFECE" filter="url(#ffdca494njbzz)" height="48" id="TPRODBAUSTEIN" style="stroke: #A80036; stroke-width: 1.5;" width="133" x="674.5" y="974"/><ellipse cx="689.5" cy="990" fill="#ADD1B2" rx="11" ry="11" style="stroke: #A80036; stroke-width: 1.0;"/><path d="M692.2656,985.875 Q692.4219,985.6563 692.6094,985.5469 Q692.7969,985.4375 693.0156,985.4375 Q693.3906,985.4375 693.625,985.7031 Q693.8594,985.9531 693.8594,986.5625 L693.8594,988.0156 Q693.8594,988.625 693.625,988.8906 Q693.3906,989.1563 693.0156,989.1563 Q692.6719,989.1563 692.4688,988.9531 Q692.2656,988.7656 692.1563,988.25 Q692.1094,987.8906 691.9219,987.7031 Q691.5938,987.3281 690.9844,987.1094 Q690.375,986.8906 689.75,986.8906 Q688.9844,986.8906 688.3438,987.2188 Q687.7188,987.5469 687.2188,988.2969 Q686.7344,989.0469 686.7344,990.0781 L686.7344,991.1719 Q686.7344,992.4063 687.625,993.2344 Q688.5156,994.0469 690.1094,994.0469 Q691.0469,994.0469 691.7031,993.7969 Q692.0938,993.6406 692.5156,993.2031 Q692.7813,992.9375 692.9219,992.8594 Q693.0781,992.7813 693.2813,992.7813 Q693.6094,992.7813 693.8594,993.0469 Q694.125,993.2969 694.125,993.6406 Q694.125,993.9844 693.7813,994.3906 Q693.2813,994.9688 692.4844,995.2969 Q691.4063,995.75 690.1094,995.75 Q688.5938,995.75 687.3906,995.125 Q686.4063,994.625 685.7188,993.5625 Q685.0313,992.4844 685.0313,991.2031 L685.0313,990.0469 Q685.0313,988.7188 685.6406,987.5781 Q686.2656,986.4219 687.3594,985.8125 Q688.4531,985.1875 689.6875,985.1875 Q690.4219,985.1875 691.0625,985.3594 Q691.7188,985.5156 692.2656,985.875 Z "/><text fill="#000000" font-family="sans-serif" font-size="12" lengthAdjust="spacingAndGlyphs" textLength="101" x="703.5" y="994.9102">TPRODBAUSTEIN</text><line style="stroke: #A80036; stroke-width: 1.5;" x1="675.5" x2="806.5" y1="1006" y2="1006"/><line style="stroke: #A80036; stroke-width: 1.5;" x1="675.5" x2="806.5" y1="1014" y2="1014"/><!--MD5=[65c026242b0736916d2620168c9309c3]
class TTARIFREFERENZ--><rect fill="#FEFECE" filter="url(#ffdca494njbzz)" height="48" id="TTARIFREFERENZ" style="stroke: #A80036; stroke-width: 1.5;" width="137" x="842.5" y="974"/><ellipse cx="857.5" cy="990" fill="#ADD1B2" rx="11" ry="11" style="stroke: #A80036; stroke-width: 1.0;"/><path d="M860.2656,985.875 Q860.4219,985.6563 860.6094,985.5469 Q860.7969,985.4375 861.0156,985.4375 Q861.3906,985.4375 861.625,985.7031 Q861.8594,985.9531 861.8594,986.5625 L861.8594,988.0156 Q861.8594,988.625 861.625,988.8906 Q861.3906,989.1563 861.0156,989.1563 Q860.6719,989.1563 860.4688,988.9531 Q860.2656,988.7656 860.1563,988.25 Q860.1094,987.8906 859.9219,987.7031 Q859.5938,987.3281 858.9844,987.1094 Q858.375,986.8906 857.75,986.8906 Q856.9844,986.8906 856.3438,987.2188 Q855.7188,987.5469 855.2188,988.2969 Q854.7344,989.0469 854.7344,990.0781 L854.7344,991.1719 Q854.7344,992.4063 855.625,993.2344 Q856.5156,994.0469 858.1094,994.0469 Q859.0469,994.0469 859.7031,993.7969 Q860.0938,993.6406 860.5156,993.2031 Q860.7813,992.9375 860.9219,992.8594 Q861.0781,992.7813 861.2813,992.7813 Q861.6094,992.7813 861.8594,993.0469 Q862.125,993.2969 862.125,993.6406 Q862.125,993.9844 861.7813,994.3906 Q861.2813,994.9688 860.4844,995.2969 Q859.4063,995.75 858.1094,995.75 Q856.5938,995.75 855.3906,995.125 Q854.4063,994.625 853.7188,993.5625 Q853.0313,992.4844 853.0313,991.2031 L853.0313,990.0469 Q853.0313,988.7188 853.6406,987.5781 Q854.2656,986.4219 855.3594,985.8125 Q856.4531,985.1875 857.6875,985.1875 Q858.4219,985.1875 859.0625,985.3594 Q859.7188,985.5156 860.2656,985.875 Z "/><text fill="#000000" font-family="sans-serif" font-size="12" lengthAdjust="spacingAndGlyphs" textLength="105" x="871.5" y="994.9102">TTARIFREFERENZ</text><line style="stroke: #A80036; stroke-width: 1.5;" x1="843.5" x2="978.5" y1="1006" y2="1006"/><line style="stroke: #A80036; stroke-width: 1.5;" x1="843.5" x2="978.5" y1="1014" y2="1014"/><!--MD5=[75d5b9798f0571ac7503f68e61a3018b]
class TVERSTARIF--><rect fill="#FEFECE" filter="url(#ffdca494njbzz)" height="48" id="TVERSTARIF" style="stroke: #A80036; stroke-width: 1.5;" width="104" x="859" y="1082"/><ellipse cx="874" cy="1098" fill="#ADD1B2" rx="11" ry="11" style="stroke: #A80036; stroke-width: 1.0;"/><path d="M876.7656,1093.875 Q876.9219,1093.6563 877.1094,1093.5469 Q877.2969,1093.4375 877.5156,1093.4375 Q877.8906,1093.4375 878.125,1093.7031 Q878.3594,1093.9531 878.3594,1094.5625 L878.3594,1096.0156 Q878.3594,1096.625 878.125,1096.8906 Q877.8906,1097.1563 877.5156,1097.1563 Q877.1719,1097.1563 876.9688,1096.9531 Q876.7656,1096.7656 876.6563,1096.25 Q876.6094,1095.8906 876.4219,1095.7031 Q876.0938,1095.3281 875.4844,1095.1094 Q874.875,1094.8906 874.25,1094.8906 Q873.4844,1094.8906 872.8438,1095.2188 Q872.2188,1095.5469 871.7188,1096.2969 Q871.2344,1097.0469 871.2344,1098.0781 L871.2344,1099.1719 Q871.2344,1100.4063 872.125,1101.2344 Q873.0156,1102.0469 874.6094,1102.0469 Q875.5469,1102.0469 876.2031,1101.7969 Q876.5938,1101.6406 877.0156,1101.2031 Q877.2813,1100.9375 877.4219,1100.8594 Q877.5781,1100.7813 877.7813,1100.7813 Q878.1094,1100.7813 878.3594,1101.0469 Q878.625,1101.2969 878.625,1101.6406 Q878.625,1101.9844 878.2813,1102.3906 Q877.7813,1102.9688 876.9844,1103.2969 Q875.9063,1103.75 874.6094,1103.75 Q873.0938,1103.75 871.8906,1103.125 Q870.9063,1102.625 870.2188,1101.5625 Q869.5313,1100.4844 869.5313,1099.2031 L869.5313,1098.0469 Q869.5313,1096.7188 870.1406,1095.5781 Q870.7656,1094.4219 871.8594,1093.8125 Q872.9531,1093.1875 874.1875,1093.1875 Q874.9219,1093.1875 875.5625,1093.3594 Q876.2188,1093.5156 876.7656,1093.875 Z "/><text fill="#000000" font-family="sans-serif" font-size="12" lengthAdjust="spacingAndGlyphs" textLength="72" x="888" y="1102.9102">TVERSTARIF</text><line style="stroke: #A80036; stroke-width: 1.5;" x1="860" x2="962" y1="1114" y2="1114"/><line style="stroke: #A80036; stroke-width: 1.5;" x1="860" x2="962" y1="1122" y2="1122"/><path d="M516.5,234 L516.5,423.8672 L783.5,423.8672 L783.5,244 L773.5,234 L516.5,234 " fill="#FBFB77" filter="url(#ffdca494njbzz)" style="stroke: #A80036; stroke-width: 1.0;"/><path d="M773.5,234 L773.5,244 L783.5,244 L773.5,234 " fill="#FBFB77" style="stroke: #A80036; stroke-width: 1.0;"/><text fill="#000000" font-family="sans-serif" font-size="13" lengthAdjust="spacingAndGlyphs" textLength="101" x="522.5" y="252.4951">attribute for rating</text><text fill="#000000" font-family="sans-serif" font-size="13" lengthAdjust="spacingAndGlyphs" textLength="113" x="522.5" y="268.8467">can originate in any</text><text fill="#000000" font-family="sans-serif" font-size="13" lengthAdjust="spacingAndGlyphs" textLength="85" x="522.5" y="285.1982">of the tables in</text><text fill="#000000" font-family="sans-serif" font-size="13" lengthAdjust="spacingAndGlyphs" textLength="117" x="522.5" y="301.5498">the ABS data model</text><text fill="#000000" font-family="sans-serif" font-size="13" lengthAdjust="spacingAndGlyphs" textLength="0" x="526.5" y="317.9014"/><text fill="#000000" font-family="sans-serif" font-size="13" lengthAdjust="spacingAndGlyphs" textLength="246" x="522.5" y="334.2529">attribute 1 .. TVERTRAG.SPARTE_EIGEN</text><text fill="#000000" font-family="sans-serif" font-size="13" lengthAdjust="spacingAndGlyphs" textLength="230" x="522.5" y="350.6045">attribute 2 .. THSP_EIGEN.PRODKBEZ</text><text fill="#000000" font-family="sans-serif" font-size="13" lengthAdjust="spacingAndGlyphs" textLength="198" x="522.5" y="366.9561">attribute 3 .. TPRODAUS.SUMME</text><text fill="#000000" font-family="sans-serif" font-size="13" lengthAdjust="spacingAndGlyphs" textLength="214" x="522.5" y="383.3076">attribute 4 .. TPRODAUS.INSTANZID</text><text fill="#000000" font-family="sans-serif" font-size="13" lengthAdjust="spacingAndGlyphs" textLength="0" x="526.5" y="399.6592"/><text fill="#000000" font-family="sans-serif" font-size="13" lengthAdjust="spacingAndGlyphs" textLength="0" x="526.5" y="416.0107"/><!--MD5=[a43c382dc65aa616c6d51364cca37214]
link TVERTRAG to TVERSVERTRAG--><path d="M314.163,181.704 C300.595,214.158 279.323,265.038 265.777,297.438 " fill="none" id="TVERTRAG-TVERSVERTRAG" style="stroke: #A80036; stroke-width: 1.0; stroke-dasharray: 7.0,7.0;"/><line style="stroke: #A80036; stroke-width: 1.0;" x1="265.7625" x2="268.2128" y1="297.474" y2="307.1692"/><line style="stroke: #A80036; stroke-width: 1.0;" x1="265.7625" x2="257.1412" y1="297.474" y2="302.5408"/><line style="stroke: #A80036; stroke-width: 1.0;" x1="265.7625" x2="262.677" y1="297.474" y2="304.855"/><ellipse cx="268.0767" cy="291.9382" fill="none" rx="4" ry="4" style="stroke: #A80036; stroke-width: 1.0;"/><line style="stroke: #A80036; stroke-width: 1.0;" x1="312.0926" x2="319.4734" y1="176.2874" y2="179.3734"/><line style="stroke: #A80036; stroke-width: 1.0;" x1="310.9353" x2="318.3161" y1="179.0552" y2="182.1412"/><line style="stroke: #A80036; stroke-width: 1.0;" x1="314.2399" x2="317.326" y1="181.5208" y2="174.14"/><!--MD5=[0a3f2c5ee5ded8897aacce581f97b7cc]
link TVERTRAG to TVNEHMER--><path d="M339.469,180.825 C353.123,213.484 374.889,265.545 388.54,298.196 " fill="none" id="TVERTRAG-TVNEHMER" style="stroke: #A80036; stroke-width: 1.0; stroke-dasharray: 7.0,7.0;"/><line style="stroke: #A80036; stroke-width: 1.0;" x1="393.4707" x2="386.0897" y1="299.6217" y2="302.7073"/><line style="stroke: #A80036; stroke-width: 1.0;" x1="392.3136" x2="384.9326" y1="296.8538" y2="299.9394"/><line style="stroke: #A80036; stroke-width: 1.0;" x1="388.2374" x2="391.323" y1="297.474" y2="304.855"/><line style="stroke: #A80036; stroke-width: 1.0;" x1="334.5263" x2="341.9073" y1="179.3733" y2="176.2877"/><line style="stroke: #A80036; stroke-width: 1.0;" x1="335.6834" x2="343.0644" y1="182.1412" y2="179.0556"/><line style="stroke: #A80036; stroke-width: 1.0;" x1="339.7596" x2="336.674" y1="181.521" y2="174.14"/><!--MD5=[6dbcefb9c09ffc1a32b424a8c2f7e280]
link TVERSVERTRAG to TPRODAUS--><path d="M253,361.539 C253,406.503 253,488.55 253,533.495 " fill="none" id="TVERSVERTRAG-TPRODAUS" style="stroke: #A80036; stroke-width: 1.0; stroke-dasharray: 7.0,7.0;"/><line style="stroke: #A80036; stroke-width: 1.0;" x1="253" x2="259" y1="533.703" y2="541.703"/><line style="stroke: #A80036; stroke-width: 1.0;" x1="253" x2="247" y1="533.703" y2="541.703"/><line style="stroke: #A80036; stroke-width: 1.0;" x1="253" x2="253" y1="533.703" y2="541.703"/><ellipse cx="253" cy="527.703" fill="none" rx="4" ry="4" style="stroke: #A80036; stroke-width: 1.0;"/><line style="stroke: #A80036; stroke-width: 1.0;" x1="249" x2="257" y1="357.392" y2="357.392"/><line style="stroke: #A80036; stroke-width: 1.0;" x1="249" x2="257" y1="360.392" y2="360.392"/><line style="stroke: #A80036; stroke-width: 1.0;" x1="253" x2="253" y1="361.392" y2="353.392"/><!--MD5=[1219fa616f742f35e75eaea8a02e4301]
link TPRODAUS to TVERSPERS--><path d="M214.575,594.708 C193.016,610.254 166.197,629.592 144.609,645.16 " fill="none" id="TPRODAUS-TVERSPERS" style="stroke: #A80036; stroke-width: 1.0;"/><line style="stroke: #A80036; stroke-width: 1.0;" x1="144.5769" x2="141.5974" y1="645.1828" y2="654.7286"/><line style="stroke: #A80036; stroke-width: 1.0;" x1="144.5769" x2="134.5786" y1="645.1828" y2="644.9954"/><line style="stroke: #A80036; stroke-width: 1.0;" x1="144.5769" x2="138.088" y1="645.1828" y2="649.862"/><ellipse cx="149.4435" cy="641.6734" fill="none" rx="4" ry="4" style="stroke: #A80036; stroke-width: 1.0;"/><line style="stroke: #A80036; stroke-width: 1.0;" x1="215.5191" x2="220.1974" y1="589.0944" y2="595.5839"/><line style="stroke: #A80036; stroke-width: 1.0;" x1="213.0855" x2="217.7638" y1="590.8487" y2="597.3382"/><line style="stroke: #A80036; stroke-width: 1.0;" x1="214.6135" x2="221.103" y1="594.6782" y2="590"/><!--MD5=[23c81485f6cc8a0141e9b8168b55c163]
link TPRODAUS to TZUABSCHLAG--><path d="M253,598.259 C253,611.893 253,627.85 253,641.511 " fill="none" id="TPRODAUS-TZUABSCHLAG" style="stroke: #A80036; stroke-width: 1.0;"/><line style="stroke: #A80036; stroke-width: 1.0;" x1="253" x2="259" y1="641.678" y2="649.678"/><line style="stroke: #A80036; stroke-width: 1.0;" x1="253" x2="247" y1="641.678" y2="649.678"/><line style="stroke: #A80036; stroke-width: 1.0;" x1="253" x2="253" y1="641.678" y2="649.678"/><ellipse cx="253" cy="635.678" fill="none" rx="4" ry="4" style="stroke: #A80036; stroke-width: 1.0;"/><line style="stroke: #A80036; stroke-width: 1.0;" x1="249" x2="257" y1="594" y2="594"/><line style="stroke: #A80036; stroke-width: 1.0;" x1="249" x2="257" y1="597" y2="597"/><line style="stroke: #A80036; stroke-width: 1.0;" x1="253" x2="253" y1="598" y2="590"/><!--MD5=[c3e4a0a2bc12d5e3ecc8040170b9294f]
link TPRODAUS to TVERSSACHE--><path d="M292.471,594.708 C314.616,610.254 342.165,629.592 364.341,645.16 " fill="none" id="TPRODAUS-TVERSSACHE" style="stroke: #A80036; stroke-width: 1.0;"/><line style="stroke: #A80036; stroke-width: 1.0;" x1="364.4913" x2="374.4864" y1="645.2655" y2="644.9512"/><line style="stroke: #A80036; stroke-width: 1.0;" x1="364.4913" x2="367.5916" y1="645.2655" y2="654.7728"/><line style="stroke: #A80036; stroke-width: 1.0;" x1="364.4913" x2="371.039" y1="645.2655" y2="649.862"/><ellipse cx="359.5806" cy="641.8181" fill="none" rx="4" ry="4" style="stroke: #A80036; stroke-width: 1.0;"/><line style="stroke: #A80036; stroke-width: 1.0;" x1="286.7414" x2="291.337" y1="595.572" y2="589.0236"/><line style="stroke: #A80036; stroke-width: 1.0;" x1="289.197" x2="293.7926" y1="597.2953" y2="590.7469"/><line style="stroke: #A80036; stroke-width: 1.0;" x1="292.3133" x2="285.765" y1="594.5956" y2="590"/><!--MD5=[01c0f6670dab371d15a7020c6538ad17]
link TVERSPERS to TPERSON--><path d="M106,706.259 C106,719.893 106,735.85 106,749.511 " fill="none" id="TVERSPERS-TPERSON" style="stroke: #A80036; stroke-width: 1.0;"/><line style="stroke: #A80036; stroke-width: 1.0;" x1="110" x2="102" y1="753.678" y2="753.678"/><line style="stroke: #A80036; stroke-width: 1.0;" x1="110" x2="102" y1="750.678" y2="750.678"/><line style="stroke: #A80036; stroke-width: 1.0;" x1="106" x2="106" y1="749.678" y2="757.678"/><line style="stroke: #A80036; stroke-width: 1.0;" x1="106" x2="100" y1="706" y2="698"/><line style="stroke: #A80036; stroke-width: 1.0;" x1="106" x2="112" y1="706" y2="698"/><line style="stroke: #A80036; stroke-width: 1.0;" x1="106" x2="106" y1="706" y2="698"/><ellipse cx="106" cy="712" fill="none" rx="4" ry="4" style="stroke: #A80036; stroke-width: 1.0;"/><!--MD5=[e6b960ea21cf910a1ee6ce173542920b]
link THSP_EIGEN to TPBUENDBEST--><path d="M826,598.259 C826,611.893 826,627.85 826,641.511 " fill="none" id="THSP_EIGEN-TPBUENDBEST" style="stroke: #A80036; stroke-width: 1.0;"/><line style="stroke: #A80036; stroke-width: 1.0;" x1="826" x2="832" y1="641.678" y2="649.678"/><line style="stroke: #A80036; stroke-width: 1.0;" x1="826" x2="820" y1="641.678" y2="649.678"/><line style="stroke: #A80036; stroke-width: 1.0;" x1="826" x2="826" y1="641.678" y2="649.678"/><ellipse cx="826" cy="635.678" fill="none" rx="4" ry="4" style="stroke: #A80036; stroke-width: 1.0;"/><line style="stroke: #A80036; stroke-width: 1.0;" x1="822" x2="830" y1="594" y2="594"/><line style="stroke: #A80036; stroke-width: 1.0;" x1="822" x2="830" y1="597" y2="597"/><line style="stroke: #A80036; stroke-width: 1.0;" x1="826" x2="826" y1="598" y2="590"/><!--MD5=[4c04f26e0f34cc4480364ce309c731f8]
link TPBUENDBEST to TSP_EIGEN--><path d="M826,706.259 C826,719.893 826,735.85 826,749.511 " fill="none" id="TPBUENDBEST-TSP_EIGEN" style="stroke: #A80036; stroke-width: 1.0;"/><line style="stroke: #A80036; stroke-width: 1.0;" x1="830" x2="822" y1="753.678" y2="753.678"/><line style="stroke: #A80036; stroke-width: 1.0;" x1="830" x2="822" y1="750.678" y2="750.678"/><line style="stroke: #A80036; stroke-width: 1.0;" x1="826" x2="826" y1="749.678" y2="757.678"/><line style="stroke: #A80036; stroke-width: 1.0;" x1="826" x2="820" y1="706" y2="698"/><line style="stroke: #A80036; stroke-width: 1.0;" x1="826" x2="832" y1="706" y2="698"/><line style="stroke: #A80036; stroke-width: 1.0;" x1="826" x2="826" y1="706" y2="698"/><ellipse cx="826" cy="712" fill="none" rx="4" ry="4" style="stroke: #A80036; stroke-width: 1.0;"/><!--MD5=[d9391d6406aa62cf100f291dc96e55cb]
link TSP_EIGEN to TPRODSCHABL--><path d="M826,814.259 C826,827.893 826,843.85 826,857.511 " fill="none" id="TSP_EIGEN-TPRODSCHABL" style="stroke: #A80036; stroke-width: 1.0;"/><line style="stroke: #A80036; stroke-width: 1.0;" x1="826" x2="832" y1="857.678" y2="865.678"/><line style="stroke: #A80036; stroke-width: 1.0;" x1="826" x2="820" y1="857.678" y2="865.678"/><line style="stroke: #A80036; stroke-width: 1.0;" x1="826" x2="826" y1="857.678" y2="865.678"/><ellipse cx="826" cy="851.678" fill="none" rx="4" ry="4" style="stroke: #A80036; stroke-width: 1.0;"/><line style="stroke: #A80036; stroke-width: 1.0;" x1="822" x2="830" y1="810" y2="810"/><line style="stroke: #A80036; stroke-width: 1.0;" x1="822" x2="830" y1="813" y2="813"/><line style="stroke: #A80036; stroke-width: 1.0;" x1="826" x2="826" y1="814" y2="806"/><!--MD5=[28c70c0655f637c91f22630f30aa7f3a]
link TPRODSCHABL to TPRODBAUSTEIN--><path d="M802.376,920.46 C790.694,935.028 776.624,952.575 764.904,967.191 " fill="none" id="TPRODSCHABL-TPRODBAUSTEIN" style="stroke: #A80036; stroke-width: 1.0; stroke-dasharray: 7.0,7.0;"/><line style="stroke: #A80036; stroke-width: 1.0;" x1="764.706" x2="764.3817" y1="967.437" y2="977.4318"/><line style="stroke: #A80036; stroke-width: 1.0;" x1="764.706" x2="755.0203" y1="967.437" y2="969.9242"/><line style="stroke: #A80036; stroke-width: 1.0;" x1="764.706" x2="759.701" y1="967.437" y2="973.678"/><ellipse cx="768.4598" cy="962.7563" fill="none" rx="4" ry="4" style="stroke: #A80036; stroke-width: 1.0;"/><line style="stroke: #A80036; stroke-width: 1.0;" x1="801.9331" x2="808.1746" y1="914.6186" y2="919.6229"/><line style="stroke: #A80036; stroke-width: 1.0;" x1="800.0564" x2="806.2979" y1="916.9591" y2="921.9635"/><line style="stroke: #A80036; stroke-width: 1.0;" x1="802.5516" x2="807.556" y1="920.2415" y2="914"/><!--MD5=[015a92ce0381e8609c2fddec99eb3b9b]
link TPRODSCHABL to TTARIFREFERENZ--><path d="M849.624,920.46 C861.306,935.028 875.376,952.575 887.096,967.191 " fill="none" id="TPRODSCHABL-TTARIFREFERENZ" style="stroke: #A80036; stroke-width: 1.0;"/><line style="stroke: #A80036; stroke-width: 1.0;" x1="887.294" x2="896.9797" y1="967.437" y2="969.9242"/><line style="stroke: #A80036; stroke-width: 1.0;" x1="887.294" x2="887.6183" y1="967.437" y2="977.4318"/><line style="stroke: #A80036; stroke-width: 1.0;" x1="887.294" x2="892.299" y1="967.437" y2="973.678"/><ellipse cx="883.5402" cy="962.7563" fill="none" rx="4" ry="4" style="stroke: #A80036; stroke-width: 1.0;"/><line style="stroke: #A80036; stroke-width: 1.0;" x1="843.8254" x2="850.0669" y1="919.6229" y2="914.6186"/><line style="stroke: #A80036; stroke-width: 1.0;" x1="845.7021" x2="851.9436" y1="921.9635" y2="916.9591"/><line style="stroke: #A80036; stroke-width: 1.0;" x1="849.4484" x2="844.444" y1="920.2415" y2="914"/><!--MD5=[b9787228e28c662178753ef65e2aaede]
link TTARIFREFERENZ to TVERSTARIF--><path d="M911,1030.259 C911,1043.893 911,1059.85 911,1073.511 " fill="none" id="TTARIFREFERENZ-TVERSTARIF" style="stroke: #A80036; stroke-width: 1.0;"/><line style="stroke: #A80036; stroke-width: 1.0;" x1="915" x2="907" y1="1077.6784" y2="1077.6784"/><line style="stroke: #A80036; stroke-width: 1.0;" x1="915" x2="907" y1="1074.6784" y2="1074.6784"/><line style="stroke: #A80036; stroke-width: 1.0;" x1="911" x2="911" y1="1073.6784" y2="1081.6784"/><line style="stroke: #A80036; stroke-width: 1.0;" x1="911" x2="905" y1="1030" y2="1022"/><line style="stroke: #A80036; stroke-width: 1.0;" x1="911" x2="917" y1="1030" y2="1022"/><line style="stroke: #A80036; stroke-width: 1.0;" x1="911" x2="911" y1="1030" y2="1022"/><ellipse cx="911" cy="1036" fill="none" rx="4" ry="4" style="stroke: #A80036; stroke-width: 1.0;"/><!--MD5=[bd80659f1f8067063fd458709080bd20]
link ABS\noperational\ndatabase to n1--><path d="M492.0591,159.5936 C492.1285,159.6676 492.1983,159.7421 492.2685,159.8169 C492.4089,159.9666 492.5509,160.118 492.6945,160.2711 C492.9817,160.5773 493.2751,160.8901 493.5747,161.2095 C494.1739,161.8484 494.7977,162.5136 495.4452,163.2039 C496.7402,164.5846 498.1297,166.0661 499.6056,167.6399 C502.5576,170.7874 505.8555,174.3038 509.4349,178.1203 C523.7523,193.3863 542.5725,213.454 561.767,233.921 " fill="none" id="ABS\noperational\ndatabase-n1" style="stroke: #A80036; stroke-width: 1.0; stroke-dasharray: 7.0,7.0;"/><!--MD5=[b0da83c35420044a6697266e8d350fb1]
link n1 to ABS\ndefining\ndatabase--><path d="M650,424.229 C650,428.2514 650,432.3116 650,436.3899 C650,438.4291 650,440.4727 650,442.5184 C650,443.5412 650,444.5645 650,445.588 C650,446.0998 650,446.6116 650,447.1234 C650,447.3793 650,447.6353 650,447.8912 " fill="none" id="n1-ABS\ndefining\ndatabase" style="stroke: #A80036; stroke-width: 1.0; stroke-dasharray: 7.0,7.0;"/><!--MD5=[4cde3e355d033b312d756896b22a38c0]
@startuml

database ABS\noperational\ndatabase {
TVERTRAG ||..o{ TVERSVERTRAG
TVERTRAG ||..|| TVNEHMER
TVERSVERTRAG ||..o{ TPRODAUS
TPRODAUS ||- -o{ TVERSPERS
TPRODAUS ||- -o{ TZUABSCHLAG
TPRODAUS ||- -o{ TVERSSACHE
TVERSPERS }o- -|| TPERSON
}


database ABS\ndefining\ndatabase {
THSP_EIGEN ||- -o{ TPBUENDBEST
TPBUENDBEST }o- -|| TSP_EIGEN
TSP_EIGEN ||- -o{ TPRODSCHABL
TPRODSCHABL ||..o{ TPRODBAUSTEIN
TPRODSCHABL ||- -o{ TTARIFREFERENZ
TTARIFREFERENZ }o- -|| TVERSTARIF
}


note as n1
attribute for rating
can originate in any
of the tables in
the ABS data model

attribute 1 .. TVERTRAG.SPARTE_EIGEN
attribute 2 .. THSP_EIGEN.PRODKBEZ
attribute 3 .. TPRODAUS.SUMME
attribute 4 .. TPRODAUS.INSTANZID


end note

ABS\noperational\ndatabase .. n1
n1 .. ABS\ndefining\ndatabase

@enduml

PlantUML version 1.2020.06(Sun Apr 05 14:38:32 CEST 2020)
(APACHE source distribution)
Java Runtime: OpenJDK Runtime Environment
JVM: OpenJDK 64-Bit Server VM
Java Version: 11.0.3+7
Operating System: Windows 10
Default Encoding: Cp1252
Language: de
Country: DE
--></g></svg>