<?xml version="1.0" encoding="UTF-8" standalone="no"?><svg xmlns="http://www.w3.org/2000/svg" xmlns:xlink="http://www.w3.org/1999/xlink" contentScriptType="application/ecmascript" contentStyleType="text/css" height="320px" preserveAspectRatio="none" style="width:546px;height:320px;" version="1.1" viewBox="0 0 546 320" width="546px" zoomAndPan="magnify"><defs><filter height="300%" id="fne8gtk64dp25" width="300%" x="-1" y="-1"><feGaussianBlur result="blurOut" stdDeviation="2.0"/><feColorMatrix in="blurOut" result="blurOut2" type="matrix" values="0 0 0 0 0 0 0 0 0 0 0 0 0 0 0 0 0 0 .4 0"/><feOffset dx="4.0" dy="4.0" in="blurOut2" result="blurOut3"/><feBlend in="SourceGraphic" in2="blurOut3" mode="normal"/></filter></defs><g><!--MD5=[9b8c6be1df146e5abec69b6abdd3d272]
cluster Windows--><polygon fill="#FFFFFF" filter="url(#fne8gtk64dp25)" points="22,24,91,24,98,47.6094,261,47.6094,261,308,22,308,22,24" style="stroke: #000000; stroke-width: 1.5;"/><line style="stroke: #000000; stroke-width: 1.5;" x1="22" x2="98" y1="47.6094" y2="47.6094"/><text fill="#000000" font-family="sans-serif" font-size="14" font-weight="bold" lengthAdjust="spacingAndGlyphs" textLength="63" x="26" y="40.5332">Windows</text><!--MD5=[82cac598741a9e867291781c7b868787]
cluster mom1--><rect fill="#FFF8DC" filter="url(#fne8gtk64dp25)" height="106" style="stroke: #000000; stroke-width: 1.5;" width="175" x="54" y="170"/><rect fill="#FFF8DC" height="10" style="stroke: #000000; stroke-width: 1.5;" width="15" x="209" y="175"/><rect fill="#FFF8DC" height="2" style="stroke: #000000; stroke-width: 1.5;" width="4" x="207" y="177"/><rect fill="#FFF8DC" height="2" style="stroke: #000000; stroke-width: 1.5;" width="4" x="207" y="181"/><text fill="#000000" font-family="sans-serif" font-size="14" font-weight="bold" lengthAdjust="spacingAndGlyphs" textLength="37" x="123" y="197.5332">MOM</text><!--MD5=[878f2a59723f6dd24b07858462e6da2d]
cluster zOS--><polygon fill="#FFFFFF" filter="url(#fne8gtk64dp25)" points="285,24,318,24,325,47.6094,524,47.6094,524,308,285,308,285,24" style="stroke: #000000; stroke-width: 1.5;"/><line style="stroke: #000000; stroke-width: 1.5;" x1="285" x2="325" y1="47.6094" y2="47.6094"/><text fill="#000000" font-family="sans-serif" font-size="14" font-weight="bold" lengthAdjust="spacingAndGlyphs" textLength="27" x="289" y="40.5332">zOS</text><!--MD5=[d844553193a6b772924039f8fc44e645]
cluster mom2--><rect fill="#FFF8DC" filter="url(#fne8gtk64dp25)" height="106" style="stroke: #000000; stroke-width: 1.5;" width="175" x="317" y="170"/><rect fill="#FFF8DC" height="10" style="stroke: #000000; stroke-width: 1.5;" width="15" x="472" y="175"/><rect fill="#FFF8DC" height="2" style="stroke: #000000; stroke-width: 1.5;" width="4" x="470" y="177"/><rect fill="#FFF8DC" height="2" style="stroke: #000000; stroke-width: 1.5;" width="4" x="470" y="181"/><text fill="#000000" font-family="sans-serif" font-size="14" font-weight="bold" lengthAdjust="spacingAndGlyphs" textLength="37" x="386" y="197.5332">MOM</text><!--MD5=[50f6993033c4e5f48666d755015d13f7]
entity blc--><rect fill="#FEFECE" filter="url(#fne8gtk64dp25)" height="37.6094" style="stroke: #A80036; stroke-width: 1.5;" width="155" x="38.5" y="60"/><rect fill="#FEFECE" height="5" style="stroke: #A80036; stroke-width: 1.5;" width="10" x="33.5" y="65"/><rect fill="#FEFECE" height="5" style="stroke: #A80036; stroke-width: 1.5;" width="10" x="33.5" y="87.6094"/><text fill="#000000" font-family="sans-serif" font-size="14" lengthAdjust="spacingAndGlyphs" textLength="135" x="48.5" y="84.5332">Business Logic Client</text><!--MD5=[56669f3142b5a8f98ed2f989a9a9626f]
entity cpl1--><rect fill="#FEFECE" filter="url(#fne8gtk64dp25)" height="37.6094" style="stroke: #A80036; stroke-width: 1.5;" width="108" x="97" y="214"/><rect fill="#FEFECE" height="5" style="stroke: #A80036; stroke-width: 1.5;" width="10" x="92" y="219"/><rect fill="#FEFECE" height="5" style="stroke: #A80036; stroke-width: 1.5;" width="10" x="92" y="241.6094"/><text fill="#000000" font-family="sans-serif" font-size="14" lengthAdjust="spacingAndGlyphs" textLength="88" x="107" y="238.5332">CPL generate</text><!--MD5=[cb65735b1890dabcafed4bb5e661634d]
entity blb--><rect fill="#FEFECE" filter="url(#fne8gtk64dp25)" height="37.6094" style="stroke: #A80036; stroke-width: 1.5;" width="155" x="301.5" y="60"/><rect fill="#FEFECE" height="5" style="stroke: #A80036; stroke-width: 1.5;" width="10" x="296.5" y="65"/><rect fill="#FEFECE" height="5" style="stroke: #A80036; stroke-width: 1.5;" width="10" x="296.5" y="87.6094"/><text fill="#000000" font-family="sans-serif" font-size="14" lengthAdjust="spacingAndGlyphs" textLength="135" x="311.5" y="84.5332">Business Logic Batch</text><!--MD5=[af53d6d5a276d403ea9f45b3ff4a232f]
entity cpl2--><rect fill="#FEFECE" filter="url(#fne8gtk64dp25)" height="37.6094" style="stroke: #A80036; stroke-width: 1.5;" width="108" x="360" y="214"/><rect fill="#FEFECE" height="5" style="stroke: #A80036; stroke-width: 1.5;" width="10" x="355" y="219"/><rect fill="#FEFECE" height="5" style="stroke: #A80036; stroke-width: 1.5;" width="10" x="355" y="241.6094"/><text fill="#000000" font-family="sans-serif" font-size="14" lengthAdjust="spacingAndGlyphs" textLength="88" x="370" y="238.5332">CPL generate</text><!--MD5=[a245d657d6a21bbd10a3092fcec8f53a]
link blc to mom1--><path d="M106.161,98.112 C98.4794,112.831 87.9742,134.307 81,154 C79.5576,158.0727 78.186,162.3029 76.889,166.5926 C76.5648,167.665 76.2453,168.7412 75.9304,169.8195 " fill="none" id="blc-&gt;mom1" style="stroke: #A80036; stroke-width: 1.0;"/><polygon fill="#A80036" points="75.9304,169.8195,82.2924,162.3012,77.3317,165.0199,74.613,160.0592,75.9304,169.8195" style="stroke: #A80036; stroke-width: 1.0;"/><text fill="#000000" font-family="sans-serif" font-size="13" lengthAdjust="spacingAndGlyphs" textLength="84" x="93" y="142.4951">in process call</text><!--MD5=[e8890c3f3210dcc1601bf25335c58f18]
link blb to mom2--><path d="M369.161,98.112 C361.479,112.831 350.974,134.307 344,154 C342.5576,158.0727 341.186,162.3029 339.8891,166.5926 C339.5648,167.665 339.2453,168.7412 338.9304,169.8195 " fill="none" id="blb-&gt;mom2" style="stroke: #A80036; stroke-width: 1.0;"/><polygon fill="#A80036" points="338.9304,169.8195,345.2924,162.3012,340.3317,165.0199,337.613,160.0592,338.9304,169.8195" style="stroke: #A80036; stroke-width: 1.0;"/><text fill="#000000" font-family="sans-serif" font-size="13" lengthAdjust="spacingAndGlyphs" textLength="84" x="355" y="142.4951">in process call</text><!--MD5=[87032797b5dc6f96a87f8212f50d10eb]
@startuml

package "Windows" {
  [Business Logic Client] as blc
  component [MOM] as mom1 #Cornsilk {
		[CPL generate] as cpl1
  }
  blc - -> mom1 : in process call
}
package "zOS" {
  [Business Logic Batch] as blb
  component [MOM] as mom2 #Cornsilk {
    [CPL generate] as cpl2
  }
  blb - -> mom2 : in process call
}

@enduml

PlantUML version 1.2020.06(Sun Apr 05 14:38:32 CEST 2020)
(APACHE source distribution)
Java Runtime: OpenJDK Runtime Environment
JVM: OpenJDK 64-Bit Server VM
Java Version: 11.0.3+7
Operating System: Windows 10
Default Encoding: Cp1252
Language: de
Country: DE
--></g></svg>