<?xml version="1.0" encoding="UTF-8" standalone="no"?><svg xmlns="http://www.w3.org/2000/svg" xmlns:xlink="http://www.w3.org/1999/xlink" contentScriptType="application/ecmascript" contentStyleType="text/css" height="206px" preserveAspectRatio="none" style="width:444px;height:206px;" version="1.1" viewBox="0 0 444 206" width="444px" zoomAndPan="magnify"><defs><filter height="300%" id="f19mxlz2g8ala2" width="300%" x="-1" y="-1"><feGaussianBlur result="blurOut" stdDeviation="2.0"/><feColorMatrix in="blurOut" result="blurOut2" type="matrix" values="0 0 0 0 0 0 0 0 0 0 0 0 0 0 0 0 0 0 .4 0"/><feOffset dx="4.0" dy="4.0" in="blurOut2" result="blurOut3"/><feBlend in="SourceGraphic" in2="blurOut3" mode="normal"/></filter></defs><g><!--MD5=[9b8c6be1df146e5abec69b6abdd3d272]
cluster Windows--><polygon fill="#FFFFFF" filter="url(#f19mxlz2g8ala2)" points="234,24,303,24,310,47.6094,422,47.6094,422,114,234,114,234,24" style="stroke: #000000; stroke-width: 1.5;"/><line style="stroke: #000000; stroke-width: 1.5;" x1="234" x2="310" y1="47.6094" y2="47.6094"/><text fill="#000000" font-family="sans-serif" font-size="14" font-weight="bold" lengthAdjust="spacingAndGlyphs" textLength="63" x="238" y="40.5332">Windows</text><!--MD5=[878f2a59723f6dd24b07858462e6da2d]
cluster zOS--><polygon fill="#FFFFFF" filter="url(#f19mxlz2g8ala2)" points="22,24,55,24,62,47.6094,210,47.6094,210,114,22,114,22,24" style="stroke: #000000; stroke-width: 1.5;"/><line style="stroke: #000000; stroke-width: 1.5;" x1="22" x2="62" y1="47.6094" y2="47.6094"/><text fill="#000000" font-family="sans-serif" font-size="14" font-weight="bold" lengthAdjust="spacingAndGlyphs" textLength="27" x="26" y="40.5332">zOS</text><!--MD5=[50f6993033c4e5f48666d755015d13f7]
entity blc--><rect fill="#FEFECE" filter="url(#f19mxlz2g8ala2)" height="37.6094" style="stroke: #A80036; stroke-width: 1.5;" width="155" x="250.5" y="60"/><rect fill="#FEFECE" height="5" style="stroke: #A80036; stroke-width: 1.5;" width="10" x="245.5" y="65"/><rect fill="#FEFECE" height="5" style="stroke: #A80036; stroke-width: 1.5;" width="10" x="245.5" y="87.6094"/><text fill="#000000" font-family="sans-serif" font-size="14" lengthAdjust="spacingAndGlyphs" textLength="135" x="260.5" y="84.5332">Business Logic Client</text><!--MD5=[cb65735b1890dabcafed4bb5e661634d]
entity blb--><rect fill="#FEFECE" filter="url(#f19mxlz2g8ala2)" height="37.6094" style="stroke: #A80036; stroke-width: 1.5;" width="155" x="38.5" y="60"/><rect fill="#FEFECE" height="5" style="stroke: #A80036; stroke-width: 1.5;" width="10" x="33.5" y="65"/><rect fill="#FEFECE" height="5" style="stroke: #A80036; stroke-width: 1.5;" width="10" x="33.5" y="87.6094"/><text fill="#000000" font-family="sans-serif" font-size="14" lengthAdjust="spacingAndGlyphs" textLength="135" x="48.5" y="84.5332">Business Logic Batch</text><!--MD5=[82253ed2038fc33bc5e74d7cfbc0dcf9]
entity CPL--><rect fill="#FEFECE" filter="url(#f19mxlz2g8ala2)" height="37.6094" style="stroke: #A80036; stroke-width: 1.5;" width="47" x="92.5" y="158"/><rect fill="#FEFECE" height="5" style="stroke: #A80036; stroke-width: 1.5;" width="10" x="87.5" y="163"/><rect fill="#FEFECE" height="5" style="stroke: #A80036; stroke-width: 1.5;" width="10" x="87.5" y="185.6094"/><text fill="#000000" font-family="sans-serif" font-size="14" lengthAdjust="spacingAndGlyphs" textLength="27" x="102.5" y="182.5332">CPL</text><path d="M175,164 L175,173 L139.508,177 L175,181 L175,190.3516 A0,0 0 0 0 175,190.3516 L293,190.3516 A0,0 0 0 0 293,190.3516 L293,174 L283,164 L175,164 A0,0 0 0 0 175,164 " fill="#FBFB77" filter="url(#f19mxlz2g8ala2)" style="stroke: #A80036; stroke-width: 1.0;"/><path d="M283,164 L283,174 L293,174 L283,164 " fill="#FBFB77" style="stroke: #A80036; stroke-width: 1.0;"/><text fill="#000000" font-family="sans-serif" font-size="13" lengthAdjust="spacingAndGlyphs" textLength="97" x="181" y="182.4951">generated C files</text><!--MD5=[d74994240f2e2d6a628dea77c5d0569b]
link blb to CPL--><!--MD5=[9745db5748f337569fdcbed9521c17c2]
@startuml

package "Windows" {
  [Business Logic Client] as blc
}
package "zOS" {
  [Business Logic Batch] as blb
}
[CPL]

note right of [CPL]
  generated C files
end note

[blb] -[hidden]down-> [CPL]

@enduml

PlantUML version 1.2020.06(Sun Apr 05 14:38:32 CEST 2020)
(APACHE source distribution)
Java Runtime: OpenJDK Runtime Environment
JVM: OpenJDK 64-Bit Server VM
Java Version: 11.0.3+7
Operating System: Windows 10
Default Encoding: Cp1252
Language: de
Country: DE
--></g></svg>