<?xml version="1.0" encoding="UTF-8" standalone="no"?><svg xmlns="http://www.w3.org/2000/svg" xmlns:xlink="http://www.w3.org/1999/xlink" contentScriptType="application/ecmascript" contentStyleType="text/css" height="589.5833px" preserveAspectRatio="none" style="width:1662px;height:589px;" version="1.1" viewBox="0 0 1662 589" width="1662.5px" zoomAndPan="magnify"><defs><filter height="300%" id="f1nlkmg4sybsxk" width="300%" x="-1" y="-1"><feGaussianBlur result="blurOut" stdDeviation="4.166666666666667"/><feColorMatrix in="blurOut" result="blurOut2" type="matrix" values="0 0 0 0 0 0 0 0 0 0 0 0 0 0 0 0 0 0 .4 0"/><feOffset dx="8.333333333333334" dy="8.333333333333334" in="blurOut2" result="blurOut3"/><feBlend in="SourceGraphic" in2="blurOut3" mode="normal"/></filter></defs><g><!--MD5=[12057da738a717c4f15453f0fe846184]
class CacheChainDataBuffer--><rect fill="#00FFFF" filter="url(#f1nlkmg4sybsxk)" height="100" id="CacheChainDataBuffer" style="stroke: #A80036; stroke-width: 3.125;" width="331.25" x="642.7083" y="16.6667"/><ellipse cx="673.9583" cy="50" fill="#ADD1B2" rx="22.9167" ry="22.9167" style="stroke: #A80036; stroke-width: 2.0833333333333335;"/><path d="M679.7201,41.4063 Q680.0456,40.9505 680.4362,40.7227 Q680.8268,40.4948 681.2826,40.4948 Q682.0638,40.4948 682.5521,41.0482 Q683.0404,41.569 683.0404,42.8385 L683.0404,45.8659 Q683.0404,47.1354 682.5521,47.6888 Q682.0638,48.2422 681.2826,48.2422 Q680.5664,48.2422 680.1432,47.819 Q679.7201,47.4284 679.4922,46.3542 Q679.3945,45.6055 679.0039,45.2148 Q678.3203,44.4336 677.0508,43.9779 Q675.7813,43.5221 674.4792,43.5221 Q672.8841,43.5221 671.5495,44.2057 Q670.2474,44.8893 669.2057,46.4518 Q668.1966,48.0143 668.1966,50.1628 L668.1966,52.4414 Q668.1966,55.013 670.0521,56.7383 Q671.9076,58.431 675.2279,58.431 Q677.181,58.431 678.5482,57.9102 Q679.362,57.5846 680.2409,56.6732 Q680.7943,56.1198 681.0872,55.957 Q681.4128,55.7943 681.8359,55.7943 Q682.5195,55.7943 683.0404,56.3477 Q683.5938,56.8685 683.5938,57.5846 Q683.5938,58.3008 682.8776,59.1471 Q681.8359,60.3516 680.1758,61.0352 Q677.9297,61.9792 675.2279,61.9792 Q672.0703,61.9792 669.5638,60.6771 Q667.513,59.6354 666.0807,57.4219 Q664.6484,55.1758 664.6484,52.5065 L664.6484,50.0977 Q664.6484,47.3307 665.918,44.9544 Q667.2201,42.5456 669.4987,41.276 Q671.7773,39.974 674.349,39.974 Q675.8789,39.974 677.2135,40.332 Q678.5807,40.6576 679.7201,41.4063 Z "/><text fill="#000000" font-family="sans-serif" font-size="25" lengthAdjust="spacingAndGlyphs" textLength="264.5833" x="703.125" y="60.2295">CacheChainDataBuffer</text><line style="stroke: #A80036; stroke-width: 3.125;" x1="644.7917" x2="971.875" y1="83.3333" y2="83.3333"/><line style="stroke: #A80036; stroke-width: 3.125;" x1="644.7917" x2="971.875" y1="100" y2="100"/><!--MD5=[31ecf96fbc39bf38f8f9b8499c39bfa2]
class DataBufferSerializer--><rect fill="#00FFFF" filter="url(#f1nlkmg4sybsxk)" height="100" id="DataBufferSerializer" style="stroke: #A80036; stroke-width: 3.125;" width="295.8333" x="660.4167" y="241.6667"/><ellipse cx="691.6667" cy="275" fill="#ADD1B2" rx="22.9167" ry="22.9167" style="stroke: #A80036; stroke-width: 2.0833333333333335;"/><path d="M697.4284,266.4063 Q697.7539,265.9505 698.1445,265.7227 Q698.5352,265.4948 698.9909,265.4948 Q699.7721,265.4948 700.2604,266.0482 Q700.7487,266.569 700.7487,267.8385 L700.7487,270.8659 Q700.7487,272.1354 700.2604,272.6888 Q699.7721,273.2422 698.9909,273.2422 Q698.2747,273.2422 697.8516,272.819 Q697.4284,272.4284 697.2005,271.3542 Q697.1029,270.6055 696.7122,270.2148 Q696.0286,269.4336 694.7591,268.9779 Q693.4896,268.5221 692.1875,268.5221 Q690.5924,268.5221 689.2578,269.2057 Q687.9557,269.8893 686.9141,271.4518 Q685.9049,273.0143 685.9049,275.1628 L685.9049,277.4414 Q685.9049,280.013 687.7604,281.7383 Q689.6159,283.431 692.9362,283.431 Q694.8893,283.431 696.2565,282.9102 Q697.0703,282.5846 697.9492,281.6732 Q698.5026,281.1198 698.7956,280.957 Q699.1211,280.7943 699.5443,280.7943 Q700.2279,280.7943 700.7487,281.3477 Q701.3021,281.8685 701.3021,282.5846 Q701.3021,283.3008 700.5859,284.1471 Q699.5443,285.3516 697.8841,286.0352 Q695.638,286.9792 692.9362,286.9792 Q689.7786,286.9792 687.2721,285.6771 Q685.2214,284.6354 683.7891,282.4219 Q682.3568,280.1758 682.3568,277.5065 L682.3568,275.0977 Q682.3568,272.3307 683.6263,269.9544 Q684.9284,267.5456 687.207,266.276 Q689.4857,264.974 692.0573,264.974 Q693.5872,264.974 694.9219,265.332 Q696.2891,265.6576 697.4284,266.4063 Z "/><text fill="#000000" font-family="sans-serif" font-size="25" lengthAdjust="spacingAndGlyphs" textLength="229.1667" x="720.8333" y="285.2295">DataBufferSerializer</text><line style="stroke: #A80036; stroke-width: 3.125;" x1="662.5" x2="954.1667" y1="308.3333" y2="308.3333"/><line style="stroke: #A80036; stroke-width: 3.125;" x1="662.5" x2="954.1667" y1="325" y2="325"/><!--MD5=[ff3cfef5b2e9a171364802c40d5b425c]
class MemoryCacheSerializer--><rect fill="#00FFFF" filter="url(#f1nlkmg4sybsxk)" height="100" id="MemoryCacheSerializer" style="stroke: #A80036; stroke-width: 3.125;" width="341.6667" x="12.5" y="466.6667"/><ellipse cx="43.75" cy="500" fill="#ADD1B2" rx="22.9167" ry="22.9167" style="stroke: #A80036; stroke-width: 2.0833333333333335;"/><path d="M49.5117,491.4063 Q49.8372,490.9505 50.2279,490.7227 Q50.6185,490.4948 51.0742,490.4948 Q51.8555,490.4948 52.3438,491.0482 Q52.832,491.569 52.832,492.8385 L52.832,495.8659 Q52.832,497.1354 52.3438,497.6888 Q51.8555,498.2422 51.0742,498.2422 Q50.3581,498.2422 49.9349,497.819 Q49.5117,497.4284 49.2839,496.3542 Q49.1862,495.6055 48.7956,495.2148 Q48.112,494.4336 46.8424,493.9779 Q45.5729,493.5221 44.2708,493.5221 Q42.6758,493.5221 41.3411,494.2057 Q40.0391,494.8893 38.9974,496.4518 Q37.9883,498.0143 37.9883,500.1628 L37.9883,502.4414 Q37.9883,505.013 39.8438,506.7383 Q41.6992,508.431 45.0195,508.431 Q46.9727,508.431 48.3398,507.9102 Q49.1536,507.5846 50.0326,506.6732 Q50.5859,506.1198 50.8789,505.957 Q51.2044,505.7943 51.6276,505.7943 Q52.3112,505.7943 52.832,506.3477 Q53.3854,506.8685 53.3854,507.5846 Q53.3854,508.3008 52.6693,509.1471 Q51.6276,510.3516 49.9674,511.0352 Q47.7214,511.9792 45.0195,511.9792 Q41.862,511.9792 39.3555,510.6771 Q37.3047,509.6354 35.8724,507.4219 Q34.4401,505.1758 34.4401,502.5065 L34.4401,500.0977 Q34.4401,497.3307 35.7096,494.9544 Q37.0117,492.5456 39.2904,491.276 Q41.569,489.974 44.1406,489.974 Q45.6706,489.974 47.0052,490.332 Q48.3724,490.6576 49.5117,491.4063 Z "/><text fill="#000000" font-family="sans-serif" font-size="25" lengthAdjust="spacingAndGlyphs" textLength="275" x="72.9167" y="510.2295">MemoryCacheSerializer</text><line style="stroke: #A80036; stroke-width: 3.125;" x1="14.5833" x2="352.0833" y1="533.3333" y2="533.3333"/><line style="stroke: #A80036; stroke-width: 3.125;" x1="14.5833" x2="352.0833" y1="550" y2="550"/><!--MD5=[2ae186421d086b13285de92664e5d782]
class RedisCacheSerializer--><rect fill="#00FFFF" filter="url(#f1nlkmg4sybsxk)" height="100" id="RedisCacheSerializer" style="stroke: #A80036; stroke-width: 3.125;" width="316.6667" x="427.0833" y="466.6667"/><ellipse cx="458.3333" cy="500" fill="#ADD1B2" rx="22.9167" ry="22.9167" style="stroke: #A80036; stroke-width: 2.0833333333333335;"/><path d="M464.0951,491.4063 Q464.4206,490.9505 464.8112,490.7227 Q465.2018,490.4948 465.6576,490.4948 Q466.4388,490.4948 466.9271,491.0482 Q467.4154,491.569 467.4154,492.8385 L467.4154,495.8659 Q467.4154,497.1354 466.9271,497.6888 Q466.4388,498.2422 465.6576,498.2422 Q464.9414,498.2422 464.5182,497.819 Q464.0951,497.4284 463.8672,496.3542 Q463.7695,495.6055 463.3789,495.2148 Q462.6953,494.4336 461.4258,493.9779 Q460.1563,493.5221 458.8542,493.5221 Q457.2591,493.5221 455.9245,494.2057 Q454.6224,494.8893 453.5807,496.4518 Q452.5716,498.0143 452.5716,500.1628 L452.5716,502.4414 Q452.5716,505.013 454.4271,506.7383 Q456.2826,508.431 459.6029,508.431 Q461.556,508.431 462.9232,507.9102 Q463.737,507.5846 464.6159,506.6732 Q465.1693,506.1198 465.4622,505.957 Q465.7878,505.7943 466.2109,505.7943 Q466.8945,505.7943 467.4154,506.3477 Q467.9688,506.8685 467.9688,507.5846 Q467.9688,508.3008 467.2526,509.1471 Q466.2109,510.3516 464.5508,511.0352 Q462.3047,511.9792 459.6029,511.9792 Q456.4453,511.9792 453.9388,510.6771 Q451.888,509.6354 450.4557,507.4219 Q449.0234,505.1758 449.0234,502.5065 L449.0234,500.0977 Q449.0234,497.3307 450.293,494.9544 Q451.5951,492.5456 453.8737,491.276 Q456.1523,489.974 458.724,489.974 Q460.2539,489.974 461.5885,490.332 Q462.9557,490.6576 464.0951,491.4063 Z "/><text fill="#000000" font-family="sans-serif" font-size="25" lengthAdjust="spacingAndGlyphs" textLength="250" x="487.5" y="510.2295">RedisCacheSerializer</text><line style="stroke: #A80036; stroke-width: 3.125;" x1="429.1667" x2="741.6667" y1="533.3333" y2="533.3333"/><line style="stroke: #A80036; stroke-width: 3.125;" x1="429.1667" x2="741.6667" y1="550" y2="550"/><!--MD5=[2c7e52dd25b77fd74e78dc90716ed7f7]
class InfinispanRESTCacheSerializer--><rect fill="#00FFFF" filter="url(#f1nlkmg4sybsxk)" height="100" id="InfinispanRESTCacheSerializer" style="stroke: #A80036; stroke-width: 3.125;" width="427.0833" x="817.7083" y="466.6667"/><ellipse cx="848.9583" cy="500" fill="#ADD1B2" rx="22.9167" ry="22.9167" style="stroke: #A80036; stroke-width: 2.0833333333333335;"/><path d="M854.7201,491.4063 Q855.0456,490.9505 855.4362,490.7227 Q855.8268,490.4948 856.2826,490.4948 Q857.0638,490.4948 857.5521,491.0482 Q858.0404,491.569 858.0404,492.8385 L858.0404,495.8659 Q858.0404,497.1354 857.5521,497.6888 Q857.0638,498.2422 856.2826,498.2422 Q855.5664,498.2422 855.1432,497.819 Q854.7201,497.4284 854.4922,496.3542 Q854.3945,495.6055 854.0039,495.2148 Q853.3203,494.4336 852.0508,493.9779 Q850.7813,493.5221 849.4792,493.5221 Q847.8841,493.5221 846.5495,494.2057 Q845.2474,494.8893 844.2057,496.4518 Q843.1966,498.0143 843.1966,500.1628 L843.1966,502.4414 Q843.1966,505.013 845.0521,506.7383 Q846.9076,508.431 850.2279,508.431 Q852.181,508.431 853.5482,507.9102 Q854.362,507.5846 855.2409,506.6732 Q855.7943,506.1198 856.0872,505.957 Q856.4128,505.7943 856.8359,505.7943 Q857.5195,505.7943 858.0404,506.3477 Q858.5938,506.8685 858.5938,507.5846 Q858.5938,508.3008 857.8776,509.1471 Q856.8359,510.3516 855.1758,511.0352 Q852.9297,511.9792 850.2279,511.9792 Q847.0703,511.9792 844.5638,510.6771 Q842.513,509.6354 841.0807,507.4219 Q839.6484,505.1758 839.6484,502.5065 L839.6484,500.0977 Q839.6484,497.3307 840.918,494.9544 Q842.2201,492.5456 844.4987,491.276 Q846.7773,489.974 849.349,489.974 Q850.8789,489.974 852.2135,490.332 Q853.5807,490.6576 854.7201,491.4063 Z "/><text fill="#000000" font-family="sans-serif" font-size="25" lengthAdjust="spacingAndGlyphs" textLength="360.4167" x="878.125" y="510.2295">InfinispanRESTCacheSerializer</text><line style="stroke: #A80036; stroke-width: 3.125;" x1="819.7917" x2="1242.7083" y1="533.3333" y2="533.3333"/><line style="stroke: #A80036; stroke-width: 3.125;" x1="819.7917" x2="1242.7083" y1="550" y2="550"/><!--MD5=[9db51640914abac6ad2bb48992279514]
class DBCacheSerializerDD--><rect fill="#00FFFF" filter="url(#f1nlkmg4sybsxk)" height="100" id="DBCacheSerializerDD" style="stroke: #A80036; stroke-width: 3.125;" width="322.9167" x="1317.7083" y="466.6667"/><ellipse cx="1348.9583" cy="500" fill="#ADD1B2" rx="22.9167" ry="22.9167" style="stroke: #A80036; stroke-width: 2.0833333333333335;"/><path d="M1354.7201,491.4063 Q1355.0456,490.9505 1355.4362,490.7227 Q1355.8268,490.4948 1356.2826,490.4948 Q1357.0638,490.4948 1357.5521,491.0482 Q1358.0404,491.569 1358.0404,492.8385 L1358.0404,495.8659 Q1358.0404,497.1354 1357.5521,497.6888 Q1357.0638,498.2422 1356.2826,498.2422 Q1355.5664,498.2422 1355.1432,497.819 Q1354.7201,497.4284 1354.4922,496.3542 Q1354.3945,495.6055 1354.0039,495.2148 Q1353.3203,494.4336 1352.0508,493.9779 Q1350.7813,493.5221 1349.4792,493.5221 Q1347.8841,493.5221 1346.5495,494.2057 Q1345.2474,494.8893 1344.2057,496.4518 Q1343.1966,498.0143 1343.1966,500.1628 L1343.1966,502.4414 Q1343.1966,505.013 1345.0521,506.7383 Q1346.9076,508.431 1350.2279,508.431 Q1352.181,508.431 1353.5482,507.9102 Q1354.362,507.5846 1355.2409,506.6732 Q1355.7943,506.1198 1356.0872,505.957 Q1356.4128,505.7943 1356.8359,505.7943 Q1357.5195,505.7943 1358.0404,506.3477 Q1358.5938,506.8685 1358.5938,507.5846 Q1358.5938,508.3008 1357.8776,509.1471 Q1356.8359,510.3516 1355.1758,511.0352 Q1352.9297,511.9792 1350.2279,511.9792 Q1347.0703,511.9792 1344.5638,510.6771 Q1342.513,509.6354 1341.0807,507.4219 Q1339.6484,505.1758 1339.6484,502.5065 L1339.6484,500.0977 Q1339.6484,497.3307 1340.918,494.9544 Q1342.2201,492.5456 1344.4987,491.276 Q1346.7773,489.974 1349.349,489.974 Q1350.8789,489.974 1352.2135,490.332 Q1353.5807,490.6576 1354.7201,491.4063 Z "/><text fill="#000000" font-family="sans-serif" font-size="25" lengthAdjust="spacingAndGlyphs" textLength="256.25" x="1378.125" y="510.2295">DBCacheSerializerDD</text><line style="stroke: #A80036; stroke-width: 3.125;" x1="1319.7917" x2="1638.5417" y1="533.3333" y2="533.3333"/><line style="stroke: #A80036; stroke-width: 3.125;" x1="1319.7917" x2="1638.5417" y1="550" y2="550"/><!--MD5=[9e3796c82521c7cc760bfc8a0e01d080]
reverse link CacheChainDataBuffer to DataBufferSerializer--><path d="M808.3333,144.4542 C808.3333,176.4188 808.3333,212.7042 808.3333,240.9958 " fill="none" id="CacheChainDataBuffer&lt;-DataBufferSerializer" style="stroke: #A80036; stroke-width: 2.0833333333333335;"/><polygon fill="#A80036" points="808.3333,116.6667,800,129.1667,808.3333,141.6667,816.6667,129.1667,808.3333,116.6667" style="stroke: #A80036; stroke-width: 2.0833333333333335;"/><!--MD5=[50e4ae94d22642a81e7f49f2aa80433e]
reverse link DataBufferSerializer to DataBufferSerializer--><path d="M983.5229,253.0563 C1010.675,258.8625 1029.1667,271.7313 1029.1667,291.6667 C1029.1667,317.7042 997.6208,331.6896 956.4354,333.6208 " fill="none" id="DataBufferSerializer&lt;-DataBufferSerializer" style="stroke: #A80036; stroke-width: 2.0833333333333335;"/><polygon fill="#A80036" points="956.4354,249.7125,967.8202,259.5145,981.2471,252.7755,969.8622,242.9734,956.4354,249.7125" style="stroke: #A80036; stroke-width: 2.0833333333333335;"/><!--MD5=[d388377ef3483f5ad62f171d17d6ec10]
reverse link DataBufferSerializer to MemoryCacheSerializer--><path d="M633.1021,355.6646 C533.7375,390.7738 411.2646,434.0477 319.2229,466.569 " fill="none" id="DataBufferSerializer&lt;-MemoryCacheSerializer" style="stroke: #A80036; stroke-width: 2.0833333333333335;"/><polygon fill="none" points="628.5729,341.7979,672.7167,341.6667,638.2896,369.2992,628.5729,341.7979" style="stroke: #A80036; stroke-width: 2.0833333333333335;"/><!--MD5=[15965c0032863560016a2979e76b67d2]
reverse link DataBufferSerializer to RedisCacheSerializer--><path d="M729.9333,371.4171 C698.1563,402.8969 662.4375,438.2817 634.4625,465.9967 " fill="none" id="DataBufferSerializer&lt;-RedisCacheSerializer" style="stroke: #A80036; stroke-width: 2.0833333333333335;"/><polygon fill="none" points="720.1,360.6315,759.9646,341.6667,740.6271,381.3521,720.1,360.6315" style="stroke: #A80036; stroke-width: 2.0833333333333335;"/><!--MD5=[5d6b7afe0188c480f4505c6eaa89fd47]
reverse link DataBufferSerializer to InfinispanRESTCacheSerializer--><path d="M886.7333,371.4171 C918.5104,402.8969 954.2292,438.2817 982.2042,465.9967 " fill="none" id="DataBufferSerializer&lt;-InfinispanRESTCacheSerializer" style="stroke: #A80036; stroke-width: 2.0833333333333335;"/><polygon fill="none" points="876.0396,381.3521,856.7021,341.6667,896.5667,360.6315,876.0396,381.3521" style="stroke: #A80036; stroke-width: 2.0833333333333335;"/><!--MD5=[2ef72fd646674d8ccc62d14900915f9e]
reverse link DataBufferSerializer to DBCacheSerializerDD--><path d="M993.575,354.7313 C1100.7271,390.0035 1233.6417,433.7585 1333.3125,466.569 " fill="none" id="DataBufferSerializer&lt;-DBCacheSerializerDD" style="stroke: #A80036; stroke-width: 2.0833333333333335;"/><polygon fill="none" points="988.9125,368.5483,953.8938,341.6667,998.0313,340.8438,988.9125,368.5483" style="stroke: #A80036; stroke-width: 2.0833333333333335;"/><!--MD5=[b6fed2193f3689f57bde8cc286d10d30]
@startuml
skinparam dpi 200


class CacheChainDataBuffer #aqua
class DataBufferSerializer #aqua
class MemoryCacheSerializer #aqua
class RedisCacheSerializer #aqua
class InfinispanRESTCacheSerializer #aqua
class DBCacheSerializerDD #aqua

CacheChainDataBuffer *- - DataBufferSerializer
DataBufferSerializer *- - DataBufferSerializer
DataBufferSerializer <|- - MemoryCacheSerializer
DataBufferSerializer <|- - RedisCacheSerializer
DataBufferSerializer <|- - InfinispanRESTCacheSerializer
DataBufferSerializer <|- - DBCacheSerializerDD

@enduml

PlantUML version 1.2020.09(Sun May 10 12:51:06 CEST 2020)
(GPL source distribution)
Java Runtime: OpenJDK Runtime Environment
JVM: OpenJDK 64-Bit Server VM
Java Version: 12.0.1+12
Operating System: Windows 10
Default Encoding: UTF-8
Language: en
Country: US
--></g></svg>