<?xml version="1.0" encoding="UTF-8" standalone="no"?><svg xmlns="http://www.w3.org/2000/svg" xmlns:xlink="http://www.w3.org/1999/xlink" contentScriptType="application/ecmascript" contentStyleType="text/css" height="814.5833px" preserveAspectRatio="none" style="width:585px;height:814px;" version="1.1" viewBox="0 0 585 814" width="585.4167px" zoomAndPan="magnify"><defs><filter height="300%" id="f1n9q5a0qj3c1p" width="300%" x="-1" y="-1"><feGaussianBlur result="blurOut" stdDeviation="4.166666666666667"/><feColorMatrix in="blurOut" result="blurOut2" type="matrix" values="0 0 0 0 0 0 0 0 0 0 0 0 0 0 0 0 0 0 .4 0"/><feOffset dx="8.333333333333334" dy="8.333333333333334" in="blurOut2" result="blurOut3"/><feBlend in="SourceGraphic" in2="blurOut3" mode="normal"/></filter></defs><g><!--MD5=[711b15124508a1e9e4c49f6f7dbcd77f]
class BaseContext--><rect fill="#FEFECE" filter="url(#f1n9q5a0qj3c1p)" height="100" id="BaseContext" style="stroke: #A80036; stroke-width: 3.125;" width="212.5" x="317.7083" y="466.6667"/><ellipse cx="348.9583" cy="500" fill="#ADD1B2" rx="22.9167" ry="22.9167" style="stroke: #A80036; stroke-width: 2.0833333333333335;"/><path d="M354.7201,491.4063 Q355.0456,490.9505 355.4362,490.7227 Q355.8268,490.4948 356.2826,490.4948 Q357.0638,490.4948 357.5521,491.0482 Q358.0404,491.569 358.0404,492.8385 L358.0404,495.8659 Q358.0404,497.1354 357.5521,497.6888 Q357.0638,498.2422 356.2826,498.2422 Q355.5664,498.2422 355.1432,497.819 Q354.7201,497.4284 354.4922,496.3542 Q354.3945,495.6055 354.0039,495.2148 Q353.3203,494.4336 352.0508,493.9779 Q350.7813,493.5221 349.4792,493.5221 Q347.8841,493.5221 346.5495,494.2057 Q345.2474,494.8893 344.2057,496.4518 Q343.1966,498.0143 343.1966,500.1628 L343.1966,502.4414 Q343.1966,505.013 345.0521,506.7383 Q346.9076,508.431 350.2279,508.431 Q352.181,508.431 353.5482,507.9102 Q354.362,507.5846 355.2409,506.6732 Q355.7943,506.1198 356.0872,505.957 Q356.4128,505.7943 356.8359,505.7943 Q357.5195,505.7943 358.0404,506.3477 Q358.5938,506.8685 358.5938,507.5846 Q358.5938,508.3008 357.8776,509.1471 Q356.8359,510.3516 355.1758,511.0352 Q352.9297,511.9792 350.2279,511.9792 Q347.0703,511.9792 344.5638,510.6771 Q342.513,509.6354 341.0807,507.4219 Q339.6484,505.1758 339.6484,502.5065 L339.6484,500.0977 Q339.6484,497.3307 340.918,494.9544 Q342.2201,492.5456 344.4987,491.276 Q346.7773,489.974 349.349,489.974 Q350.8789,489.974 352.2135,490.332 Q353.5807,490.6576 354.7201,491.4063 Z "/><text fill="#000000" font-family="sans-serif" font-size="25" lengthAdjust="spacingAndGlyphs" textLength="145.8333" x="378.125" y="510.2295">BaseContext</text><line style="stroke: #A80036; stroke-width: 3.125;" x1="319.7917" x2="528.125" y1="533.3333" y2="533.3333"/><line style="stroke: #A80036; stroke-width: 3.125;" x1="319.7917" x2="528.125" y1="550" y2="550"/><!--MD5=[4e173958596030ebff1133a6f213ded7]
class ContractContext--><rect fill="#FEFECE" filter="url(#f1n9q5a0qj3c1p)" height="100" id="ContractContext" style="stroke: #A80036; stroke-width: 3.125;" width="250" x="151.0417" y="691.6667"/><ellipse cx="182.2917" cy="725" fill="#ADD1B2" rx="22.9167" ry="22.9167" style="stroke: #A80036; stroke-width: 2.0833333333333335;"/><path d="M188.0534,716.4063 Q188.3789,715.9505 188.7695,715.7227 Q189.1602,715.4948 189.6159,715.4948 Q190.3971,715.4948 190.8854,716.0482 Q191.3737,716.569 191.3737,717.8385 L191.3737,720.8659 Q191.3737,722.1354 190.8854,722.6888 Q190.3971,723.2422 189.6159,723.2422 Q188.8997,723.2422 188.4766,722.819 Q188.0534,722.4284 187.8255,721.3542 Q187.7279,720.6055 187.3372,720.2148 Q186.6536,719.4336 185.3841,718.9779 Q184.1146,718.5221 182.8125,718.5221 Q181.2174,718.5221 179.8828,719.2057 Q178.5807,719.8893 177.5391,721.4518 Q176.5299,723.0143 176.5299,725.1628 L176.5299,727.4414 Q176.5299,730.013 178.3854,731.7383 Q180.2409,733.431 183.5612,733.431 Q185.5143,733.431 186.8815,732.9102 Q187.6953,732.5846 188.5742,731.6732 Q189.1276,731.1198 189.4206,730.957 Q189.7461,730.7943 190.1693,730.7943 Q190.8529,730.7943 191.3737,731.3477 Q191.9271,731.8685 191.9271,732.5846 Q191.9271,733.3008 191.2109,734.1471 Q190.1693,735.3516 188.5091,736.0352 Q186.263,736.9792 183.5612,736.9792 Q180.4036,736.9792 177.8971,735.6771 Q175.8464,734.6354 174.4141,732.4219 Q172.9818,730.1758 172.9818,727.5065 L172.9818,725.0977 Q172.9818,722.3307 174.2513,719.9544 Q175.5534,717.5456 177.832,716.276 Q180.1107,714.974 182.6823,714.974 Q184.2122,714.974 185.5469,715.332 Q186.9141,715.6576 188.0534,716.4063 Z "/><text fill="#000000" font-family="sans-serif" font-size="25" lengthAdjust="spacingAndGlyphs" textLength="183.3333" x="211.4583" y="735.2295">ContractContext</text><line style="stroke: #A80036; stroke-width: 3.125;" x1="153.125" x2="398.9583" y1="758.3333" y2="758.3333"/><line style="stroke: #A80036; stroke-width: 3.125;" x1="153.125" x2="398.9583" y1="775" y2="775"/><!--MD5=[c08d78ae03f0258202614afa766056c4]
class RootObjectCtx--><rect fill="#00FFFF" filter="url(#f1n9q5a0qj3c1p)" height="100" id="RootObjectCtx" style="stroke: #A80036; stroke-width: 3.125;" width="231.25" x="12.5" y="466.6667"/><ellipse cx="43.75" cy="500" fill="#ADD1B2" rx="22.9167" ry="22.9167" style="stroke: #A80036; stroke-width: 2.0833333333333335;"/><path d="M49.5117,491.4063 Q49.8372,490.9505 50.2279,490.7227 Q50.6185,490.4948 51.0742,490.4948 Q51.8555,490.4948 52.3438,491.0482 Q52.832,491.569 52.832,492.8385 L52.832,495.8659 Q52.832,497.1354 52.3438,497.6888 Q51.8555,498.2422 51.0742,498.2422 Q50.3581,498.2422 49.9349,497.819 Q49.5117,497.4284 49.2839,496.3542 Q49.1862,495.6055 48.7956,495.2148 Q48.112,494.4336 46.8424,493.9779 Q45.5729,493.5221 44.2708,493.5221 Q42.6758,493.5221 41.3411,494.2057 Q40.0391,494.8893 38.9974,496.4518 Q37.9883,498.0143 37.9883,500.1628 L37.9883,502.4414 Q37.9883,505.013 39.8438,506.7383 Q41.6992,508.431 45.0195,508.431 Q46.9727,508.431 48.3398,507.9102 Q49.1536,507.5846 50.0326,506.6732 Q50.5859,506.1198 50.8789,505.957 Q51.2044,505.7943 51.6276,505.7943 Q52.3112,505.7943 52.832,506.3477 Q53.3854,506.8685 53.3854,507.5846 Q53.3854,508.3008 52.6693,509.1471 Q51.6276,510.3516 49.9674,511.0352 Q47.7214,511.9792 45.0195,511.9792 Q41.862,511.9792 39.3555,510.6771 Q37.3047,509.6354 35.8724,507.4219 Q34.4401,505.1758 34.4401,502.5065 L34.4401,500.0977 Q34.4401,497.3307 35.7096,494.9544 Q37.0117,492.5456 39.2904,491.276 Q41.569,489.974 44.1406,489.974 Q45.6706,489.974 47.0052,490.332 Q48.3724,490.6576 49.5117,491.4063 Z "/><text fill="#000000" font-family="sans-serif" font-size="25" lengthAdjust="spacingAndGlyphs" textLength="164.5833" x="72.9167" y="510.2295">RootObjectCtx</text><line style="stroke: #A80036; stroke-width: 3.125;" x1="14.5833" x2="241.6667" y1="533.3333" y2="533.3333"/><line style="stroke: #A80036; stroke-width: 3.125;" x1="14.5833" x2="241.6667" y1="550" y2="550"/><!--MD5=[033bf1e69d5a49916704ba066184fb28]
class TcdSharedContext--><rect fill="#00FFFF" filter="url(#f1n9q5a0qj3c1p)" height="100" id="TcdSharedContext" style="stroke: #A80036; stroke-width: 3.125;" width="279.1667" x="284.375" y="241.6667"/><ellipse cx="315.625" cy="275" fill="#ADD1B2" rx="22.9167" ry="22.9167" style="stroke: #A80036; stroke-width: 2.0833333333333335;"/><path d="M321.3867,266.4063 Q321.7122,265.9505 322.1029,265.7227 Q322.4935,265.4948 322.9492,265.4948 Q323.7305,265.4948 324.2188,266.0482 Q324.707,266.569 324.707,267.8385 L324.707,270.8659 Q324.707,272.1354 324.2188,272.6888 Q323.7305,273.2422 322.9492,273.2422 Q322.2331,273.2422 321.8099,272.819 Q321.3867,272.4284 321.1589,271.3542 Q321.0612,270.6055 320.6706,270.2148 Q319.987,269.4336 318.7174,268.9779 Q317.4479,268.5221 316.1458,268.5221 Q314.5508,268.5221 313.2161,269.2057 Q311.9141,269.8893 310.8724,271.4518 Q309.8633,273.0143 309.8633,275.1628 L309.8633,277.4414 Q309.8633,280.013 311.7188,281.7383 Q313.5742,283.431 316.8945,283.431 Q318.8477,283.431 320.2148,282.9102 Q321.0286,282.5846 321.9076,281.6732 Q322.4609,281.1198 322.7539,280.957 Q323.0794,280.7943 323.5026,280.7943 Q324.1862,280.7943 324.707,281.3477 Q325.2604,281.8685 325.2604,282.5846 Q325.2604,283.3008 324.5443,284.1471 Q323.5026,285.3516 321.8424,286.0352 Q319.5964,286.9792 316.8945,286.9792 Q313.737,286.9792 311.2305,285.6771 Q309.1797,284.6354 307.7474,282.4219 Q306.3151,280.1758 306.3151,277.5065 L306.3151,275.0977 Q306.3151,272.3307 307.5846,269.9544 Q308.8867,267.5456 311.1654,266.276 Q313.444,264.974 316.0156,264.974 Q317.5456,264.974 318.8802,265.332 Q320.2474,265.6576 321.3867,266.4063 Z "/><text fill="#000000" font-family="sans-serif" font-size="25" lengthAdjust="spacingAndGlyphs" textLength="212.5" x="344.7917" y="285.2295">TcdSharedContext</text><line style="stroke: #A80036; stroke-width: 3.125;" x1="286.4583" x2="561.4583" y1="308.3333" y2="308.3333"/><line style="stroke: #A80036; stroke-width: 3.125;" x1="286.4583" x2="561.4583" y1="325" y2="325"/><!--MD5=[31d87fbfc14808713f0e00024dcc35ee]
class AttributeContext--><rect fill="#00FFFF" filter="url(#f1n9q5a0qj3c1p)" height="100" id="AttributeContext" style="stroke: #A80036; stroke-width: 3.125;" width="247.9167" x="300" y="16.6667"/><ellipse cx="331.25" cy="50" fill="#ADD1B2" rx="22.9167" ry="22.9167" style="stroke: #A80036; stroke-width: 2.0833333333333335;"/><path d="M337.0117,41.4063 Q337.3372,40.9505 337.7279,40.7227 Q338.1185,40.4948 338.5742,40.4948 Q339.3555,40.4948 339.8438,41.0482 Q340.332,41.569 340.332,42.8385 L340.332,45.8659 Q340.332,47.1354 339.8438,47.6888 Q339.3555,48.2422 338.5742,48.2422 Q337.8581,48.2422 337.4349,47.819 Q337.0117,47.4284 336.7839,46.3542 Q336.6862,45.6055 336.2956,45.2148 Q335.612,44.4336 334.3424,43.9779 Q333.0729,43.5221 331.7708,43.5221 Q330.1758,43.5221 328.8411,44.2057 Q327.5391,44.8893 326.4974,46.4518 Q325.4883,48.0143 325.4883,50.1628 L325.4883,52.4414 Q325.4883,55.013 327.3438,56.7383 Q329.1992,58.431 332.5195,58.431 Q334.4727,58.431 335.8398,57.9102 Q336.6536,57.5846 337.5326,56.6732 Q338.0859,56.1198 338.3789,55.957 Q338.7044,55.7943 339.1276,55.7943 Q339.8112,55.7943 340.332,56.3477 Q340.8854,56.8685 340.8854,57.5846 Q340.8854,58.3008 340.1693,59.1471 Q339.1276,60.3516 337.4674,61.0352 Q335.2214,61.9792 332.5195,61.9792 Q329.362,61.9792 326.8555,60.6771 Q324.8047,59.6354 323.3724,57.4219 Q321.9401,55.1758 321.9401,52.5065 L321.9401,50.0977 Q321.9401,47.3307 323.2096,44.9544 Q324.5117,42.5456 326.7904,41.276 Q329.069,39.974 331.6406,39.974 Q333.1706,39.974 334.5052,40.332 Q335.8724,40.6576 337.0117,41.4063 Z "/><text fill="#000000" font-family="sans-serif" font-size="25" lengthAdjust="spacingAndGlyphs" textLength="181.25" x="360.4167" y="60.2295">AttributeContext</text><line style="stroke: #A80036; stroke-width: 3.125;" x1="302.0833" x2="545.8333" y1="83.3333" y2="83.3333"/><line style="stroke: #A80036; stroke-width: 3.125;" x1="302.0833" x2="545.8333" y1="100" y2="100"/><!--MD5=[dd10345aa8da186879d396df4fe2a66f]
reverse link BaseContext to ContractContext--><path d="M368.6208,601.366 C348.3958,631.5621 326.1833,664.7252 308.5854,690.9967 " fill="none" id="BaseContext&lt;-ContractContext" style="stroke: #A80036; stroke-width: 2.0833333333333335;"/><polygon fill="none" points="356.5583,593.1702,391.8625,566.6667,380.7917,609.4019,356.5583,593.1702" style="stroke: #A80036; stroke-width: 2.0833333333333335;"/><!--MD5=[5609fc149dd28ee6a206c1c10e2ff69f]
reverse link RootObjectCtx to ContractContext--><path d="M183.4621,601.366 C203.6877,631.5621 225.9,664.7252 243.4979,690.9967 " fill="none" id="RootObjectCtx&lt;-ContractContext" style="stroke: #A80036; stroke-width: 2.0833333333333335;"/><polygon fill="none" points="171.2921,609.4019,160.2206,566.6667,195.525,593.1702,171.2921,609.4019" style="stroke: #A80036; stroke-width: 2.0833333333333335;"/><!--MD5=[a37563d5b30aa2fb9de056bcd6b36bf6]
reverse link AttributeContext to TcdSharedContext--><path d="M423.9583,158.3833 C423.9583,186.6229 423.9583,216.7458 423.9583,240.9958 " fill="none" id="AttributeContext&lt;-TcdSharedContext" style="stroke: #A80036; stroke-width: 2.0833333333333335;"/><polygon fill="none" points="409.375,158.3333,423.9583,116.6667,438.5417,158.3333,409.375,158.3333" style="stroke: #A80036; stroke-width: 2.0833333333333335;"/><!--MD5=[1c9cacc334db26d8c3348a0e25c3af68]
reverse link TcdSharedContext to BaseContext--><path d="M423.9583,383.3833 C423.9583,411.6229 423.9583,441.7458 423.9583,465.9958 " fill="none" id="TcdSharedContext&lt;-BaseContext" style="stroke: #A80036; stroke-width: 2.0833333333333335;"/><polygon fill="none" points="409.375,383.3333,423.9583,341.6667,438.5417,383.3333,409.375,383.3333" style="stroke: #A80036; stroke-width: 2.0833333333333335;"/><!--MD5=[0e630ff8ed22737444e1ae34dfcd7fd2]
@startuml
skinparam dpi 200


BaseContext <|- - ContractContext
RootObjectCtx <|- - ContractContext

class RootObjectCtx #aqua
class TcdSharedContext #aqua
class AttributeContext #aqua

AttributeContext <|- - TcdSharedContext

TcdSharedContext <|- - BaseContext

@enduml

PlantUML version 1.2020.09(Sun May 10 12:51:06 CEST 2020)
(GPL source distribution)
Java Runtime: OpenJDK Runtime Environment
JVM: OpenJDK 64-Bit Server VM
Java Version: 12.0.1+12
Operating System: Windows 10
Default Encoding: UTF-8
Language: en
Country: US
--></g></svg>