<?xml version="1.0" encoding="UTF-8" standalone="no"?><svg xmlns="http://www.w3.org/2000/svg" xmlns:xlink="http://www.w3.org/1999/xlink" contentScriptType="application/ecmascript" contentStyleType="text/css" height="814.5833px" preserveAspectRatio="none" style="width:2279px;height:814px;" version="1.1" viewBox="0 0 2279 814" width="2279.1667px" zoomAndPan="magnify"><defs><filter height="300%" id="fe7a0dwftpig6" width="300%" x="-1" y="-1"><feGaussianBlur result="blurOut" stdDeviation="4.166666666666667"/><feColorMatrix in="blurOut" result="blurOut2" type="matrix" values="0 0 0 0 0 0 0 0 0 0 0 0 0 0 0 0 0 0 .4 0"/><feOffset dx="8.333333333333334" dy="8.333333333333334" in="blurOut2" result="blurOut3"/><feBlend in="SourceGraphic" in2="blurOut3" mode="normal"/></filter></defs><g><!--MD5=[4e173958596030ebff1133a6f213ded7]
class ContractContext--><rect fill="#FEFECE" filter="url(#fe7a0dwftpig6)" height="100" id="ContractContext" style="stroke: #A80036; stroke-width: 3.125;" width="250" x="807.2917" y="16.6667"/><ellipse cx="838.5417" cy="50" fill="#ADD1B2" rx="22.9167" ry="22.9167" style="stroke: #A80036; stroke-width: 2.0833333333333335;"/><path d="M844.3034,41.4063 Q844.6289,40.9505 845.0195,40.7227 Q845.4102,40.4948 845.8659,40.4948 Q846.6471,40.4948 847.1354,41.0482 Q847.6237,41.569 847.6237,42.8385 L847.6237,45.8659 Q847.6237,47.1354 847.1354,47.6888 Q846.6471,48.2422 845.8659,48.2422 Q845.1497,48.2422 844.7266,47.819 Q844.3034,47.4284 844.0755,46.3542 Q843.9779,45.6055 843.5872,45.2148 Q842.9036,44.4336 841.6341,43.9779 Q840.3646,43.5221 839.0625,43.5221 Q837.4674,43.5221 836.1328,44.2057 Q834.8307,44.8893 833.7891,46.4518 Q832.7799,48.0143 832.7799,50.1628 L832.7799,52.4414 Q832.7799,55.013 834.6354,56.7383 Q836.4909,58.431 839.8112,58.431 Q841.7643,58.431 843.1315,57.9102 Q843.9453,57.5846 844.8242,56.6732 Q845.3776,56.1198 845.6706,55.957 Q845.9961,55.7943 846.4193,55.7943 Q847.1029,55.7943 847.6237,56.3477 Q848.1771,56.8685 848.1771,57.5846 Q848.1771,58.3008 847.4609,59.1471 Q846.4193,60.3516 844.7591,61.0352 Q842.513,61.9792 839.8112,61.9792 Q836.6536,61.9792 834.1471,60.6771 Q832.0964,59.6354 830.6641,57.4219 Q829.2318,55.1758 829.2318,52.5065 L829.2318,50.0977 Q829.2318,47.3307 830.5013,44.9544 Q831.8034,42.5456 834.082,41.276 Q836.3607,39.974 838.9323,39.974 Q840.4622,39.974 841.7969,40.332 Q843.1641,40.6576 844.3034,41.4063 Z "/><text fill="#000000" font-family="sans-serif" font-size="25" lengthAdjust="spacingAndGlyphs" textLength="183.3333" x="867.7083" y="60.2295">ContractContext</text><line style="stroke: #A80036; stroke-width: 3.125;" x1="809.375" x2="1055.2083" y1="83.3333" y2="83.3333"/><line style="stroke: #A80036; stroke-width: 3.125;" x1="809.375" x2="1055.2083" y1="100" y2="100"/><!--MD5=[6260a2793f5e17c630e04cac185cdb2d]
class CoverageContext--><rect fill="#FEFECE" filter="url(#fe7a0dwftpig6)" height="100" id="CoverageContext" style="stroke: #A80036; stroke-width: 3.125;" width="266.6667" x="798.9583" y="241.6667"/><ellipse cx="830.2083" cy="275" fill="#ADD1B2" rx="22.9167" ry="22.9167" style="stroke: #A80036; stroke-width: 2.0833333333333335;"/><path d="M835.9701,266.4063 Q836.2956,265.9505 836.6862,265.7227 Q837.0768,265.4948 837.5326,265.4948 Q838.3138,265.4948 838.8021,266.0482 Q839.2904,266.569 839.2904,267.8385 L839.2904,270.8659 Q839.2904,272.1354 838.8021,272.6888 Q838.3138,273.2422 837.5326,273.2422 Q836.8164,273.2422 836.3932,272.819 Q835.9701,272.4284 835.7422,271.3542 Q835.6445,270.6055 835.2539,270.2148 Q834.5703,269.4336 833.3008,268.9779 Q832.0313,268.5221 830.7292,268.5221 Q829.1341,268.5221 827.7995,269.2057 Q826.4974,269.8893 825.4557,271.4518 Q824.4466,273.0143 824.4466,275.1628 L824.4466,277.4414 Q824.4466,280.013 826.3021,281.7383 Q828.1576,283.431 831.4779,283.431 Q833.431,283.431 834.7982,282.9102 Q835.612,282.5846 836.4909,281.6732 Q837.0443,281.1198 837.3372,280.957 Q837.6628,280.7943 838.0859,280.7943 Q838.7695,280.7943 839.2904,281.3477 Q839.8438,281.8685 839.8438,282.5846 Q839.8438,283.3008 839.1276,284.1471 Q838.0859,285.3516 836.4258,286.0352 Q834.1797,286.9792 831.4779,286.9792 Q828.3203,286.9792 825.8138,285.6771 Q823.763,284.6354 822.3307,282.4219 Q820.8984,280.1758 820.8984,277.5065 L820.8984,275.0977 Q820.8984,272.3307 822.168,269.9544 Q823.4701,267.5456 825.7487,266.276 Q828.0273,264.974 830.599,264.974 Q832.1289,264.974 833.4635,265.332 Q834.8307,265.6576 835.9701,266.4063 Z "/><text fill="#000000" font-family="sans-serif" font-size="25" lengthAdjust="spacingAndGlyphs" textLength="200" x="859.375" y="285.2295">CoverageContext</text><line style="stroke: #A80036; stroke-width: 3.125;" x1="801.0417" x2="1063.5417" y1="308.3333" y2="308.3333"/><line style="stroke: #A80036; stroke-width: 3.125;" x1="801.0417" x2="1063.5417" y1="325" y2="325"/><!--MD5=[2cd4bd3e357c2da8dc62ca906b44fb12]
class TariffCtxParent--><rect fill="#FEFECE" filter="url(#fe7a0dwftpig6)" height="100" id="TariffCtxParent" style="stroke: #A80036; stroke-width: 3.125;" width="235.4167" x="1770.8333" y="241.6667"/><ellipse cx="1802.0833" cy="275" fill="#ADD1B2" rx="22.9167" ry="22.9167" style="stroke: #A80036; stroke-width: 2.0833333333333335;"/><path d="M1807.8451,266.4063 Q1808.1706,265.9505 1808.5612,265.7227 Q1808.9518,265.4948 1809.4076,265.4948 Q1810.1888,265.4948 1810.6771,266.0482 Q1811.1654,266.569 1811.1654,267.8385 L1811.1654,270.8659 Q1811.1654,272.1354 1810.6771,272.6888 Q1810.1888,273.2422 1809.4076,273.2422 Q1808.6914,273.2422 1808.2682,272.819 Q1807.8451,272.4284 1807.6172,271.3542 Q1807.5195,270.6055 1807.1289,270.2148 Q1806.4453,269.4336 1805.1758,268.9779 Q1803.9063,268.5221 1802.6042,268.5221 Q1801.0091,268.5221 1799.6745,269.2057 Q1798.3724,269.8893 1797.3307,271.4518 Q1796.3216,273.0143 1796.3216,275.1628 L1796.3216,277.4414 Q1796.3216,280.013 1798.1771,281.7383 Q1800.0326,283.431 1803.3529,283.431 Q1805.306,283.431 1806.6732,282.9102 Q1807.487,282.5846 1808.3659,281.6732 Q1808.9193,281.1198 1809.2122,280.957 Q1809.5378,280.7943 1809.9609,280.7943 Q1810.6445,280.7943 1811.1654,281.3477 Q1811.7188,281.8685 1811.7188,282.5846 Q1811.7188,283.3008 1811.0026,284.1471 Q1809.9609,285.3516 1808.3008,286.0352 Q1806.0547,286.9792 1803.3529,286.9792 Q1800.1953,286.9792 1797.6888,285.6771 Q1795.638,284.6354 1794.2057,282.4219 Q1792.7734,280.1758 1792.7734,277.5065 L1792.7734,275.0977 Q1792.7734,272.3307 1794.043,269.9544 Q1795.3451,267.5456 1797.6237,266.276 Q1799.9023,264.974 1802.474,264.974 Q1804.0039,264.974 1805.3385,265.332 Q1806.7057,265.6576 1807.8451,266.4063 Z "/><text fill="#000000" font-family="sans-serif" font-size="25" lengthAdjust="spacingAndGlyphs" textLength="168.75" x="1831.25" y="285.2295">TariffCtxParent</text><line style="stroke: #A80036; stroke-width: 3.125;" x1="1772.9167" x2="2004.1667" y1="308.3333" y2="308.3333"/><line style="stroke: #A80036; stroke-width: 3.125;" x1="1772.9167" x2="2004.1667" y1="325" y2="325"/><!--MD5=[39c3bf0ab209c905f7fc195e6fbbf259]
class InsuredPerson_Context--><rect fill="#FEFECE" filter="url(#fe7a0dwftpig6)" height="100" id="InsuredPerson_Context" style="stroke: #A80036; stroke-width: 3.125;" width="335.4167" x="1920.8333" y="466.6667"/><ellipse cx="1952.0833" cy="500" fill="#ADD1B2" rx="22.9167" ry="22.9167" style="stroke: #A80036; stroke-width: 2.0833333333333335;"/><path d="M1957.8451,491.4063 Q1958.1706,490.9505 1958.5612,490.7227 Q1958.9518,490.4948 1959.4076,490.4948 Q1960.1888,490.4948 1960.6771,491.0482 Q1961.1654,491.569 1961.1654,492.8385 L1961.1654,495.8659 Q1961.1654,497.1354 1960.6771,497.6888 Q1960.1888,498.2422 1959.4076,498.2422 Q1958.6914,498.2422 1958.2682,497.819 Q1957.8451,497.4284 1957.6172,496.3542 Q1957.5195,495.6055 1957.1289,495.2148 Q1956.4453,494.4336 1955.1758,493.9779 Q1953.9063,493.5221 1952.6042,493.5221 Q1951.0091,493.5221 1949.6745,494.2057 Q1948.3724,494.8893 1947.3307,496.4518 Q1946.3216,498.0143 1946.3216,500.1628 L1946.3216,502.4414 Q1946.3216,505.013 1948.1771,506.7383 Q1950.0326,508.431 1953.3529,508.431 Q1955.306,508.431 1956.6732,507.9102 Q1957.487,507.5846 1958.3659,506.6732 Q1958.9193,506.1198 1959.2122,505.957 Q1959.5378,505.7943 1959.9609,505.7943 Q1960.6445,505.7943 1961.1654,506.3477 Q1961.7188,506.8685 1961.7188,507.5846 Q1961.7188,508.3008 1961.0026,509.1471 Q1959.9609,510.3516 1958.3008,511.0352 Q1956.0547,511.9792 1953.3529,511.9792 Q1950.1953,511.9792 1947.6888,510.6771 Q1945.638,509.6354 1944.2057,507.4219 Q1942.7734,505.1758 1942.7734,502.5065 L1942.7734,500.0977 Q1942.7734,497.3307 1944.043,494.9544 Q1945.3451,492.5456 1947.6237,491.276 Q1949.9023,489.974 1952.474,489.974 Q1954.0039,489.974 1955.3385,490.332 Q1956.7057,490.6576 1957.8451,491.4063 Z "/><text fill="#000000" font-family="sans-serif" font-size="25" lengthAdjust="spacingAndGlyphs" textLength="268.75" x="1981.25" y="510.2295">InsuredPerson_Context</text><line style="stroke: #A80036; stroke-width: 3.125;" x1="1922.9167" x2="2254.1667" y1="533.3333" y2="533.3333"/><line style="stroke: #A80036; stroke-width: 3.125;" x1="1922.9167" x2="2254.1667" y1="550" y2="550"/><!--MD5=[8f49d68d403fa04afc8cb4fb3426bc06]
class BenefitClassificationContext--><rect fill="#FEFECE" filter="url(#fe7a0dwftpig6)" height="100" id="BenefitClassificationContext" style="stroke: #A80036; stroke-width: 3.125;" width="385.4167" x="12.5" y="466.6667"/><ellipse cx="43.75" cy="500" fill="#ADD1B2" rx="22.9167" ry="22.9167" style="stroke: #A80036; stroke-width: 2.0833333333333335;"/><path d="M49.5117,491.4063 Q49.8372,490.9505 50.2279,490.7227 Q50.6185,490.4948 51.0742,490.4948 Q51.8555,490.4948 52.3438,491.0482 Q52.832,491.569 52.832,492.8385 L52.832,495.8659 Q52.832,497.1354 52.3438,497.6888 Q51.8555,498.2422 51.0742,498.2422 Q50.3581,498.2422 49.9349,497.819 Q49.5117,497.4284 49.2839,496.3542 Q49.1862,495.6055 48.7956,495.2148 Q48.112,494.4336 46.8424,493.9779 Q45.5729,493.5221 44.2708,493.5221 Q42.6758,493.5221 41.3411,494.2057 Q40.0391,494.8893 38.9974,496.4518 Q37.9883,498.0143 37.9883,500.1628 L37.9883,502.4414 Q37.9883,505.013 39.8438,506.7383 Q41.6992,508.431 45.0195,508.431 Q46.9727,508.431 48.3398,507.9102 Q49.1536,507.5846 50.0326,506.6732 Q50.5859,506.1198 50.8789,505.957 Q51.2044,505.7943 51.6276,505.7943 Q52.3112,505.7943 52.832,506.3477 Q53.3854,506.8685 53.3854,507.5846 Q53.3854,508.3008 52.6693,509.1471 Q51.6276,510.3516 49.9674,511.0352 Q47.7214,511.9792 45.0195,511.9792 Q41.862,511.9792 39.3555,510.6771 Q37.3047,509.6354 35.8724,507.4219 Q34.4401,505.1758 34.4401,502.5065 L34.4401,500.0977 Q34.4401,497.3307 35.7096,494.9544 Q37.0117,492.5456 39.2904,491.276 Q41.569,489.974 44.1406,489.974 Q45.6706,489.974 47.0052,490.332 Q48.3724,490.6576 49.5117,491.4063 Z "/><text fill="#000000" font-family="sans-serif" font-size="25" lengthAdjust="spacingAndGlyphs" textLength="318.75" x="72.9167" y="510.2295">BenefitClassificationContext</text><line style="stroke: #A80036; stroke-width: 3.125;" x1="14.5833" x2="395.8333" y1="533.3333" y2="533.3333"/><line style="stroke: #A80036; stroke-width: 3.125;" x1="14.5833" x2="395.8333" y1="550" y2="550"/><!--MD5=[bf201a462d409590beca0f6f4ec8aab5]
class ClausesContext--><rect fill="#FEFECE" filter="url(#fe7a0dwftpig6)" height="100" id="ClausesContext" style="stroke: #A80036; stroke-width: 3.125;" width="247.9167" x="470.8333" y="466.6667"/><ellipse cx="502.0833" cy="500" fill="#ADD1B2" rx="22.9167" ry="22.9167" style="stroke: #A80036; stroke-width: 2.0833333333333335;"/><path d="M507.8451,491.4063 Q508.1706,490.9505 508.5612,490.7227 Q508.9518,490.4948 509.4076,490.4948 Q510.1888,490.4948 510.6771,491.0482 Q511.1654,491.569 511.1654,492.8385 L511.1654,495.8659 Q511.1654,497.1354 510.6771,497.6888 Q510.1888,498.2422 509.4076,498.2422 Q508.6914,498.2422 508.2682,497.819 Q507.8451,497.4284 507.6172,496.3542 Q507.5195,495.6055 507.1289,495.2148 Q506.4453,494.4336 505.1758,493.9779 Q503.9063,493.5221 502.6042,493.5221 Q501.0091,493.5221 499.6745,494.2057 Q498.3724,494.8893 497.3307,496.4518 Q496.3216,498.0143 496.3216,500.1628 L496.3216,502.4414 Q496.3216,505.013 498.1771,506.7383 Q500.0326,508.431 503.3529,508.431 Q505.306,508.431 506.6732,507.9102 Q507.487,507.5846 508.3659,506.6732 Q508.9193,506.1198 509.2122,505.957 Q509.5378,505.7943 509.9609,505.7943 Q510.6445,505.7943 511.1654,506.3477 Q511.7188,506.8685 511.7188,507.5846 Q511.7188,508.3008 511.0026,509.1471 Q509.9609,510.3516 508.3008,511.0352 Q506.0547,511.9792 503.3529,511.9792 Q500.1953,511.9792 497.6888,510.6771 Q495.638,509.6354 494.2057,507.4219 Q492.7734,505.1758 492.7734,502.5065 L492.7734,500.0977 Q492.7734,497.3307 494.043,494.9544 Q495.3451,492.5456 497.6237,491.276 Q499.9023,489.974 502.474,489.974 Q504.0039,489.974 505.3385,490.332 Q506.7057,490.6576 507.8451,491.4063 Z "/><text fill="#000000" font-family="sans-serif" font-size="25" lengthAdjust="spacingAndGlyphs" textLength="181.25" x="531.25" y="510.2295">ClausesContext</text><line style="stroke: #A80036; stroke-width: 3.125;" x1="472.9167" x2="716.6667" y1="533.3333" y2="533.3333"/><line style="stroke: #A80036; stroke-width: 3.125;" x1="472.9167" x2="716.6667" y1="550" y2="550"/><!--MD5=[ac3da2440a6b80d2605c9fa9a286522a]
class FundsTariffContext--><rect fill="#FEFECE" filter="url(#fe7a0dwftpig6)" height="100" id="FundsTariffContext" style="stroke: #A80036; stroke-width: 3.125;" width="281.25" x="791.6667" y="466.6667"/><ellipse cx="822.9167" cy="500" fill="#ADD1B2" rx="22.9167" ry="22.9167" style="stroke: #A80036; stroke-width: 2.0833333333333335;"/><path d="M828.6784,491.4063 Q829.0039,490.9505 829.3945,490.7227 Q829.7852,490.4948 830.2409,490.4948 Q831.0221,490.4948 831.5104,491.0482 Q831.9987,491.569 831.9987,492.8385 L831.9987,495.8659 Q831.9987,497.1354 831.5104,497.6888 Q831.0221,498.2422 830.2409,498.2422 Q829.5247,498.2422 829.1016,497.819 Q828.6784,497.4284 828.4505,496.3542 Q828.3529,495.6055 827.9622,495.2148 Q827.2786,494.4336 826.0091,493.9779 Q824.7396,493.5221 823.4375,493.5221 Q821.8424,493.5221 820.5078,494.2057 Q819.2057,494.8893 818.1641,496.4518 Q817.1549,498.0143 817.1549,500.1628 L817.1549,502.4414 Q817.1549,505.013 819.0104,506.7383 Q820.8659,508.431 824.1862,508.431 Q826.1393,508.431 827.5065,507.9102 Q828.3203,507.5846 829.1992,506.6732 Q829.7526,506.1198 830.0456,505.957 Q830.3711,505.7943 830.7943,505.7943 Q831.4779,505.7943 831.9987,506.3477 Q832.5521,506.8685 832.5521,507.5846 Q832.5521,508.3008 831.8359,509.1471 Q830.7943,510.3516 829.1341,511.0352 Q826.888,511.9792 824.1862,511.9792 Q821.0286,511.9792 818.5221,510.6771 Q816.4714,509.6354 815.0391,507.4219 Q813.6068,505.1758 813.6068,502.5065 L813.6068,500.0977 Q813.6068,497.3307 814.8763,494.9544 Q816.1784,492.5456 818.457,491.276 Q820.7357,489.974 823.3073,489.974 Q824.8372,489.974 826.1719,490.332 Q827.5391,490.6576 828.6784,491.4063 Z "/><text fill="#000000" font-family="sans-serif" font-size="25" lengthAdjust="spacingAndGlyphs" textLength="214.5833" x="852.0833" y="510.2295">FundsTariffContext</text><line style="stroke: #A80036; stroke-width: 3.125;" x1="793.75" x2="1070.8333" y1="533.3333" y2="533.3333"/><line style="stroke: #A80036; stroke-width: 3.125;" x1="793.75" x2="1070.8333" y1="550" y2="550"/><!--MD5=[72cff8bcf68a8443106ac15aa9195805]
class AddCostSpecContext--><rect fill="#FEFECE" filter="url(#fe7a0dwftpig6)" height="100" id="AddCostSpecContext" style="stroke: #A80036; stroke-width: 3.125;" width="310.4167" x="1145.8333" y="466.6667"/><ellipse cx="1177.0833" cy="500" fill="#ADD1B2" rx="22.9167" ry="22.9167" style="stroke: #A80036; stroke-width: 2.0833333333333335;"/><path d="M1182.8451,491.4063 Q1183.1706,490.9505 1183.5612,490.7227 Q1183.9518,490.4948 1184.4076,490.4948 Q1185.1888,490.4948 1185.6771,491.0482 Q1186.1654,491.569 1186.1654,492.8385 L1186.1654,495.8659 Q1186.1654,497.1354 1185.6771,497.6888 Q1185.1888,498.2422 1184.4076,498.2422 Q1183.6914,498.2422 1183.2682,497.819 Q1182.8451,497.4284 1182.6172,496.3542 Q1182.5195,495.6055 1182.1289,495.2148 Q1181.4453,494.4336 1180.1758,493.9779 Q1178.9063,493.5221 1177.6042,493.5221 Q1176.0091,493.5221 1174.6745,494.2057 Q1173.3724,494.8893 1172.3307,496.4518 Q1171.3216,498.0143 1171.3216,500.1628 L1171.3216,502.4414 Q1171.3216,505.013 1173.1771,506.7383 Q1175.0326,508.431 1178.3529,508.431 Q1180.306,508.431 1181.6732,507.9102 Q1182.487,507.5846 1183.3659,506.6732 Q1183.9193,506.1198 1184.2122,505.957 Q1184.5378,505.7943 1184.9609,505.7943 Q1185.6445,505.7943 1186.1654,506.3477 Q1186.7188,506.8685 1186.7188,507.5846 Q1186.7188,508.3008 1186.0026,509.1471 Q1184.9609,510.3516 1183.3008,511.0352 Q1181.0547,511.9792 1178.3529,511.9792 Q1175.1953,511.9792 1172.6888,510.6771 Q1170.638,509.6354 1169.2057,507.4219 Q1167.7734,505.1758 1167.7734,502.5065 L1167.7734,500.0977 Q1167.7734,497.3307 1169.043,494.9544 Q1170.3451,492.5456 1172.6237,491.276 Q1174.9023,489.974 1177.474,489.974 Q1179.0039,489.974 1180.3385,490.332 Q1181.7057,490.6576 1182.8451,491.4063 Z "/><text fill="#000000" font-family="sans-serif" font-size="25" lengthAdjust="spacingAndGlyphs" textLength="243.75" x="1206.25" y="510.2295">AddCostSpecContext</text><line style="stroke: #A80036; stroke-width: 3.125;" x1="1147.9167" x2="1454.1667" y1="533.3333" y2="533.3333"/><line style="stroke: #A80036; stroke-width: 3.125;" x1="1147.9167" x2="1454.1667" y1="550" y2="550"/><!--MD5=[ce75faa2bcd6699c75799e3083caa648]
class CoverageItemContext--><rect fill="#FEFECE" filter="url(#fe7a0dwftpig6)" height="100" id="CoverageItemContext" style="stroke: #A80036; stroke-width: 3.125;" width="314.5833" x="1533.3333" y="466.6667"/><ellipse cx="1564.5833" cy="500" fill="#ADD1B2" rx="22.9167" ry="22.9167" style="stroke: #A80036; stroke-width: 2.0833333333333335;"/><path d="M1570.3451,491.4063 Q1570.6706,490.9505 1571.0612,490.7227 Q1571.4518,490.4948 1571.9076,490.4948 Q1572.6888,490.4948 1573.1771,491.0482 Q1573.6654,491.569 1573.6654,492.8385 L1573.6654,495.8659 Q1573.6654,497.1354 1573.1771,497.6888 Q1572.6888,498.2422 1571.9076,498.2422 Q1571.1914,498.2422 1570.7682,497.819 Q1570.3451,497.4284 1570.1172,496.3542 Q1570.0195,495.6055 1569.6289,495.2148 Q1568.9453,494.4336 1567.6758,493.9779 Q1566.4063,493.5221 1565.1042,493.5221 Q1563.5091,493.5221 1562.1745,494.2057 Q1560.8724,494.8893 1559.8307,496.4518 Q1558.8216,498.0143 1558.8216,500.1628 L1558.8216,502.4414 Q1558.8216,505.013 1560.6771,506.7383 Q1562.5326,508.431 1565.8529,508.431 Q1567.806,508.431 1569.1732,507.9102 Q1569.987,507.5846 1570.8659,506.6732 Q1571.4193,506.1198 1571.7122,505.957 Q1572.0378,505.7943 1572.4609,505.7943 Q1573.1445,505.7943 1573.6654,506.3477 Q1574.2188,506.8685 1574.2188,507.5846 Q1574.2188,508.3008 1573.5026,509.1471 Q1572.4609,510.3516 1570.8008,511.0352 Q1568.5547,511.9792 1565.8529,511.9792 Q1562.6953,511.9792 1560.1888,510.6771 Q1558.138,509.6354 1556.7057,507.4219 Q1555.2734,505.1758 1555.2734,502.5065 L1555.2734,500.0977 Q1555.2734,497.3307 1556.543,494.9544 Q1557.8451,492.5456 1560.1237,491.276 Q1562.4023,489.974 1564.974,489.974 Q1566.5039,489.974 1567.8385,490.332 Q1569.2057,490.6576 1570.3451,491.4063 Z "/><text fill="#000000" font-family="sans-serif" font-size="25" lengthAdjust="spacingAndGlyphs" textLength="247.9167" x="1593.75" y="510.2295">CoverageItemContext</text><line style="stroke: #A80036; stroke-width: 3.125;" x1="1535.4167" x2="1845.8333" y1="533.3333" y2="533.3333"/><line style="stroke: #A80036; stroke-width: 3.125;" x1="1535.4167" x2="1845.8333" y1="550" y2="550"/><!--MD5=[2293f40fce6f30638c443fc7640c6b15]
class AddCostSpecDetailContext--><rect fill="#FEFECE" filter="url(#fe7a0dwftpig6)" height="100" id="AddCostSpecDetailContext" style="stroke: #A80036; stroke-width: 3.125;" width="377.0833" x="1112.5" y="691.6667"/><ellipse cx="1143.75" cy="725" fill="#ADD1B2" rx="22.9167" ry="22.9167" style="stroke: #A80036; stroke-width: 2.0833333333333335;"/><path d="M1149.5117,716.4063 Q1149.8372,715.9505 1150.2279,715.7227 Q1150.6185,715.4948 1151.0742,715.4948 Q1151.8555,715.4948 1152.3438,716.0482 Q1152.832,716.569 1152.832,717.8385 L1152.832,720.8659 Q1152.832,722.1354 1152.3438,722.6888 Q1151.8555,723.2422 1151.0742,723.2422 Q1150.3581,723.2422 1149.9349,722.819 Q1149.5117,722.4284 1149.2839,721.3542 Q1149.1862,720.6055 1148.7956,720.2148 Q1148.112,719.4336 1146.8424,718.9779 Q1145.5729,718.5221 1144.2708,718.5221 Q1142.6758,718.5221 1141.3411,719.2057 Q1140.0391,719.8893 1138.9974,721.4518 Q1137.9883,723.0143 1137.9883,725.1628 L1137.9883,727.4414 Q1137.9883,730.013 1139.8438,731.7383 Q1141.6992,733.431 1145.0195,733.431 Q1146.9727,733.431 1148.3398,732.9102 Q1149.1536,732.5846 1150.0326,731.6732 Q1150.5859,731.1198 1150.8789,730.957 Q1151.2044,730.7943 1151.6276,730.7943 Q1152.3112,730.7943 1152.832,731.3477 Q1153.3854,731.8685 1153.3854,732.5846 Q1153.3854,733.3008 1152.6693,734.1471 Q1151.6276,735.3516 1149.9674,736.0352 Q1147.7214,736.9792 1145.0195,736.9792 Q1141.862,736.9792 1139.3555,735.6771 Q1137.3047,734.6354 1135.8724,732.4219 Q1134.4401,730.1758 1134.4401,727.5065 L1134.4401,725.0977 Q1134.4401,722.3307 1135.7096,719.9544 Q1137.0117,717.5456 1139.2904,716.276 Q1141.569,714.974 1144.1406,714.974 Q1145.6706,714.974 1147.0052,715.332 Q1148.3724,715.6576 1149.5117,716.4063 Z "/><text fill="#000000" font-family="sans-serif" font-size="25" lengthAdjust="spacingAndGlyphs" textLength="310.4167" x="1172.9167" y="735.2295">AddCostSpecDetailContext</text><line style="stroke: #A80036; stroke-width: 3.125;" x1="1114.5833" x2="1487.5" y1="758.3333" y2="758.3333"/><line style="stroke: #A80036; stroke-width: 3.125;" x1="1114.5833" x2="1487.5" y1="775" y2="775"/><!--MD5=[7a882519649b516e4c1eb2c1218b389d]
class FundValueCtx--><rect fill="#FEFECE" filter="url(#fe7a0dwftpig6)" height="100" id="FundValueCtx" style="stroke: #A80036; stroke-width: 3.125;" width="229.1667" x="809.375" y="691.6667"/><ellipse cx="840.625" cy="725" fill="#ADD1B2" rx="22.9167" ry="22.9167" style="stroke: #A80036; stroke-width: 2.0833333333333335;"/><path d="M846.3867,716.4063 Q846.7122,715.9505 847.1029,715.7227 Q847.4935,715.4948 847.9492,715.4948 Q848.7305,715.4948 849.2188,716.0482 Q849.707,716.569 849.707,717.8385 L849.707,720.8659 Q849.707,722.1354 849.2188,722.6888 Q848.7305,723.2422 847.9492,723.2422 Q847.2331,723.2422 846.8099,722.819 Q846.3867,722.4284 846.1589,721.3542 Q846.0612,720.6055 845.6706,720.2148 Q844.987,719.4336 843.7174,718.9779 Q842.4479,718.5221 841.1458,718.5221 Q839.5508,718.5221 838.2161,719.2057 Q836.9141,719.8893 835.8724,721.4518 Q834.8633,723.0143 834.8633,725.1628 L834.8633,727.4414 Q834.8633,730.013 836.7188,731.7383 Q838.5742,733.431 841.8945,733.431 Q843.8477,733.431 845.2148,732.9102 Q846.0286,732.5846 846.9076,731.6732 Q847.4609,731.1198 847.7539,730.957 Q848.0794,730.7943 848.5026,730.7943 Q849.1862,730.7943 849.707,731.3477 Q850.2604,731.8685 850.2604,732.5846 Q850.2604,733.3008 849.5443,734.1471 Q848.5026,735.3516 846.8424,736.0352 Q844.5964,736.9792 841.8945,736.9792 Q838.737,736.9792 836.2305,735.6771 Q834.1797,734.6354 832.7474,732.4219 Q831.3151,730.1758 831.3151,727.5065 L831.3151,725.0977 Q831.3151,722.3307 832.5846,719.9544 Q833.8867,717.5456 836.1654,716.276 Q838.444,714.974 841.0156,714.974 Q842.5456,714.974 843.8802,715.332 Q845.2474,715.6576 846.3867,716.4063 Z "/><text fill="#000000" font-family="sans-serif" font-size="25" lengthAdjust="spacingAndGlyphs" textLength="162.5" x="869.7917" y="735.2295">FundValueCtx</text><line style="stroke: #A80036; stroke-width: 3.125;" x1="811.4583" x2="1036.4583" y1="758.3333" y2="758.3333"/><line style="stroke: #A80036; stroke-width: 3.125;" x1="811.4583" x2="1036.4583" y1="775" y2="775"/><!--MD5=[f8f569d2291e0f5620543605e0f56984]
class LifeCostLayerCtx--><rect fill="#FEFECE" filter="url(#fe7a0dwftpig6)" height="100" id="LifeCostLayerCtx" style="stroke: #A80036; stroke-width: 3.125;" width="262.5" x="1563.5417" y="691.6667"/><ellipse cx="1594.7917" cy="725" fill="#ADD1B2" rx="22.9167" ry="22.9167" style="stroke: #A80036; stroke-width: 2.0833333333333335;"/><path d="M1600.5534,716.4063 Q1600.8789,715.9505 1601.2695,715.7227 Q1601.6602,715.4948 1602.1159,715.4948 Q1602.8971,715.4948 1603.3854,716.0482 Q1603.8737,716.569 1603.8737,717.8385 L1603.8737,720.8659 Q1603.8737,722.1354 1603.3854,722.6888 Q1602.8971,723.2422 1602.1159,723.2422 Q1601.3997,723.2422 1600.9766,722.819 Q1600.5534,722.4284 1600.3255,721.3542 Q1600.2279,720.6055 1599.8372,720.2148 Q1599.1536,719.4336 1597.8841,718.9779 Q1596.6146,718.5221 1595.3125,718.5221 Q1593.7174,718.5221 1592.3828,719.2057 Q1591.0807,719.8893 1590.0391,721.4518 Q1589.0299,723.0143 1589.0299,725.1628 L1589.0299,727.4414 Q1589.0299,730.013 1590.8854,731.7383 Q1592.7409,733.431 1596.0612,733.431 Q1598.0143,733.431 1599.3815,732.9102 Q1600.1953,732.5846 1601.0742,731.6732 Q1601.6276,731.1198 1601.9206,730.957 Q1602.2461,730.7943 1602.6693,730.7943 Q1603.3529,730.7943 1603.8737,731.3477 Q1604.4271,731.8685 1604.4271,732.5846 Q1604.4271,733.3008 1603.7109,734.1471 Q1602.6693,735.3516 1601.0091,736.0352 Q1598.763,736.9792 1596.0612,736.9792 Q1592.9036,736.9792 1590.3971,735.6771 Q1588.3464,734.6354 1586.9141,732.4219 Q1585.4818,730.1758 1585.4818,727.5065 L1585.4818,725.0977 Q1585.4818,722.3307 1586.7513,719.9544 Q1588.0534,717.5456 1590.332,716.276 Q1592.6107,714.974 1595.1823,714.974 Q1596.7122,714.974 1598.0469,715.332 Q1599.4141,715.6576 1600.5534,716.4063 Z "/><text fill="#000000" font-family="sans-serif" font-size="25" lengthAdjust="spacingAndGlyphs" textLength="195.8333" x="1623.9583" y="735.2295">LifeCostLayerCtx</text><line style="stroke: #A80036; stroke-width: 3.125;" x1="1565.625" x2="1823.9583" y1="758.3333" y2="758.3333"/><line style="stroke: #A80036; stroke-width: 3.125;" x1="1565.625" x2="1823.9583" y1="775" y2="775"/><!--MD5=[cb102b2eea414998d3c90c8deac2a090]
reverse link ContractContext to CoverageContext--><path d="M932.2917,144.4542 C932.2917,176.4188 932.2917,212.7042 932.2917,240.9958 " fill="none" id="ContractContext&lt;-CoverageContext" style="stroke: #A80036; stroke-width: 2.0833333333333335;"/><polygon fill="#FFFFFF" points="932.2917,116.6667,923.9583,129.1667,932.2917,141.6667,940.625,129.1667,932.2917,116.6667" style="stroke: #A80036; stroke-width: 2.0833333333333335;"/><!--MD5=[446ae98955f09a6a1998b043078b3d7c]
reverse link TariffCtxParent to InsuredPerson_Context--><path d="M1950.9646,362.675 C1981.3229,396.1958 2017.0854,435.6833 2044.5396,465.9958 " fill="none" id="TariffCtxParent&lt;-InsuredPerson_Context" style="stroke: #A80036; stroke-width: 2.0833333333333335;"/><polygon fill="#FFFFFF" points="1931.9396,341.6667,1934.1531,356.5258,1948.7205,360.1977,1946.5071,345.3385,1931.9396,341.6667" style="stroke: #A80036; stroke-width: 2.0833333333333335;"/><!--MD5=[a28662fc6d4b5b158f60b4ff711050fd]
reverse link CoverageContext to BenefitClassificationContext--><path d="M772.9104,342.1583 C651.2104,379.1208 484.3417,429.8042 363.0313,466.6479 " fill="none" id="CoverageContext&lt;-BenefitClassificationContext" style="stroke: #A80036; stroke-width: 2.0833333333333335;"/><polygon fill="#FFFFFF" points="798.9333,334.2542,784.5514,329.9119,775.0117,341.5175,789.3936,345.8597,798.9333,334.2542" style="stroke: #A80036; stroke-width: 2.0833333333333335;"/><!--MD5=[efb6e2d3d182ea03469172889b0b4b48]
reverse link CoverageContext to ClausesContext--><path d="M836.275,356.5771 C782.975,391.4521 717.7021,434.1604 668.4625,466.3792 " fill="none" id="CoverageContext&lt;-ClausesContext" style="stroke: #A80036; stroke-width: 2.0833333333333335;"/><polygon fill="#FFFFFF" points="859.0583,341.6667,844.0358,341.5366,838.1378,355.3536,853.1604,355.4836,859.0583,341.6667" style="stroke: #A80036; stroke-width: 2.0833333333333335;"/><!--MD5=[9fe33921f473a3e47049701916159e8a]
reverse link CoverageContext to FundsTariffContext--><path d="M932.2917,369.4542 C932.2917,401.4188 932.2917,437.7042 932.2917,465.9958 " fill="none" id="CoverageContext&lt;-FundsTariffContext" style="stroke: #A80036; stroke-width: 2.0833333333333335;"/><polygon fill="#FFFFFF" points="932.2917,341.6667,923.9583,354.1667,932.2917,366.6667,940.625,354.1667,932.2917,341.6667" style="stroke: #A80036; stroke-width: 2.0833333333333335;"/><!--MD5=[12dc2223bd181cba488cffca0b5d8117]
reverse link CoverageContext to AddCostSpecContext--><path d="M1035.6354,355.6396 C1094.1542,390.6854 1166.2667,433.8708 1220.5479,466.3792 " fill="none" id="CoverageContext&lt;-AddCostSpecContext" style="stroke: #A80036; stroke-width: 2.0833333333333335;"/><polygon fill="#FFFFFF" points="1012.3042,341.6667,1018.7471,355.2381,1033.7526,354.5105,1027.3097,340.9391,1012.3042,341.6667" style="stroke: #A80036; stroke-width: 2.0833333333333335;"/><!--MD5=[a45c1d33161c5cfbda1eb6a6ba2111c0]
reverse link CoverageContext to CoverageItemContext--><path d="M1092.175,340.3083 C1221.9979,378.1146 1404.0792,431.1375 1533.2271,468.7479 " fill="none" id="CoverageContext&lt;-CoverageItemContext" style="stroke: #A80036; stroke-width: 2.0833333333333335;"/><polygon fill="#FFFFFF" points="1066.1208,332.7229,1075.7915,344.2196,1090.1233,339.7146,1080.4526,328.2179,1066.1208,332.7229" style="stroke: #A80036; stroke-width: 2.0833333333333335;"/><!--MD5=[49603df429bcaef9fe78b72cb41dd9ab]
reverse link AddCostSpecContext to AddCostSpecDetailContext--><path d="M1301.0417,594.4548 C1301.0417,626.4194 1301.0417,662.7042 1301.0417,690.9967 " fill="none" id="AddCostSpecContext&lt;-AddCostSpecDetailContext" style="stroke: #A80036; stroke-width: 2.0833333333333335;"/><polygon fill="#FFFFFF" points="1301.0417,566.6667,1292.7083,579.1667,1301.0417,591.6667,1309.375,579.1667,1301.0417,566.6667" style="stroke: #A80036; stroke-width: 2.0833333333333335;"/><!--MD5=[8fae05b8ece2fdcb5291b99a04e4c252]
reverse link FundsTariffContext to FundValueCtx--><path d="M929.4354,594.4548 C928.2292,626.4194 926.8604,662.7042 925.7917,690.9967 " fill="none" id="FundsTariffContext&lt;-FundValueCtx" style="stroke: #A80036; stroke-width: 2.0833333333333335;"/><polygon fill="#FFFFFF" points="930.4833,566.6667,921.6845,578.8435,929.5405,591.6489,938.3393,579.472,930.4833,566.6667" style="stroke: #A80036; stroke-width: 2.0833333333333335;"/><!--MD5=[f6320cf02dbf916236982730f848a5fb]
reverse link CoverageItemContext to LifeCostLayerCtx--><path d="M1692.0542,594.4548 C1692.6563,626.4194 1693.3417,662.7042 1693.875,690.9967 " fill="none" id="CoverageItemContext&lt;-LifeCostLayerCtx" style="stroke: #A80036; stroke-width: 2.0833333333333335;"/><polygon fill="#FFFFFF" points="1691.5292,566.6667,1683.4333,579.3218,1692.0012,591.6622,1700.097,579.0071,1691.5292,566.6667" style="stroke: #A80036; stroke-width: 2.0833333333333335;"/><!--MD5=[c0ccaf9fe79eba0362b41834bd1b39d1]
reverse link TariffCtxParent to CoverageItemContext--><path d="M1817.1667,373.3896 C1789.4021,404.3688 1758.4917,438.8583 1734.1688,465.9958 " fill="none" id="TariffCtxParent&lt;-CoverageItemContext" style="stroke: #A80036; stroke-width: 2.0833333333333335;"/><polygon fill="none" points="1806.9271,362.9625,1845.5958,341.6667,1828.6479,382.4292,1806.9271,362.9625" style="stroke: #A80036; stroke-width: 2.0833333333333335;"/><!--MD5=[e2e5a1221b9428d369e8ee79f4f18bdb]
@startuml
skinparam dpi 200


ContractContext o- - CoverageContext
TariffCtxParent o- - InsuredPerson_Context
CoverageContext o- - BenefitClassificationContext
CoverageContext o- - ClausesContext
CoverageContext o- - FundsTariffContext
CoverageContext o- - AddCostSpecContext
CoverageContext o- - CoverageItemContext
AddCostSpecContext o- - AddCostSpecDetailContext
FundsTariffContext o- - FundValueCtx
CoverageItemContext o- - LifeCostLayerCtx
TariffCtxParent <|- - CoverageItemContext

@enduml

PlantUML version 1.2020.09(Sun May 10 12:51:06 CEST 2020)
(GPL source distribution)
Java Runtime: OpenJDK Runtime Environment
JVM: OpenJDK 64-Bit Server VM
Java Version: 12.0.1+12
Operating System: Windows 10
Default Encoding: UTF-8
Language: en
Country: US
--></g></svg>