<?xml version="1.0" encoding="UTF-8" standalone="no"?><svg xmlns="http://www.w3.org/2000/svg" xmlns:xlink="http://www.w3.org/1999/xlink" contentScriptType="application/ecmascript" contentStyleType="text/css" height="364.5833px" preserveAspectRatio="none" style="width:1029px;height:364px;" version="1.1" viewBox="0 0 1029 364" width="1029.1667px" zoomAndPan="magnify"><defs><filter height="300%" id="foqg6wjtcz6zc" width="300%" x="-1" y="-1"><feGaussianBlur result="blurOut" stdDeviation="4.166666666666667"/><feColorMatrix in="blurOut" result="blurOut2" type="matrix" values="0 0 0 0 0 0 0 0 0 0 0 0 0 0 0 0 0 0 .4 0"/><feOffset dx="8.333333333333334" dy="8.333333333333334" in="blurOut2" result="blurOut3"/><feBlend in="SourceGraphic" in2="blurOut3" mode="normal"/></filter></defs><g><!--MD5=[bc61d00901fb7d0ce50b37667493e4ab]
class RootObjectContext--><rect fill="#00FFFF" filter="url(#foqg6wjtcz6zc)" height="100" id="RootObjectContext" style="stroke: #A80036; stroke-width: 3.125;" width="281.25" x="12.5" y="16.6667"/><ellipse cx="43.75" cy="50" fill="#ADD1B2" rx="22.9167" ry="22.9167" style="stroke: #A80036; stroke-width: 2.0833333333333335;"/><path d="M49.5117,41.4063 Q49.8372,40.9505 50.2279,40.7227 Q50.6185,40.4948 51.0742,40.4948 Q51.8555,40.4948 52.3438,41.0482 Q52.832,41.569 52.832,42.8385 L52.832,45.8659 Q52.832,47.1354 52.3438,47.6888 Q51.8555,48.2422 51.0742,48.2422 Q50.3581,48.2422 49.9349,47.819 Q49.5117,47.4284 49.2839,46.3542 Q49.1862,45.6055 48.7956,45.2148 Q48.112,44.4336 46.8424,43.9779 Q45.5729,43.5221 44.2708,43.5221 Q42.6758,43.5221 41.3411,44.2057 Q40.0391,44.8893 38.9974,46.4518 Q37.9883,48.0143 37.9883,50.1628 L37.9883,52.4414 Q37.9883,55.013 39.8438,56.7383 Q41.6992,58.431 45.0195,58.431 Q46.9727,58.431 48.3398,57.9102 Q49.1536,57.5846 50.0326,56.6732 Q50.5859,56.1198 50.8789,55.957 Q51.2044,55.7943 51.6276,55.7943 Q52.3112,55.7943 52.832,56.3477 Q53.3854,56.8685 53.3854,57.5846 Q53.3854,58.3008 52.6693,59.1471 Q51.6276,60.3516 49.9674,61.0352 Q47.7214,61.9792 45.0195,61.9792 Q41.862,61.9792 39.3555,60.6771 Q37.3047,59.6354 35.8724,57.4219 Q34.4401,55.1758 34.4401,52.5065 L34.4401,50.0977 Q34.4401,47.3307 35.7096,44.9544 Q37.0117,42.5456 39.2904,41.276 Q41.569,39.974 44.1406,39.974 Q45.6706,39.974 47.0052,40.332 Q48.3724,40.6576 49.5117,41.4063 Z "/><text fill="#000000" font-family="sans-serif" font-size="25" lengthAdjust="spacingAndGlyphs" textLength="214.5833" x="72.9167" y="60.2295">RootObjectContext</text><line style="stroke: #A80036; stroke-width: 3.125;" x1="14.5833" x2="291.6667" y1="83.3333" y2="83.3333"/><line style="stroke: #A80036; stroke-width: 3.125;" x1="14.5833" x2="291.6667" y1="100" y2="100"/><!--MD5=[711b15124508a1e9e4c49f6f7dbcd77f]
class BaseContext--><rect fill="#FEFECE" filter="url(#foqg6wjtcz6zc)" height="100" id="BaseContext" style="stroke: #A80036; stroke-width: 3.125;" width="212.5" x="378.125" y="16.6667"/><ellipse cx="409.375" cy="50" fill="#ADD1B2" rx="22.9167" ry="22.9167" style="stroke: #A80036; stroke-width: 2.0833333333333335;"/><path d="M415.1367,41.4063 Q415.4622,40.9505 415.8529,40.7227 Q416.2435,40.4948 416.6992,40.4948 Q417.4805,40.4948 417.9688,41.0482 Q418.457,41.569 418.457,42.8385 L418.457,45.8659 Q418.457,47.1354 417.9688,47.6888 Q417.4805,48.2422 416.6992,48.2422 Q415.9831,48.2422 415.5599,47.819 Q415.1367,47.4284 414.9089,46.3542 Q414.8112,45.6055 414.4206,45.2148 Q413.737,44.4336 412.4674,43.9779 Q411.1979,43.5221 409.8958,43.5221 Q408.3008,43.5221 406.9661,44.2057 Q405.6641,44.8893 404.6224,46.4518 Q403.6133,48.0143 403.6133,50.1628 L403.6133,52.4414 Q403.6133,55.013 405.4688,56.7383 Q407.3242,58.431 410.6445,58.431 Q412.5977,58.431 413.9648,57.9102 Q414.7786,57.5846 415.6576,56.6732 Q416.2109,56.1198 416.5039,55.957 Q416.8294,55.7943 417.2526,55.7943 Q417.9362,55.7943 418.457,56.3477 Q419.0104,56.8685 419.0104,57.5846 Q419.0104,58.3008 418.2943,59.1471 Q417.2526,60.3516 415.5924,61.0352 Q413.3464,61.9792 410.6445,61.9792 Q407.487,61.9792 404.9805,60.6771 Q402.9297,59.6354 401.4974,57.4219 Q400.0651,55.1758 400.0651,52.5065 L400.0651,50.0977 Q400.0651,47.3307 401.3346,44.9544 Q402.6367,42.5456 404.9154,41.276 Q407.194,39.974 409.7656,39.974 Q411.2956,39.974 412.6302,40.332 Q413.9974,40.6576 415.1367,41.4063 Z "/><text fill="#000000" font-family="sans-serif" font-size="25" lengthAdjust="spacingAndGlyphs" textLength="145.8333" x="438.5417" y="60.2295">BaseContext</text><line style="stroke: #A80036; stroke-width: 3.125;" x1="380.2083" x2="588.5417" y1="83.3333" y2="83.3333"/><line style="stroke: #A80036; stroke-width: 3.125;" x1="380.2083" x2="588.5417" y1="100" y2="100"/><!--MD5=[4e173958596030ebff1133a6f213ded7]
class ContractContext--><rect fill="#FEFECE" filter="url(#foqg6wjtcz6zc)" height="100" id="ContractContext" style="stroke: #A80036; stroke-width: 3.125;" width="250" x="28.125" y="241.6667"/><ellipse cx="59.375" cy="275" fill="#ADD1B2" rx="22.9167" ry="22.9167" style="stroke: #A80036; stroke-width: 2.0833333333333335;"/><path d="M65.1367,266.4063 Q65.4622,265.9505 65.8529,265.7227 Q66.2435,265.4948 66.6992,265.4948 Q67.4805,265.4948 67.9688,266.0482 Q68.457,266.569 68.457,267.8385 L68.457,270.8659 Q68.457,272.1354 67.9688,272.6888 Q67.4805,273.2422 66.6992,273.2422 Q65.9831,273.2422 65.5599,272.819 Q65.1367,272.4284 64.9089,271.3542 Q64.8112,270.6055 64.4206,270.2148 Q63.737,269.4336 62.4674,268.9779 Q61.1979,268.5221 59.8958,268.5221 Q58.3008,268.5221 56.9661,269.2057 Q55.6641,269.8893 54.6224,271.4518 Q53.6133,273.0143 53.6133,275.1628 L53.6133,277.4414 Q53.6133,280.013 55.4688,281.7383 Q57.3242,283.431 60.6445,283.431 Q62.5977,283.431 63.9648,282.9102 Q64.7786,282.5846 65.6576,281.6732 Q66.2109,281.1198 66.5039,280.957 Q66.8294,280.7943 67.2526,280.7943 Q67.9362,280.7943 68.457,281.3477 Q69.0104,281.8685 69.0104,282.5846 Q69.0104,283.3008 68.2943,284.1471 Q67.2526,285.3516 65.5924,286.0352 Q63.3464,286.9792 60.6445,286.9792 Q57.487,286.9792 54.9805,285.6771 Q52.9297,284.6354 51.4974,282.4219 Q50.0651,280.1758 50.0651,277.5065 L50.0651,275.0977 Q50.0651,272.3307 51.3346,269.9544 Q52.6367,267.5456 54.9154,266.276 Q57.194,264.974 59.7656,264.974 Q61.2956,264.974 62.6302,265.332 Q63.9974,265.6576 65.1367,266.4063 Z "/><text fill="#000000" font-family="sans-serif" font-size="25" lengthAdjust="spacingAndGlyphs" textLength="183.3333" x="88.5417" y="285.2295">ContractContext</text><line style="stroke: #A80036; stroke-width: 3.125;" x1="30.2083" x2="276.0417" y1="308.3333" y2="308.3333"/><line style="stroke: #A80036; stroke-width: 3.125;" x1="30.2083" x2="276.0417" y1="325" y2="325"/><!--MD5=[6260a2793f5e17c630e04cac185cdb2d]
class CoverageContext--><rect fill="#FEFECE" filter="url(#foqg6wjtcz6zc)" height="100" id="CoverageContext" style="stroke: #A80036; stroke-width: 3.125;" width="266.6667" x="351.0417" y="241.6667"/><ellipse cx="382.2917" cy="275" fill="#ADD1B2" rx="22.9167" ry="22.9167" style="stroke: #A80036; stroke-width: 2.0833333333333335;"/><path d="M388.0534,266.4063 Q388.3789,265.9505 388.7695,265.7227 Q389.1602,265.4948 389.6159,265.4948 Q390.3971,265.4948 390.8854,266.0482 Q391.3737,266.569 391.3737,267.8385 L391.3737,270.8659 Q391.3737,272.1354 390.8854,272.6888 Q390.3971,273.2422 389.6159,273.2422 Q388.8997,273.2422 388.4766,272.819 Q388.0534,272.4284 387.8255,271.3542 Q387.7279,270.6055 387.3372,270.2148 Q386.6536,269.4336 385.3841,268.9779 Q384.1146,268.5221 382.8125,268.5221 Q381.2174,268.5221 379.8828,269.2057 Q378.5807,269.8893 377.5391,271.4518 Q376.5299,273.0143 376.5299,275.1628 L376.5299,277.4414 Q376.5299,280.013 378.3854,281.7383 Q380.2409,283.431 383.5612,283.431 Q385.5143,283.431 386.8815,282.9102 Q387.6953,282.5846 388.5742,281.6732 Q389.1276,281.1198 389.4206,280.957 Q389.7461,280.7943 390.1693,280.7943 Q390.8529,280.7943 391.3737,281.3477 Q391.9271,281.8685 391.9271,282.5846 Q391.9271,283.3008 391.2109,284.1471 Q390.1693,285.3516 388.5091,286.0352 Q386.263,286.9792 383.5612,286.9792 Q380.4036,286.9792 377.8971,285.6771 Q375.8464,284.6354 374.4141,282.4219 Q372.9818,280.1758 372.9818,277.5065 L372.9818,275.0977 Q372.9818,272.3307 374.2513,269.9544 Q375.5534,267.5456 377.832,266.276 Q380.1107,264.974 382.6823,264.974 Q384.2122,264.974 385.5469,265.332 Q386.9141,265.6576 388.0534,266.4063 Z "/><text fill="#000000" font-family="sans-serif" font-size="25" lengthAdjust="spacingAndGlyphs" textLength="200" x="411.4583" y="285.2295">CoverageContext</text><line style="stroke: #A80036; stroke-width: 3.125;" x1="353.125" x2="615.625" y1="308.3333" y2="308.3333"/><line style="stroke: #A80036; stroke-width: 3.125;" x1="353.125" x2="615.625" y1="325" y2="325"/><!--MD5=[ce75faa2bcd6699c75799e3083caa648]
class CoverageItemContext--><rect fill="#FEFECE" filter="url(#foqg6wjtcz6zc)" height="100" id="CoverageItemContext" style="stroke: #A80036; stroke-width: 3.125;" width="314.5833" x="691.6667" y="241.6667"/><ellipse cx="722.9167" cy="275" fill="#ADD1B2" rx="22.9167" ry="22.9167" style="stroke: #A80036; stroke-width: 2.0833333333333335;"/><path d="M728.6784,266.4063 Q729.0039,265.9505 729.3945,265.7227 Q729.7852,265.4948 730.2409,265.4948 Q731.0221,265.4948 731.5104,266.0482 Q731.9987,266.569 731.9987,267.8385 L731.9987,270.8659 Q731.9987,272.1354 731.5104,272.6888 Q731.0221,273.2422 730.2409,273.2422 Q729.5247,273.2422 729.1016,272.819 Q728.6784,272.4284 728.4505,271.3542 Q728.3529,270.6055 727.9622,270.2148 Q727.2786,269.4336 726.0091,268.9779 Q724.7396,268.5221 723.4375,268.5221 Q721.8424,268.5221 720.5078,269.2057 Q719.2057,269.8893 718.1641,271.4518 Q717.1549,273.0143 717.1549,275.1628 L717.1549,277.4414 Q717.1549,280.013 719.0104,281.7383 Q720.8659,283.431 724.1862,283.431 Q726.1393,283.431 727.5065,282.9102 Q728.3203,282.5846 729.1992,281.6732 Q729.7526,281.1198 730.0456,280.957 Q730.3711,280.7943 730.7943,280.7943 Q731.4779,280.7943 731.9987,281.3477 Q732.5521,281.8685 732.5521,282.5846 Q732.5521,283.3008 731.8359,284.1471 Q730.7943,285.3516 729.1341,286.0352 Q726.888,286.9792 724.1862,286.9792 Q721.0286,286.9792 718.5221,285.6771 Q716.4714,284.6354 715.0391,282.4219 Q713.6068,280.1758 713.6068,277.5065 L713.6068,275.0977 Q713.6068,272.3307 714.8763,269.9544 Q716.1784,267.5456 718.457,266.276 Q720.7357,264.974 723.3073,264.974 Q724.8372,264.974 726.1719,265.332 Q727.5391,265.6576 728.6784,266.4063 Z "/><text fill="#000000" font-family="sans-serif" font-size="25" lengthAdjust="spacingAndGlyphs" textLength="247.9167" x="752.0833" y="285.2295">CoverageItemContext</text><line style="stroke: #A80036; stroke-width: 3.125;" x1="693.75" x2="1004.1667" y1="308.3333" y2="308.3333"/><line style="stroke: #A80036; stroke-width: 3.125;" x1="693.75" x2="1004.1667" y1="325" y2="325"/><!--MD5=[dd10345aa8da186879d396df4fe2a66f]
reverse link BaseContext to ContractContext--><path d="M377.2521,140.165 C327.5833,173.2779 269.8583,211.7606 225.4313,241.3785 " fill="none" id="BaseContext&lt;-ContractContext" style="stroke: #A80036; stroke-width: 2.0833333333333335;"/><polygon fill="none" points="369.7396,127.6458,412.4979,116.6667,385.9188,151.9142,369.7396,127.6458" style="stroke: #A80036; stroke-width: 2.0833333333333335;"/><!--MD5=[3f6e2db4b885572f87d294632d012f11]
reverse link RootObjectContext to ContractContext--><path d="M153.125,158.3825 C153.125,186.6233 153.125,216.746 153.125,240.9967 " fill="none" id="RootObjectContext&lt;-ContractContext" style="stroke: #A80036; stroke-width: 2.0833333333333335;"/><polygon fill="none" points="138.5419,158.3344,153.125,116.6667,167.7085,158.3342,138.5419,158.3344" style="stroke: #A80036; stroke-width: 2.0833333333333335;"/><!--MD5=[9fbbfd05c0a663c8e0bba0bcbf8f9744]
reverse link BaseContext to CoverageContext--><path d="M484.375,158.3825 C484.375,186.6233 484.375,216.746 484.375,240.9967 " fill="none" id="BaseContext&lt;-CoverageContext" style="stroke: #A80036; stroke-width: 2.0833333333333335;"/><polygon fill="none" points="469.7917,158.3344,484.375,116.6667,498.9583,158.3342,469.7917,158.3344" style="stroke: #A80036; stroke-width: 2.0833333333333335;"/><!--MD5=[fba466a5e1abb78ad4d31932509981fe]
reverse link BaseContext to CoverageItemContext--><path d="M599.8833,138.7148 C655.0813,172.1498 719.7625,211.3273 769.375,241.3785 " fill="none" id="BaseContext&lt;-CoverageItemContext" style="stroke: #A80036; stroke-width: 2.0833333333333335;"/><polygon fill="none" points="591.5667,150.7281,563.4833,116.6667,606.6792,125.7813,591.5667,150.7281" style="stroke: #A80036; stroke-width: 2.0833333333333335;"/><!--MD5=[83927491348dc5812980b58519c7dddb]
@startuml
skinparam dpi 200



class RootObjectContext #aqua

BaseContext <|- - ContractContext
RootObjectContext <|- - ContractContext

BaseContext <|- - CoverageContext
BaseContext <|- - CoverageItemContext


@enduml

PlantUML version 1.2020.09(Sun May 10 12:51:06 CEST 2020)
(GPL source distribution)
Java Runtime: OpenJDK Runtime Environment
JVM: OpenJDK 64-Bit Server VM
Java Version: 12.0.1+12
Operating System: Windows 10
Default Encoding: UTF-8
Language: en
Country: US
--></g></svg>