<?xml version="1.0" encoding="UTF-8" standalone="no"?><svg xmlns="http://www.w3.org/2000/svg" xmlns:xlink="http://www.w3.org/1999/xlink" contentScriptType="application/ecmascript" contentStyleType="text/css" height="391.6667px" preserveAspectRatio="none" style="width:316px;height:391px;" version="1.1" viewBox="0 0 316 391" width="316.6667px" zoomAndPan="magnify"><defs><filter height="300%" id="fzrv5ilviddyw" width="300%" x="-1" y="-1"><feGaussianBlur result="blurOut" stdDeviation="4.166666666666667"/><feColorMatrix in="blurOut" result="blurOut2" type="matrix" values="0 0 0 0 0 0 0 0 0 0 0 0 0 0 0 0 0 0 .4 0"/><feOffset dx="8.333333333333334" dy="8.333333333333334" in="blurOut2" result="blurOut3"/><feBlend in="SourceGraphic" in2="blurOut3" mode="normal"/></filter></defs><g><!--MD5=[afc75c2c1449bd388ec3be15368f6fba]
class ExceptionStore--><rect fill="#00FFFF" filter="url(#fzrv5ilviddyw)" height="100" id="ExceptionStore" style="stroke: #A80036; stroke-width: 3.125;" width="239.5833" x="33.3333" y="16.6667"/><ellipse cx="64.5833" cy="50" fill="#ADD1B2" rx="22.9167" ry="22.9167" style="stroke: #A80036; stroke-width: 2.0833333333333335;"/><path d="M70.3451,41.4063 Q70.6706,40.9505 71.0612,40.7227 Q71.4518,40.4948 71.9076,40.4948 Q72.6888,40.4948 73.1771,41.0482 Q73.6654,41.569 73.6654,42.8385 L73.6654,45.8659 Q73.6654,47.1354 73.1771,47.6888 Q72.6888,48.2422 71.9076,48.2422 Q71.1914,48.2422 70.7682,47.819 Q70.3451,47.4284 70.1172,46.3542 Q70.0195,45.6055 69.6289,45.2148 Q68.9453,44.4336 67.6758,43.9779 Q66.4063,43.5221 65.1042,43.5221 Q63.5091,43.5221 62.1745,44.2057 Q60.8724,44.8893 59.8307,46.4518 Q58.8216,48.0143 58.8216,50.1628 L58.8216,52.4414 Q58.8216,55.013 60.6771,56.7383 Q62.5326,58.431 65.8529,58.431 Q67.806,58.431 69.1732,57.9102 Q69.987,57.5846 70.8659,56.6732 Q71.4193,56.1198 71.7122,55.957 Q72.0378,55.7943 72.4609,55.7943 Q73.1445,55.7943 73.6654,56.3477 Q74.2188,56.8685 74.2188,57.5846 Q74.2188,58.3008 73.5026,59.1471 Q72.4609,60.3516 70.8008,61.0352 Q68.5547,61.9792 65.8529,61.9792 Q62.6953,61.9792 60.1888,60.6771 Q58.138,59.6354 56.7057,57.4219 Q55.2734,55.1758 55.2734,52.5065 L55.2734,50.0977 Q55.2734,47.3307 56.543,44.9544 Q57.8451,42.5456 60.1237,41.276 Q62.4023,39.974 64.974,39.974 Q66.5039,39.974 67.8385,40.332 Q69.2057,40.6576 70.3451,41.4063 Z "/><text fill="#000000" font-family="sans-serif" font-size="25" lengthAdjust="spacingAndGlyphs" textLength="172.9167" x="93.75" y="60.2295">ExceptionStore</text><line style="stroke: #A80036; stroke-width: 3.125;" x1="35.4167" x2="270.8333" y1="83.3333" y2="83.3333"/><line style="stroke: #A80036; stroke-width: 3.125;" x1="35.4167" x2="270.8333" y1="100" y2="100"/><!--MD5=[01cf6f163d2c5563c3b3c1c59cc99202]
class ExceptionStoreLife--><rect fill="#FEFECE" filter="url(#fzrv5ilviddyw)" height="128.8249" id="ExceptionStoreLife" style="stroke: #A80036; stroke-width: 3.125;" width="281.25" x="12.5" y="241.6667"/><ellipse cx="43.75" cy="275" fill="#ADD1B2" rx="22.9167" ry="22.9167" style="stroke: #A80036; stroke-width: 2.0833333333333335;"/><path d="M49.5117,266.4063 Q49.8372,265.9505 50.2279,265.7227 Q50.6185,265.4948 51.0742,265.4948 Q51.8555,265.4948 52.3438,266.0482 Q52.832,266.569 52.832,267.8385 L52.832,270.8659 Q52.832,272.1354 52.3438,272.6888 Q51.8555,273.2422 51.0742,273.2422 Q50.3581,273.2422 49.9349,272.819 Q49.5117,272.4284 49.2839,271.3542 Q49.1862,270.6055 48.7956,270.2148 Q48.112,269.4336 46.8424,268.9779 Q45.5729,268.5221 44.2708,268.5221 Q42.6758,268.5221 41.3411,269.2057 Q40.0391,269.8893 38.9974,271.4518 Q37.9883,273.0143 37.9883,275.1628 L37.9883,277.4414 Q37.9883,280.013 39.8438,281.7383 Q41.6992,283.431 45.0195,283.431 Q46.9727,283.431 48.3398,282.9102 Q49.1536,282.5846 50.0326,281.6732 Q50.5859,281.1198 50.8789,280.957 Q51.2044,280.7943 51.6276,280.7943 Q52.3112,280.7943 52.832,281.3477 Q53.3854,281.8685 53.3854,282.5846 Q53.3854,283.3008 52.6693,284.1471 Q51.6276,285.3516 49.9674,286.0352 Q47.7214,286.9792 45.0195,286.9792 Q41.862,286.9792 39.3555,285.6771 Q37.3047,284.6354 35.8724,282.4219 Q34.4401,280.1758 34.4401,277.5065 L34.4401,275.0977 Q34.4401,272.3307 35.7096,269.9544 Q37.0117,267.5456 39.2904,266.276 Q41.569,264.974 44.1406,264.974 Q45.6706,264.974 47.0052,265.332 Q48.3724,265.6576 49.5117,266.4063 Z "/><text fill="#000000" font-family="sans-serif" font-size="25" lengthAdjust="spacingAndGlyphs" textLength="214.5833" x="72.9167" y="285.2295">ExceptionStoreLife</text><line style="stroke: #A80036; stroke-width: 3.125;" x1="14.5833" x2="291.6667" y1="308.3333" y2="308.3333"/><line style="stroke: #A80036; stroke-width: 3.125;" x1="14.5833" x2="291.6667" y1="325" y2="325"/><ellipse cx="35.4167" cy="347.9167" fill="#84BE84" rx="6.25" ry="6.25" style="stroke: #038048; stroke-width: 2.0833333333333335;"/><text fill="#000000" font-family="sans-serif" font-size="22.9167" lengthAdjust="spacingAndGlyphs" textLength="68.75" x="54.1667" y="357.1228">Save()</text><!--MD5=[339ee68a3104937a8ea9187b3ca4e697]
reverse link ExceptionStore to ExceptionStoreLife--><path d="M153.125,158.625 C153.125,186.0283 153.125,215.5669 153.125,240.8254 " fill="none" id="ExceptionStore&lt;-ExceptionStoreLife" style="stroke: #A80036; stroke-width: 2.0833333333333335;"/><polygon fill="none" points="138.5419,158.625,153.125,116.9583,167.7085,158.625,138.5419,158.625" style="stroke: #A80036; stroke-width: 2.0833333333333335;"/><!--MD5=[b89fdc6a775a0a85f65d3cef79c35935]
@startuml
skinparam dpi 200


class ExceptionStore #aqua

class ExceptionStoreLife {
 + Save()
}

ExceptionStore <|- - ExceptionStoreLife

@enduml

PlantUML version 1.2020.09(Sun May 10 12:51:06 CEST 2020)
(GPL source distribution)
Java Runtime: OpenJDK Runtime Environment
JVM: OpenJDK 64-Bit Server VM
Java Version: 12.0.1+12
Operating System: Windows 10
Default Encoding: UTF-8
Language: en
Country: US
--></g></svg>