<?xml version="1.0" encoding="UTF-8" standalone="no"?><svg xmlns="http://www.w3.org/2000/svg" xmlns:xlink="http://www.w3.org/1999/xlink" contentScriptType="application/ecmascript" contentStyleType="text/css" height="2352.0833px" preserveAspectRatio="none" style="width:1335px;height:2352px;" version="1.1" viewBox="0 0 1335 2352" width="1335.4167px" zoomAndPan="magnify"><defs><filter height="300%" id="f1b1kuxrp49k5s" width="300%" x="-1" y="-1"><feGaussianBlur result="blurOut" stdDeviation="4.166666666666667"/><feColorMatrix in="blurOut" result="blurOut2" type="matrix" values="0 0 0 0 0 0 0 0 0 0 0 0 0 0 0 0 0 0 .4 0"/><feOffset dx="8.333333333333334" dy="8.333333333333334" in="blurOut2" result="blurOut3"/><feBlend in="SourceGraphic" in2="blurOut3" mode="normal"/></filter></defs><g><!--MD5=[787494ff879e99315e413996e631a796]
class Attribute--><rect fill="#00FFFF" filter="url(#f1b1kuxrp49k5s)" height="215.2995" id="Attribute" style="stroke: #A80036; stroke-width: 3.125;" width="197.9167" x="386.4583" y="16.6667"/><ellipse cx="434.5833" cy="50" fill="#ADD1B2" rx="22.9167" ry="22.9167" style="stroke: #A80036; stroke-width: 2.0833333333333335;"/><path d="M440.3451,41.4063 Q440.6706,40.9505 441.0612,40.7227 Q441.4518,40.4948 441.9076,40.4948 Q442.6888,40.4948 443.1771,41.0482 Q443.6654,41.569 443.6654,42.8385 L443.6654,45.8659 Q443.6654,47.1354 443.1771,47.6888 Q442.6888,48.2422 441.9076,48.2422 Q441.1914,48.2422 440.7682,47.819 Q440.3451,47.4284 440.1172,46.3542 Q440.0195,45.6055 439.6289,45.2148 Q438.9453,44.4336 437.6758,43.9779 Q436.4063,43.5221 435.1042,43.5221 Q433.5091,43.5221 432.1745,44.2057 Q430.8724,44.8893 429.8307,46.4518 Q428.8216,48.0143 428.8216,50.1628 L428.8216,52.4414 Q428.8216,55.013 430.6771,56.7383 Q432.5326,58.431 435.8529,58.431 Q437.806,58.431 439.1732,57.9102 Q439.987,57.5846 440.8659,56.6732 Q441.4193,56.1198 441.7122,55.957 Q442.0378,55.7943 442.4609,55.7943 Q443.1445,55.7943 443.6654,56.3477 Q444.2188,56.8685 444.2188,57.5846 Q444.2188,58.3008 443.5026,59.1471 Q442.4609,60.3516 440.8008,61.0352 Q438.5547,61.9792 435.8529,61.9792 Q432.6953,61.9792 430.1888,60.6771 Q428.138,59.6354 426.7057,57.4219 Q425.2734,55.1758 425.2734,52.5065 L425.2734,50.0977 Q425.2734,47.3307 426.543,44.9544 Q427.8451,42.5456 430.1237,41.276 Q432.4023,39.974 434.974,39.974 Q436.5039,39.974 437.8385,40.332 Q439.2057,40.6576 440.3451,41.4063 Z "/><text fill="#000000" font-family="sans-serif" font-size="25" lengthAdjust="spacingAndGlyphs" textLength="93.75" x="467.5" y="60.2295">Attribute</text><line style="stroke: #A80036; stroke-width: 3.125;" x1="388.5417" x2="582.2917" y1="83.3333" y2="83.3333"/><ellipse cx="409.375" cy="106.25" fill="#84BE84" rx="6.25" ry="6.25" style="stroke: #038048; stroke-width: 2.0833333333333335;"/><text fill="#000000" font-family="sans-serif" font-size="22.9167" lengthAdjust="spacingAndGlyphs" textLength="106.25" x="428.125" y="115.4561">SetValue()</text><ellipse cx="409.375" cy="135.0749" fill="#84BE84" rx="6.25" ry="6.25" style="stroke: #038048; stroke-width: 2.0833333333333335;"/><text fill="#000000" font-family="sans-serif" font-size="22.9167" lengthAdjust="spacingAndGlyphs" textLength="72.9167" x="428.125" y="144.281">Value()</text><line style="stroke: #A80036; stroke-width: 2.0833333333333335; stroke-dasharray: 1.0,2.0;" x1="388.5417" x2="582.2917" y1="157.6497" y2="157.6497"/><polygon fill="#FFFF44" points="409.375,170.1497,417.7083,178.4831,409.375,186.8164,401.0417,178.4831" style="stroke: #B38D22; stroke-width: 2.0833333333333335;"/><text fill="#000000" font-family="sans-serif" font-size="22.9167" lengthAdjust="spacingAndGlyphs" textLength="108.3333" x="428.125" y="189.7725">Compute()</text><polygon fill="#FFFF44" points="409.375,198.9746,417.7083,207.3079,409.375,215.6413,401.0417,207.3079" style="stroke: #B38D22; stroke-width: 2.0833333333333335;"/><text fill="#000000" font-family="sans-serif" font-size="22.9167" lengthAdjust="spacingAndGlyphs" textLength="143.75" x="428.125" y="218.5974">ComputeOld()</text><!--MD5=[be652611a580d0d0ba4ba7fdef208461]
class GenericAttribute--><rect fill="#00FFFF" filter="url(#f1b1kuxrp49k5s)" height="167.4479" id="GenericAttribute" style="stroke: #A80036; stroke-width: 3.125;" width="781.25" x="94.7917" y="585.4167"/><ellipse cx="126.0417" cy="652.474" fill="#ADD1B2" rx="22.9167" ry="22.9167" style="stroke: #A80036; stroke-width: 2.0833333333333335;"/><path d="M131.8034,643.8802 Q132.1289,643.4245 132.5195,643.1966 Q132.9102,642.9688 133.3659,642.9688 Q134.1471,642.9688 134.6354,643.5221 Q135.1237,644.043 135.1237,645.3125 L135.1237,648.3398 Q135.1237,649.6094 134.6354,650.1628 Q134.1471,650.7161 133.3659,650.7161 Q132.6497,650.7161 132.2266,650.293 Q131.8034,649.9023 131.5755,648.8281 Q131.4779,648.0794 131.0872,647.6888 Q130.4036,646.9076 129.1341,646.4518 Q127.8646,645.9961 126.5625,645.9961 Q124.9674,645.9961 123.6328,646.6797 Q122.3307,647.3633 121.2891,648.9258 Q120.2799,650.4883 120.2799,652.6367 L120.2799,654.9154 Q120.2799,657.487 122.1354,659.2122 Q123.9909,660.9049 127.3112,660.9049 Q129.2643,660.9049 130.6315,660.3841 Q131.4453,660.0586 132.3242,659.1471 Q132.8776,658.5938 133.1706,658.431 Q133.4961,658.2682 133.9193,658.2682 Q134.6029,658.2682 135.1237,658.8216 Q135.6771,659.3424 135.6771,660.0586 Q135.6771,660.7747 134.9609,661.6211 Q133.9193,662.8255 132.2591,663.5091 Q130.013,664.4531 127.3112,664.4531 Q124.1536,664.4531 121.6471,663.151 Q119.5964,662.1094 118.1641,659.8958 Q116.7318,657.6497 116.7318,654.9805 L116.7318,652.5716 Q116.7318,649.8047 118.0013,647.4284 Q119.3034,645.0195 121.582,643.75 Q123.8607,642.4479 126.4323,642.4479 Q127.9622,642.4479 129.2969,642.806 Q130.6641,643.1315 131.8034,643.8802 Z "/><text fill="#000000" font-family="sans-serif" font-size="25" lengthAdjust="spacingAndGlyphs" textLength="183.3333" x="155.2083" y="662.7035">GenericAttribute</text><rect fill="#00FFFF" height="129.9479" style="stroke: #000000; stroke-width: 2.0833333333333335; stroke-dasharray: 2.0,2.0;" width="527.0833" x="355.2083" y="579.1667"/><text fill="#000000" font-family="sans-serif" font-size="25" font-style="italic" lengthAdjust="spacingAndGlyphs" textLength="283.3333" x="473.9583" y="607.2021">TBaseClass, TParentCtx,</text><text fill="#000000" font-family="sans-serif" font-size="25" font-style="italic" lengthAdjust="spacingAndGlyphs" textLength="372.9167" x="429.1667" y="638.6475">attr_name, attr_persistent_name,</text><text fill="#000000" font-family="sans-serif" font-size="25" font-style="italic" lengthAdjust="spacingAndGlyphs" textLength="510.4167" x="363.5417" y="670.0928">tcd_id, tcd_alt_id, tcd_sek_id, tcd_sek_alt_id,</text><text fill="#000000" font-family="sans-serif" font-size="25" font-style="italic" lengthAdjust="spacingAndGlyphs" textLength="397.9167" x="419.7917" y="701.5381">TType, is_inquire, characteristicOld</text><line style="stroke: #A80036; stroke-width: 3.125;" x1="96.875" x2="873.9583" y1="719.5313" y2="719.5313"/><line style="stroke: #A80036; stroke-width: 3.125;" x1="96.875" x2="873.9583" y1="736.1979" y2="736.1979"/><!--MD5=[0274b9b779da88e925b8eb4a5b858965]
class GenericContractAttribute--><rect fill="#FEFECE" filter="url(#f1b1kuxrp49k5s)" height="136.0026" id="GenericContractAttribute" style="stroke: #A80036; stroke-width: 3.125;" width="864.5833" x="53.125" y="1210.4167"/><ellipse cx="84.375" cy="1261.7513" fill="#ADD1B2" rx="22.9167" ry="22.9167" style="stroke: #A80036; stroke-width: 2.0833333333333335;"/><path d="M90.1367,1253.1576 Q90.4622,1252.7018 90.8529,1252.474 Q91.2435,1252.2461 91.6992,1252.2461 Q92.4805,1252.2461 92.9688,1252.7995 Q93.457,1253.3203 93.457,1254.5898 L93.457,1257.6172 Q93.457,1258.8867 92.9688,1259.4401 Q92.4805,1259.9935 91.6992,1259.9935 Q90.9831,1259.9935 90.5599,1259.5703 Q90.1367,1259.1797 89.9089,1258.1055 Q89.8112,1257.3568 89.4206,1256.9661 Q88.737,1256.1849 87.4674,1255.7292 Q86.1979,1255.2734 84.8958,1255.2734 Q83.3008,1255.2734 81.9661,1255.957 Q80.6641,1256.6406 79.6224,1258.2031 Q78.6133,1259.7656 78.6133,1261.9141 L78.6133,1264.1927 Q78.6133,1266.7643 80.4688,1268.4896 Q82.3242,1270.1823 85.6445,1270.1823 Q87.5977,1270.1823 88.9648,1269.6615 Q89.7786,1269.3359 90.6576,1268.4245 Q91.2109,1267.8711 91.5039,1267.7083 Q91.8294,1267.5456 92.2526,1267.5456 Q92.9362,1267.5456 93.457,1268.099 Q94.0104,1268.6198 94.0104,1269.3359 Q94.0104,1270.0521 93.2943,1270.8984 Q92.2526,1272.1029 90.5924,1272.7865 Q88.3464,1273.7305 85.6445,1273.7305 Q82.487,1273.7305 79.9805,1272.4284 Q77.9297,1271.3867 76.4974,1269.1732 Q75.0651,1266.9271 75.0651,1264.2578 L75.0651,1261.849 Q75.0651,1259.082 76.3346,1256.7057 Q77.6367,1254.2969 79.9154,1253.0273 Q82.194,1251.7253 84.7656,1251.7253 Q86.2956,1251.7253 87.6302,1252.0833 Q88.9974,1252.4089 90.1367,1253.1576 Z "/><text fill="#000000" font-family="sans-serif" font-size="25" lengthAdjust="spacingAndGlyphs" textLength="279.1667" x="113.5417" y="1271.9808">GenericContractAttribute</text><rect fill="#FFFFFF" height="98.5026" style="stroke: #000000; stroke-width: 2.0833333333333335; stroke-dasharray: 2.0,2.0;" width="514.5833" x="409.375" y="1204.1667"/><text fill="#000000" font-family="sans-serif" font-size="25" font-style="italic" lengthAdjust="spacingAndGlyphs" textLength="372.9167" x="477.0833" y="1232.2021">attr_name, attr_persistent_name,</text><text fill="#000000" font-family="sans-serif" font-size="25" font-style="italic" lengthAdjust="spacingAndGlyphs" textLength="510.4167" x="411.4583" y="1263.6475">tcd_id, tcd_alt_id, tcd_sek_id, tcd_sek_alt_id,</text><text fill="#000000" font-family="sans-serif" font-size="25" font-style="italic" lengthAdjust="spacingAndGlyphs" textLength="397.9167" x="470.8333" y="1295.0928">TType, is_inquire, characteristicOld</text><line style="stroke: #A80036; stroke-width: 3.125;" x1="55.2083" x2="915.625" y1="1313.0859" y2="1313.0859"/><line style="stroke: #A80036; stroke-width: 3.125;" x1="55.2083" x2="915.625" y1="1329.7526" y2="1329.7526"/><!--MD5=[e6ebeacd6b8c8dc190243fc8aa003e30]
class ContractNetPremium--><rect fill="#FEFECE" filter="url(#f1b1kuxrp49k5s)" height="186.4746" id="ContractNetPremium" style="stroke: #A80036; stroke-width: 3.125;" width="314.5833" x="36.4583" y="2143.75"/><ellipse cx="72.3958" cy="2177.0833" fill="#ADD1B2" rx="22.9167" ry="22.9167" style="stroke: #A80036; stroke-width: 2.0833333333333335;"/><path d="M78.1576,2168.4896 Q78.4831,2168.0339 78.8737,2167.806 Q79.2643,2167.5781 79.7201,2167.5781 Q80.5013,2167.5781 80.9896,2168.1315 Q81.4779,2168.6523 81.4779,2169.9219 L81.4779,2172.9492 Q81.4779,2174.2188 80.9896,2174.7721 Q80.5013,2175.3255 79.7201,2175.3255 Q79.0039,2175.3255 78.5807,2174.9023 Q78.1576,2174.5117 77.9297,2173.4375 Q77.832,2172.6888 77.4414,2172.2982 Q76.7578,2171.5169 75.4883,2171.0612 Q74.2188,2170.6055 72.9167,2170.6055 Q71.3216,2170.6055 69.987,2171.2891 Q68.6849,2171.9727 67.6432,2173.5352 Q66.6341,2175.0977 66.6341,2177.2461 L66.6341,2179.5247 Q66.6341,2182.0964 68.4896,2183.8216 Q70.3451,2185.5143 73.6654,2185.5143 Q75.6185,2185.5143 76.9857,2184.9935 Q77.7995,2184.668 78.6784,2183.7565 Q79.2318,2183.2031 79.5247,2183.0404 Q79.8503,2182.8776 80.2734,2182.8776 Q80.957,2182.8776 81.4779,2183.431 Q82.0313,2183.9518 82.0313,2184.668 Q82.0313,2185.3841 81.3151,2186.2305 Q80.2734,2187.4349 78.6133,2188.1185 Q76.3672,2189.0625 73.6654,2189.0625 Q70.5078,2189.0625 68.0013,2187.7604 Q65.9505,2186.7188 64.5182,2184.5052 Q63.0859,2182.2591 63.0859,2179.5898 L63.0859,2177.181 Q63.0859,2174.4141 64.3555,2172.0378 Q65.6576,2169.6289 67.9362,2168.3594 Q70.2148,2167.0573 72.7865,2167.0573 Q74.3164,2167.0573 75.651,2167.4154 Q77.0182,2167.7409 78.1576,2168.4896 Z "/><text fill="#000000" font-family="sans-serif" font-size="25" lengthAdjust="spacingAndGlyphs" textLength="237.5" x="102.6042" y="2187.3128">ContractNetPremium</text><line style="stroke: #A80036; stroke-width: 3.125;" x1="38.5417" x2="348.9583" y1="2210.4167" y2="2210.4167"/><ellipse cx="59.375" cy="2233.3333" fill="#84BE84" rx="6.25" ry="6.25" style="stroke: #038048; stroke-width: 2.0833333333333335;"/><text fill="#000000" font-family="sans-serif" font-size="22.9167" lengthAdjust="spacingAndGlyphs" textLength="260.4167" x="78.125" y="2242.5395">NetPremiumFromGross()</text><line style="stroke: #A80036; stroke-width: 2.0833333333333335; stroke-dasharray: 1.0,2.0;" x1="38.5417" x2="348.9583" y1="2255.9082" y2="2255.9082"/><polygon fill="#FFFF44" points="59.375,2268.4082,67.7083,2276.7415,59.375,2285.0749,51.0417,2276.7415" style="stroke: #B38D22; stroke-width: 2.0833333333333335;"/><text fill="#000000" font-family="sans-serif" font-size="22.9167" lengthAdjust="spacingAndGlyphs" textLength="108.3333" x="78.125" y="2288.031">Compute()</text><polygon fill="#FFFF44" points="59.375,2297.2331,67.7083,2305.5664,59.375,2313.8997,51.0417,2305.5664" style="stroke: #B38D22; stroke-width: 2.0833333333333335;"/><text fill="#000000" font-family="sans-serif" font-size="22.9167" lengthAdjust="spacingAndGlyphs" textLength="143.75" x="78.125" y="2316.8559">ComputeOld()</text><!--MD5=[f0827df26b0666f0e8dac6f4c6f832c0]
class RateClass--><rect fill="#FEFECE" filter="url(#f1b1kuxrp49k5s)" height="157.6497" id="RateClass" style="stroke: #A80036; stroke-width: 3.125;" width="197.9167" x="680.2083" y="2158.3333"/><ellipse cx="717.0833" cy="2191.6667" fill="#ADD1B2" rx="22.9167" ry="22.9167" style="stroke: #A80036; stroke-width: 2.0833333333333335;"/><path d="M722.8451,2183.0729 Q723.1706,2182.6172 723.5612,2182.3893 Q723.9518,2182.1615 724.4076,2182.1615 Q725.1888,2182.1615 725.6771,2182.7148 Q726.1654,2183.2357 726.1654,2184.5052 L726.1654,2187.5326 Q726.1654,2188.8021 725.6771,2189.3555 Q725.1888,2189.9089 724.4076,2189.9089 Q723.6914,2189.9089 723.2682,2189.4857 Q722.8451,2189.0951 722.6172,2188.0208 Q722.5195,2187.2721 722.1289,2186.8815 Q721.4453,2186.1003 720.1758,2185.6445 Q718.9063,2185.1888 717.6042,2185.1888 Q716.0091,2185.1888 714.6745,2185.8724 Q713.3724,2186.556 712.3307,2188.1185 Q711.3216,2189.681 711.3216,2191.8294 L711.3216,2194.1081 Q711.3216,2196.6797 713.1771,2198.4049 Q715.0326,2200.0977 718.3529,2200.0977 Q720.306,2200.0977 721.6732,2199.5768 Q722.487,2199.2513 723.3659,2198.3398 Q723.9193,2197.7865 724.2122,2197.6237 Q724.5378,2197.4609 724.9609,2197.4609 Q725.6445,2197.4609 726.1654,2198.0143 Q726.7188,2198.5352 726.7188,2199.2513 Q726.7188,2199.9674 726.0026,2200.8138 Q724.9609,2202.0182 723.3008,2202.7018 Q721.0547,2203.6458 718.3529,2203.6458 Q715.1953,2203.6458 712.6888,2202.3438 Q710.638,2201.3021 709.2057,2199.0885 Q707.7734,2196.8424 707.7734,2194.1732 L707.7734,2191.7643 Q707.7734,2188.9974 709.043,2186.6211 Q710.3451,2184.2122 712.6237,2182.9427 Q714.9023,2181.6406 717.474,2181.6406 Q719.0039,2181.6406 720.3385,2181.9987 Q721.7057,2182.3242 722.8451,2183.0729 Z "/><text fill="#000000" font-family="sans-serif" font-size="25" lengthAdjust="spacingAndGlyphs" textLength="118.75" x="747.5" y="2201.8962">RateClass</text><line style="stroke: #A80036; stroke-width: 3.125;" x1="682.2917" x2="876.0417" y1="2225" y2="2225"/><line style="stroke: #A80036; stroke-width: 3.125;" x1="682.2917" x2="876.0417" y1="2241.6667" y2="2241.6667"/><polygon fill="#FFFF44" points="703.125,2254.1667,711.4583,2262.5,703.125,2270.8333,694.7917,2262.5" style="stroke: #B38D22; stroke-width: 2.0833333333333335;"/><text fill="#000000" font-family="sans-serif" font-size="22.9167" lengthAdjust="spacingAndGlyphs" textLength="108.3333" x="721.875" y="2273.7895">Compute()</text><polygon fill="#FFFF44" points="703.125,2282.9915,711.4583,2291.3249,703.125,2299.6582,694.7917,2291.3249" style="stroke: #B38D22; stroke-width: 2.0833333333333335;"/><text fill="#000000" font-family="sans-serif" font-size="22.9167" lengthAdjust="spacingAndGlyphs" textLength="143.75" x="721.875" y="2302.6143">ComputeOld()</text><!--MD5=[aae33062f89c90c0349c6e844e0012e4]
class TBaseClass--><rect fill="#FEFECE" filter="url(#f1b1kuxrp49k5s)" height="100" id="TBaseClass" style="stroke: #A80036; stroke-width: 3.125;" width="204.1667" x="383.3333" y="358.3333"/><ellipse cx="414.5833" cy="391.6667" fill="#ADD1B2" rx="22.9167" ry="22.9167" style="stroke: #A80036; stroke-width: 2.0833333333333335;"/><path d="M420.3451,383.0729 Q420.6706,382.6172 421.0612,382.3893 Q421.4518,382.1615 421.9076,382.1615 Q422.6888,382.1615 423.1771,382.7148 Q423.6654,383.2357 423.6654,384.5052 L423.6654,387.5326 Q423.6654,388.8021 423.1771,389.3555 Q422.6888,389.9089 421.9076,389.9089 Q421.1914,389.9089 420.7682,389.4857 Q420.3451,389.0951 420.1172,388.0208 Q420.0195,387.2721 419.6289,386.8815 Q418.9453,386.1003 417.6758,385.6445 Q416.4063,385.1888 415.1042,385.1888 Q413.5091,385.1888 412.1745,385.8724 Q410.8724,386.556 409.8307,388.1185 Q408.8216,389.681 408.8216,391.8294 L408.8216,394.1081 Q408.8216,396.6797 410.6771,398.4049 Q412.5326,400.0977 415.8529,400.0977 Q417.806,400.0977 419.1732,399.5768 Q419.987,399.2513 420.8659,398.3398 Q421.4193,397.7865 421.7122,397.6237 Q422.0378,397.4609 422.4609,397.4609 Q423.1445,397.4609 423.6654,398.0143 Q424.2188,398.5352 424.2188,399.2513 Q424.2188,399.9674 423.5026,400.8138 Q422.4609,402.0182 420.8008,402.7018 Q418.5547,403.6458 415.8529,403.6458 Q412.6953,403.6458 410.1888,402.3438 Q408.138,401.3021 406.7057,399.0885 Q405.2734,396.8424 405.2734,394.1732 L405.2734,391.7643 Q405.2734,388.9974 406.543,386.6211 Q407.8451,384.2122 410.1237,382.9427 Q412.4023,381.6406 414.974,381.6406 Q416.5039,381.6406 417.8385,381.9987 Q419.2057,382.3242 420.3451,383.0729 Z "/><text fill="#000000" font-family="sans-serif" font-size="25" lengthAdjust="spacingAndGlyphs" textLength="137.5" x="443.75" y="401.8962">TBaseClass</text><line style="stroke: #A80036; stroke-width: 3.125;" x1="385.4167" x2="585.4167" y1="425" y2="425"/><line style="stroke: #A80036; stroke-width: 3.125;" x1="385.4167" x2="585.4167" y1="441.6667" y2="441.6667"/><!--MD5=[cdffa0a6c83561913f959181ffd76c0d]
class _Attr_Base--><rect fill="#FEFECE" filter="url(#f1b1kuxrp49k5s)" height="100" id="_Attr_Base" style="stroke: #A80036; stroke-width: 3.125;" width="191.6667" x="389.5833" y="983.3333"/><ellipse cx="420.8333" cy="1016.6667" fill="#ADD1B2" rx="22.9167" ry="22.9167" style="stroke: #A80036; stroke-width: 2.0833333333333335;"/><path d="M426.5951,1008.0729 Q426.9206,1007.6172 427.3112,1007.3893 Q427.7018,1007.1615 428.1576,1007.1615 Q428.9388,1007.1615 429.4271,1007.7148 Q429.9154,1008.2357 429.9154,1009.5052 L429.9154,1012.5326 Q429.9154,1013.8021 429.4271,1014.3555 Q428.9388,1014.9089 428.1576,1014.9089 Q427.4414,1014.9089 427.0182,1014.4857 Q426.5951,1014.0951 426.3672,1013.0208 Q426.2695,1012.2721 425.8789,1011.8815 Q425.1953,1011.1003 423.9258,1010.6445 Q422.6563,1010.1888 421.3542,1010.1888 Q419.7591,1010.1888 418.4245,1010.8724 Q417.1224,1011.556 416.0807,1013.1185 Q415.0716,1014.681 415.0716,1016.8294 L415.0716,1019.1081 Q415.0716,1021.6797 416.9271,1023.4049 Q418.7826,1025.0977 422.1029,1025.0977 Q424.056,1025.0977 425.4232,1024.5768 Q426.237,1024.2513 427.1159,1023.3398 Q427.6693,1022.7865 427.9622,1022.6237 Q428.2878,1022.4609 428.7109,1022.4609 Q429.3945,1022.4609 429.9154,1023.0143 Q430.4688,1023.5352 430.4688,1024.2513 Q430.4688,1024.9674 429.7526,1025.8138 Q428.7109,1027.0182 427.0508,1027.7018 Q424.8047,1028.6458 422.1029,1028.6458 Q418.9453,1028.6458 416.4388,1027.3438 Q414.388,1026.3021 412.9557,1024.0885 Q411.5234,1021.8424 411.5234,1019.1732 L411.5234,1016.7643 Q411.5234,1013.9974 412.793,1011.6211 Q414.0951,1009.2122 416.3737,1007.9427 Q418.6523,1006.6406 421.224,1006.6406 Q422.7539,1006.6406 424.0885,1006.9987 Q425.4557,1007.3242 426.5951,1008.0729 Z "/><text fill="#000000" font-family="sans-serif" font-size="25" lengthAdjust="spacingAndGlyphs" textLength="125" x="450" y="1026.8962">_Attr_Base</text><line style="stroke: #A80036; stroke-width: 3.125;" x1="391.6667" x2="579.1667" y1="1050" y2="1050"/><line style="stroke: #A80036; stroke-width: 3.125;" x1="391.6667" x2="579.1667" y1="1066.6667" y2="1066.6667"/><!--MD5=[6fed141efc049b91777b776d86ae7940]
class ContractNetPremiumBase--><rect fill="#FEFECE" filter="url(#f1b1kuxrp49k5s)" height="100" id="ContractNetPremiumBase" style="stroke: #A80036; stroke-width: 3.125;" width="362.5" x="12.5" y="1916.6667"/><ellipse cx="43.75" cy="1950" fill="#ADD1B2" rx="22.9167" ry="22.9167" style="stroke: #A80036; stroke-width: 2.0833333333333335;"/><path d="M49.5117,1941.4063 Q49.8372,1940.9505 50.2279,1940.7227 Q50.6185,1940.4948 51.0742,1940.4948 Q51.8555,1940.4948 52.3438,1941.0482 Q52.832,1941.569 52.832,1942.8385 L52.832,1945.8659 Q52.832,1947.1354 52.3438,1947.6888 Q51.8555,1948.2422 51.0742,1948.2422 Q50.3581,1948.2422 49.9349,1947.819 Q49.5117,1947.4284 49.2839,1946.3542 Q49.1862,1945.6055 48.7956,1945.2148 Q48.112,1944.4336 46.8424,1943.9779 Q45.5729,1943.5221 44.2708,1943.5221 Q42.6758,1943.5221 41.3411,1944.2057 Q40.0391,1944.8893 38.9974,1946.4518 Q37.9883,1948.0143 37.9883,1950.1628 L37.9883,1952.4414 Q37.9883,1955.013 39.8438,1956.7383 Q41.6992,1958.431 45.0195,1958.431 Q46.9727,1958.431 48.3398,1957.9102 Q49.1536,1957.5846 50.0326,1956.6732 Q50.5859,1956.1198 50.8789,1955.957 Q51.2044,1955.7943 51.6276,1955.7943 Q52.3112,1955.7943 52.832,1956.3477 Q53.3854,1956.8685 53.3854,1957.5846 Q53.3854,1958.3008 52.6693,1959.1471 Q51.6276,1960.3516 49.9674,1961.0352 Q47.7214,1961.9792 45.0195,1961.9792 Q41.862,1961.9792 39.3555,1960.6771 Q37.3047,1959.6354 35.8724,1957.4219 Q34.4401,1955.1758 34.4401,1952.5065 L34.4401,1950.0977 Q34.4401,1947.3307 35.7096,1944.9544 Q37.0117,1942.5456 39.2904,1941.276 Q41.569,1939.974 44.1406,1939.974 Q45.6706,1939.974 47.0052,1940.332 Q48.3724,1940.6576 49.5117,1941.4063 Z "/><text fill="#000000" font-family="sans-serif" font-size="25" lengthAdjust="spacingAndGlyphs" textLength="295.8333" x="72.9167" y="1960.2295">ContractNetPremiumBase</text><line style="stroke: #A80036; stroke-width: 3.125;" x1="14.5833" x2="372.9167" y1="1983.3333" y2="1983.3333"/><line style="stroke: #A80036; stroke-width: 3.125;" x1="14.5833" x2="372.9167" y1="2000" y2="2000"/><!--MD5=[f558af04c39c28cc52bad30399a57242]
class RateClassBase--><rect fill="#FEFECE" filter="url(#f1b1kuxrp49k5s)" height="100" id="RateClassBase" style="stroke: #A80036; stroke-width: 3.125;" width="243.75" x="657.2917" y="1916.6667"/><ellipse cx="688.5417" cy="1950" fill="#ADD1B2" rx="22.9167" ry="22.9167" style="stroke: #A80036; stroke-width: 2.0833333333333335;"/><path d="M694.3034,1941.4063 Q694.6289,1940.9505 695.0195,1940.7227 Q695.4102,1940.4948 695.8659,1940.4948 Q696.6471,1940.4948 697.1354,1941.0482 Q697.6237,1941.569 697.6237,1942.8385 L697.6237,1945.8659 Q697.6237,1947.1354 697.1354,1947.6888 Q696.6471,1948.2422 695.8659,1948.2422 Q695.1497,1948.2422 694.7266,1947.819 Q694.3034,1947.4284 694.0755,1946.3542 Q693.9779,1945.6055 693.5872,1945.2148 Q692.9036,1944.4336 691.6341,1943.9779 Q690.3646,1943.5221 689.0625,1943.5221 Q687.4674,1943.5221 686.1328,1944.2057 Q684.8307,1944.8893 683.7891,1946.4518 Q682.7799,1948.0143 682.7799,1950.1628 L682.7799,1952.4414 Q682.7799,1955.013 684.6354,1956.7383 Q686.4909,1958.431 689.8112,1958.431 Q691.7643,1958.431 693.1315,1957.9102 Q693.9453,1957.5846 694.8242,1956.6732 Q695.3776,1956.1198 695.6706,1955.957 Q695.9961,1955.7943 696.4193,1955.7943 Q697.1029,1955.7943 697.6237,1956.3477 Q698.1771,1956.8685 698.1771,1957.5846 Q698.1771,1958.3008 697.4609,1959.1471 Q696.4193,1960.3516 694.7591,1961.0352 Q692.513,1961.9792 689.8112,1961.9792 Q686.6536,1961.9792 684.1471,1960.6771 Q682.0964,1959.6354 680.6641,1957.4219 Q679.2318,1955.1758 679.2318,1952.5065 L679.2318,1950.0977 Q679.2318,1947.3307 680.5013,1944.9544 Q681.8034,1942.5456 684.082,1941.276 Q686.3607,1939.974 688.9323,1939.974 Q690.4622,1939.974 691.7969,1940.332 Q693.1641,1940.6576 694.3034,1941.4063 Z "/><text fill="#000000" font-family="sans-serif" font-size="25" lengthAdjust="spacingAndGlyphs" textLength="177.0833" x="717.7083" y="1960.2295">RateClassBase</text><line style="stroke: #A80036; stroke-width: 3.125;" x1="659.375" x2="898.9583" y1="1983.3333" y2="1983.3333"/><line style="stroke: #A80036; stroke-width: 3.125;" x1="659.375" x2="898.9583" y1="2000" y2="2000"/><!--MD5=[1344b556b65128e54324595329592c67]
reverse link Attribute to TBaseClass--><path d="M485.4167,273.9938 C485.4167,304.4354 485.4167,334.3833 485.4167,358.0604 " fill="none" id="Attribute&lt;-TBaseClass" style="stroke: #A80036; stroke-width: 2.0833333333333335;"/><polygon fill="none" points="470.8333,273.6438,485.4167,231.9792,500,273.6438,470.8333,273.6438" style="stroke: #A80036; stroke-width: 2.0833333333333335;"/><!--MD5=[74e1f0571fded312c2fd93b07ffe5231]
reverse link TBaseClass to GenericAttribute--><path d="M485.4167,501.0271 C485.4167,528.1875 485.4167,557.8167 485.4167,584.4083 " fill="none" id="TBaseClass&lt;-GenericAttribute" style="stroke: #A80036; stroke-width: 2.0833333333333335;"/><polygon fill="none" points="470.8333,500.2813,485.4167,458.6146,500,500.2813,470.8333,500.2813" style="stroke: #A80036; stroke-width: 2.0833333333333335;"/><!--MD5=[b4051c49bf81dabe69a2c06a6350751f]
reverse link GenericAttribute to _Attr_Base--><path d="M485.4167,795.2083 C485.4167,859.8583 485.4167,935.1479 485.4167,982.9875 " fill="none" id="GenericAttribute&lt;-_Attr_Base" style="stroke: #A80036; stroke-width: 2.0833333333333335; stroke-dasharray: 7.0,7.0;"/><polygon fill="none" points="470.8333,794.2833,485.4167,752.6167,500,794.2833,470.8333,794.2833" style="stroke: #A80036; stroke-width: 2.0833333333333335;"/><text fill="#000000" font-family="sans-serif" font-size="27.0833" font-weight="bold" lengthAdjust="spacingAndGlyphs" textLength="87.5" x="644.7917" y="844.7815">«bind»</text><text fill="#000000" font-family="sans-serif" font-size="27.0833" lengthAdjust="spacingAndGlyphs" textLength="402.0833" x="487.5" y="878.8472">TBaseClass -&gt; ContractAttribute,</text><text fill="#000000" font-family="sans-serif" font-size="27.0833" lengthAdjust="spacingAndGlyphs" textLength="375" x="501.0417" y="912.913">TParentCtx -&gt; ContractContext</text><!--MD5=[091c7a774aae39b0c05add1ddd78b8ab]
reverse link _Attr_Base to GenericContractAttribute--><path d="M485.4167,1125.8146 C485.4167,1153.6896 485.4167,1183.85 485.4167,1209.7833 " fill="none" id="_Attr_Base&lt;-GenericContractAttribute" style="stroke: #A80036; stroke-width: 2.0833333333333335;"/><polygon fill="none" points="470.8333,1125.2,485.4167,1083.5333,500,1125.2,470.8333,1125.2" style="stroke: #A80036; stroke-width: 2.0833333333333335;"/><!--MD5=[865c3eb94e7b765d33f28e05694c807e]
reverse link GenericContractAttribute to ContractNetPremiumBase--><path d="M219.4204,1371.4833 C207.329,1382.4125 196.5133,1394.6458 187.5,1408.3333 C82.3344,1568.0417 143.5856,1813.4521 176.7383,1916.4563 " fill="none" id="GenericContractAttribute&lt;-ContractNetPremiumBase" style="stroke: #A80036; stroke-width: 2.0833333333333335; stroke-dasharray: 7.0,7.0;"/><polygon fill="none" points="210.8646,1359.6708,252.9063,1346.2063,228.4375,1382.95,210.8646,1359.6708" style="stroke: #A80036; stroke-width: 2.0833333333333335;"/><text fill="#000000" font-family="sans-serif" font-size="27.0833" font-weight="bold" lengthAdjust="spacingAndGlyphs" textLength="87.5" x="394.7917" y="1489.5732">«bind»</text><text fill="#000000" font-family="sans-serif" font-size="27.0833" lengthAdjust="spacingAndGlyphs" textLength="422.9167" x="227.0833" y="1523.6389">attr_name -&gt; ksCalculationMethod,</text><text fill="#000000" font-family="sans-serif" font-size="27.0833" lengthAdjust="spacingAndGlyphs" textLength="497.9167" x="189.5833" y="1557.7047">attr_persistent_name -&gt; ksNotPersistent,</text><text fill="#000000" font-family="sans-serif" font-size="27.0833" lengthAdjust="spacingAndGlyphs" textLength="145.8333" x="365.625" y="1591.7704">tcd_id -&gt; -1,</text><text fill="#000000" font-family="sans-serif" font-size="27.0833" lengthAdjust="spacingAndGlyphs" textLength="189.5833" x="343.75" y="1625.8362">tcd_alt_id -&gt; -1,</text><text fill="#000000" font-family="sans-serif" font-size="27.0833" lengthAdjust="spacingAndGlyphs" textLength="204.1667" x="336.4583" y="1659.9019">tcd_sek_id -&gt; -1,</text><text fill="#000000" font-family="sans-serif" font-size="27.0833" lengthAdjust="spacingAndGlyphs" textLength="247.9167" x="314.5833" y="1693.9677">tcd_sek_alt_id -&gt; -1,</text><text fill="#000000" font-family="sans-serif" font-size="27.0833" lengthAdjust="spacingAndGlyphs" textLength="220.8333" x="328.125" y="1728.0334">TType -&gt; Number,</text><text fill="#000000" font-family="sans-serif" font-size="27.0833" lengthAdjust="spacingAndGlyphs" textLength="222.9167" x="327.0833" y="1762.0992">is_inquiry -&gt; false,</text><text fill="#000000" font-family="sans-serif" font-size="27.0833" lengthAdjust="spacingAndGlyphs" textLength="247.9167" x="314.5833" y="1796.165">oldValType -&gt; e_Old</text><!--MD5=[1101a8a5dab8b6d4755e30239dedb530]
reverse link ContractNetPremiumBase to ContractNetPremium--><path d="M193.75,2059.2271 C193.75,2086.3188 193.75,2116.0521 193.75,2143.2513 " fill="none" id="ContractNetPremiumBase&lt;-ContractNetPremium" style="stroke: #A80036; stroke-width: 2.0833333333333335;"/><polygon fill="none" points="179.1669,2058.7083,193.75,2017.0417,208.3335,2058.7083,179.1669,2058.7083" style="stroke: #A80036; stroke-width: 2.0833333333333335;"/><!--MD5=[46b04baad7a1cc43019f5f3b80ce0e7b]
reverse link GenericContractAttribute to RateClassBase--><path d="M667.0979,1372.4792 C678.7333,1383.3438 689.2396,1395.2771 697.9167,1408.3333 C804.8854,1569.2667 794.9917,1814.0083 785.0167,1916.6458 " fill="none" id="GenericContractAttribute&lt;-RateClassBase" style="stroke: #A80036; stroke-width: 2.0833333333333335; stroke-dasharray: 7.0,7.0;"/><polygon fill="none" points="657.6,1383.5583,634.1271,1346.1708,675.7917,1360.7604,657.6,1383.5583" style="stroke: #A80036; stroke-width: 2.0833333333333335;"/><text fill="#000000" font-family="sans-serif" font-size="27.0833" lengthAdjust="spacingAndGlyphs" textLength="0" x="1056.25" y="1438.5315"/><text fill="#000000" font-family="sans-serif" font-size="27.0833" lengthAdjust="spacingAndGlyphs" textLength="0" x="1056.25" y="1472.5972"/><text fill="#000000" font-family="sans-serif" font-size="27.0833" lengthAdjust="spacingAndGlyphs" textLength="0" x="1056.25" y="1506.663"/><text fill="#000000" font-family="sans-serif" font-size="27.0833" font-weight="bold" lengthAdjust="spacingAndGlyphs" textLength="87.5" x="1008.3333" y="1540.7288">«bind»</text><text fill="#000000" font-family="sans-serif" font-size="27.0833" lengthAdjust="spacingAndGlyphs" textLength="325" x="889.5833" y="1574.7945">attr_name -&gt; ksRateClass,</text><text fill="#000000" font-family="sans-serif" font-size="27.0833" lengthAdjust="spacingAndGlyphs" textLength="516.6667" x="793.75" y="1608.8603">attr_persistent_name -&gt; ksRateClassField,</text><text fill="#000000" font-family="sans-serif" font-size="27.0833" lengthAdjust="spacingAndGlyphs" textLength="385.4167" x="859.375" y="1642.926">tcd_id -&gt; e_RateClass_n_SKIX,</text><text fill="#000000" font-family="sans-serif" font-size="27.0833" lengthAdjust="spacingAndGlyphs" textLength="429.1667" x="837.5" y="1676.9918">tcd_alt_id -&gt; e_RateClass_o_SKIX,</text><text fill="#000000" font-family="sans-serif" font-size="27.0833" lengthAdjust="spacingAndGlyphs" textLength="204.1667" x="950" y="1711.0575">tcd_sek_id -&gt; -1,</text><text fill="#000000" font-family="sans-serif" font-size="27.0833" lengthAdjust="spacingAndGlyphs" textLength="247.9167" x="928.125" y="1745.1233">tcd_sek_alt_id -&gt; -1,</text><text fill="#000000" font-family="sans-serif" font-size="27.0833" lengthAdjust="spacingAndGlyphs" textLength="220.8333" x="941.6667" y="1779.189">TType -&gt; Number,</text><text fill="#000000" font-family="sans-serif" font-size="27.0833" lengthAdjust="spacingAndGlyphs" textLength="222.9167" x="940.625" y="1813.2548">is_inquiry -&gt; false,</text><text fill="#000000" font-family="sans-serif" font-size="27.0833" lengthAdjust="spacingAndGlyphs" textLength="247.9167" x="928.125" y="1847.3206">oldValType -&gt; e_Old</text><!--MD5=[9d4fe769163207c1eef957bb5dadc354]
reverse link RateClassBase to RateClass--><path d="M779.1667,2059.1333 C779.1667,2091.3104 779.1667,2127.2219 779.1667,2158.1933 " fill="none" id="RateClassBase&lt;-RateClass" style="stroke: #A80036; stroke-width: 2.0833333333333335;"/><polygon fill="none" points="764.5833,2058.7083,779.1667,2017.0417,793.75,2058.7083,764.5833,2058.7083" style="stroke: #A80036; stroke-width: 2.0833333333333335;"/><!--MD5=[610c7e760ddc3f093e88c44061cc124c]
@startuml
skinparam dpi 200


class Attribute #aqua {
 +SetValue()
 +Value()
 ..
 #Compute()
 #ComputeOld()
}


class GenericAttribute<TBaseClass, TParentCtx, \nattr_name, attr_persistent_name, \n tcd_id, tcd_alt_id, tcd_sek_id, tcd_sek_alt_id, \nTType, is_inquire, characteristicOld> #aqua  {
}

class GenericContractAttribute<attr_name, attr_persistent_name, \ntcd_id, tcd_alt_id, tcd_sek_id, tcd_sek_alt_id,\n TType, is_inquire, characteristicOld>

class ContractNetPremium {
 +NetPremiumFromGross()
 ..
 #Compute()
 #ComputeOld()
}


class RateClass {
 #Compute()
 #ComputeOld()
}


Attribute <|- - TBaseClass
TBaseClass <|- - GenericAttribute

GenericAttribute <|.. _Attr_Base : <b><<bind>></b>\nTBaseClass -> ContractAttribute,\nTParentCtx -> ContractContext
_Attr_Base <|- - GenericContractAttribute


GenericContractAttribute <|.. ContractNetPremiumBase : <b><<bind>></b>\nattr_name -> ksCalculationMethod,\nattr_persistent_name -> ksNotPersistent,\ntcd_id -> -1,\ntcd_alt_id -> -1,\ntcd_sek_id -> -1,\ntcd_sek_alt_id -> -1,\nTType -> Number,\nis_inquiry -> false,\noldValType -> e_Old


ContractNetPremiumBase <|- - ContractNetPremium



GenericContractAttribute <|.. RateClassBase : \n\n\n<b><<bind>></b>\nattr_name -> ksRateClass,\nattr_persistent_name -> ksRateClassField,\ntcd_id -> e_RateClass_n_SKIX,\ntcd_alt_id -> e_RateClass_o_SKIX,\ntcd_sek_id -> -1,\ntcd_sek_alt_id -> -1,\nTType -> Number,\nis_inquiry -> false,\noldValType -> e_Old


RateClassBase <|- - RateClass


@enduml

PlantUML version 1.2020.09(Sun May 10 12:51:06 CEST 2020)
(GPL source distribution)
Java Runtime: OpenJDK Runtime Environment
JVM: OpenJDK 64-Bit Server VM
Java Version: 12.0.1+12
Operating System: Windows 10
Default Encoding: UTF-8
Language: en
Country: US
--></g></svg>