<?xml version="1.0" encoding="UTF-8" standalone="no"?><svg xmlns="http://www.w3.org/2000/svg" xmlns:xlink="http://www.w3.org/1999/xlink" contentScriptType="application/ecmascript" contentStyleType="text/css" height="479.1667px" preserveAspectRatio="none" style="width:822px;height:479px;" version="1.1" viewBox="0 0 822 479" width="822.9167px" zoomAndPan="magnify"><defs><filter height="300%" id="fpahuwpxscma1" width="300%" x="-1" y="-1"><feGaussianBlur result="blurOut" stdDeviation="4.166666666666667"/><feColorMatrix in="blurOut" result="blurOut2" type="matrix" values="0 0 0 0 0 0 0 0 0 0 0 0 0 0 0 0 0 0 .4 0"/><feOffset dx="8.333333333333334" dy="8.333333333333334" in="blurOut2" result="blurOut3"/><feBlend in="SourceGraphic" in2="blurOut3" mode="normal"/></filter></defs><g><!--MD5=[b0e6b02c41411fd142f57b5925d161fb]
class OrbitMath--><rect fill="#00FFFF" filter="url(#fpahuwpxscma1)" height="100" id="OrbitMath" style="stroke: #A80036; stroke-width: 3.125;" width="337.5" x="12.5" y="73.9583"/><ellipse cx="43.75" cy="107.2917" fill="#ADD1B2" rx="22.9167" ry="22.9167" style="stroke: #A80036; stroke-width: 2.0833333333333335;"/><path d="M49.5117,98.6979 Q49.8372,98.2422 50.2279,98.0143 Q50.6185,97.7865 51.0742,97.7865 Q51.8555,97.7865 52.3438,98.3398 Q52.832,98.8607 52.832,100.1302 L52.832,103.1576 Q52.832,104.4271 52.3438,104.9805 Q51.8555,105.5339 51.0742,105.5339 Q50.3581,105.5339 49.9349,105.1107 Q49.5117,104.7201 49.2839,103.6458 Q49.1862,102.8971 48.7956,102.5065 Q48.112,101.7253 46.8424,101.2695 Q45.5729,100.8138 44.2708,100.8138 Q42.6758,100.8138 41.3411,101.4974 Q40.0391,102.181 38.9974,103.7435 Q37.9883,105.306 37.9883,107.4544 L37.9883,109.7331 Q37.9883,112.3047 39.8438,114.0299 Q41.6992,115.7227 45.0195,115.7227 Q46.9727,115.7227 48.3398,115.2018 Q49.1536,114.8763 50.0326,113.9648 Q50.5859,113.4115 50.8789,113.2487 Q51.2044,113.0859 51.6276,113.0859 Q52.3112,113.0859 52.832,113.6393 Q53.3854,114.1602 53.3854,114.8763 Q53.3854,115.5924 52.6693,116.4388 Q51.6276,117.6432 49.9674,118.3268 Q47.7214,119.2708 45.0195,119.2708 Q41.862,119.2708 39.3555,117.9688 Q37.3047,116.9271 35.8724,114.7135 Q34.4401,112.4674 34.4401,109.7982 L34.4401,107.3893 Q34.4401,104.6224 35.7096,102.2461 Q37.0117,99.8372 39.2904,98.5677 Q41.569,97.2656 44.1406,97.2656 Q45.6706,97.2656 47.0052,97.6237 Q48.3724,97.9492 49.5117,98.6979 Z "/><text fill="#000000" font-family="sans-serif" font-size="25" lengthAdjust="spacingAndGlyphs" textLength="110.4167" x="72.9167" y="117.5212">OrbitMath</text><rect fill="#00FFFF" height="35.612" style="stroke: #000000; stroke-width: 2.0833333333333335; stroke-dasharray: 2.0,2.0;" width="156.25" x="200" y="67.7083"/><text fill="#000000" font-family="sans-serif" font-size="25" font-style="italic" lengthAdjust="spacingAndGlyphs" textLength="152.0833" x="202.0833" y="95.7438">mathContract</text><line style="stroke: #A80036; stroke-width: 3.125;" x1="14.5833" x2="347.9167" y1="140.625" y2="140.625"/><line style="stroke: #A80036; stroke-width: 3.125;" x1="14.5833" x2="347.9167" y1="157.2917" y2="157.2917"/><!--MD5=[31a109b2ec5db3f8cd8d3f0ca83a2a02]
class InterfaceMathLife--><rect fill="#FEFECE" filter="url(#fpahuwpxscma1)" height="100" id="InterfaceMathLife" style="stroke: #A80036; stroke-width: 3.125;" width="262.5" x="50" y="356.25"/><ellipse cx="81.25" cy="389.5833" fill="#ADD1B2" rx="22.9167" ry="22.9167" style="stroke: #A80036; stroke-width: 2.0833333333333335;"/><path d="M87.0117,380.9896 Q87.3372,380.5339 87.7279,380.306 Q88.1185,380.0781 88.5742,380.0781 Q89.3555,380.0781 89.8438,380.6315 Q90.332,381.1523 90.332,382.4219 L90.332,385.4492 Q90.332,386.7188 89.8438,387.2721 Q89.3555,387.8255 88.5742,387.8255 Q87.8581,387.8255 87.4349,387.4023 Q87.0117,387.0117 86.7839,385.9375 Q86.6862,385.1888 86.2956,384.7982 Q85.612,384.0169 84.3424,383.5612 Q83.0729,383.1055 81.7708,383.1055 Q80.1758,383.1055 78.8411,383.7891 Q77.5391,384.4727 76.4974,386.0352 Q75.4883,387.5977 75.4883,389.7461 L75.4883,392.0247 Q75.4883,394.5964 77.3438,396.3216 Q79.1992,398.0143 82.5195,398.0143 Q84.4727,398.0143 85.8398,397.4935 Q86.6536,397.168 87.5326,396.2565 Q88.0859,395.7031 88.3789,395.5404 Q88.7044,395.3776 89.1276,395.3776 Q89.8112,395.3776 90.332,395.931 Q90.8854,396.4518 90.8854,397.168 Q90.8854,397.8841 90.1693,398.7305 Q89.1276,399.9349 87.4674,400.6185 Q85.2214,401.5625 82.5195,401.5625 Q79.362,401.5625 76.8555,400.2604 Q74.8047,399.2188 73.3724,397.0052 Q71.9401,394.7591 71.9401,392.0898 L71.9401,389.681 Q71.9401,386.9141 73.2096,384.5378 Q74.5117,382.1289 76.7904,380.8594 Q79.069,379.5573 81.6406,379.5573 Q83.1706,379.5573 84.5052,379.9154 Q85.8724,380.2409 87.0117,380.9896 Z "/><text fill="#000000" font-family="sans-serif" font-size="25" lengthAdjust="spacingAndGlyphs" textLength="195.8333" x="110.4167" y="399.8128">InterfaceMathLife</text><line style="stroke: #A80036; stroke-width: 3.125;" x1="52.0833" x2="310.4167" y1="422.9167" y2="422.9167"/><line style="stroke: #A80036; stroke-width: 3.125;" x1="52.0833" x2="310.4167" y1="439.5833" y2="439.5833"/><!--MD5=[aa3c6e6eada7925ae4d68e3820d1af4a]
class mathbase--><rect fill="#00FFFF" filter="url(#fpahuwpxscma1)" height="215.2995" id="mathbase" style="stroke: #A80036; stroke-width: 3.125;" width="370.8333" x="422.9167" y="16.6667"/><ellipse cx="454.1667" cy="50" fill="#ADD1B2" rx="22.9167" ry="22.9167" style="stroke: #A80036; stroke-width: 2.0833333333333335;"/><path d="M459.9284,41.4063 Q460.2539,40.9505 460.6445,40.7227 Q461.0352,40.4948 461.4909,40.4948 Q462.2721,40.4948 462.7604,41.0482 Q463.2487,41.569 463.2487,42.8385 L463.2487,45.8659 Q463.2487,47.1354 462.7604,47.6888 Q462.2721,48.2422 461.4909,48.2422 Q460.7747,48.2422 460.3516,47.819 Q459.9284,47.4284 459.7005,46.3542 Q459.6029,45.6055 459.2122,45.2148 Q458.5286,44.4336 457.2591,43.9779 Q455.9896,43.5221 454.6875,43.5221 Q453.0924,43.5221 451.7578,44.2057 Q450.4557,44.8893 449.4141,46.4518 Q448.4049,48.0143 448.4049,50.1628 L448.4049,52.4414 Q448.4049,55.013 450.2604,56.7383 Q452.1159,58.431 455.4362,58.431 Q457.3893,58.431 458.7565,57.9102 Q459.5703,57.5846 460.4492,56.6732 Q461.0026,56.1198 461.2956,55.957 Q461.6211,55.7943 462.0443,55.7943 Q462.7279,55.7943 463.2487,56.3477 Q463.8021,56.8685 463.8021,57.5846 Q463.8021,58.3008 463.0859,59.1471 Q462.0443,60.3516 460.3841,61.0352 Q458.138,61.9792 455.4362,61.9792 Q452.2786,61.9792 449.7721,60.6771 Q447.7214,59.6354 446.2891,57.4219 Q444.8568,55.1758 444.8568,52.5065 L444.8568,50.0977 Q444.8568,47.3307 446.1263,44.9544 Q447.4284,42.5456 449.707,41.276 Q451.9857,39.974 454.5573,39.974 Q456.0872,39.974 457.4219,40.332 Q458.7891,40.6576 459.9284,41.4063 Z "/><text fill="#000000" font-family="sans-serif" font-size="25" lengthAdjust="spacingAndGlyphs" textLength="112.5" x="483.3333" y="60.2295">mathbase</text><rect fill="#00FFFF" height="35.612" style="stroke: #000000; stroke-width: 2.0833333333333335; stroke-dasharray: 2.0,2.0;" width="187.5" x="612.5" y="10.4167"/><text fill="#000000" font-family="sans-serif" font-size="25" font-style="italic" lengthAdjust="spacingAndGlyphs" textLength="183.3333" x="614.5833" y="38.4521">ContractContext</text><line style="stroke: #A80036; stroke-width: 3.125;" x1="425" x2="791.6667" y1="83.3333" y2="83.3333"/><line style="stroke: #A80036; stroke-width: 3.125;" x1="425" x2="791.6667" y1="100" y2="100"/><ellipse cx="445.8333" cy="122.9167" fill="#84BE84" rx="6.25" ry="6.25" style="stroke: #038048; stroke-width: 2.0833333333333335;"/><text fill="#000000" font-family="sans-serif" font-size="22.9167" lengthAdjust="spacingAndGlyphs" textLength="43.75" x="464.5833" y="132.1228">init()</text><ellipse cx="445.8333" cy="151.7415" fill="#84BE84" rx="6.25" ry="6.25" style="stroke: #038048; stroke-width: 2.0833333333333335;"/><text fill="#000000" font-family="sans-serif" font-size="22.9167" lengthAdjust="spacingAndGlyphs" textLength="104.1667" x="464.5833" y="160.9477">compute()</text><ellipse cx="445.8333" cy="180.5664" fill="#84BE84" rx="6.25" ry="6.25" style="stroke: #038048; stroke-width: 2.0833333333333335;"/><text fill="#000000" font-family="sans-serif" font-size="22.9167" lengthAdjust="spacingAndGlyphs" textLength="68.75" x="464.5833" y="189.7725">uninit()</text><ellipse cx="445.8333" cy="209.3913" fill="#84BE84" rx="6.25" ry="6.25" style="stroke: #038048; stroke-width: 2.0833333333333335;"/><text fill="#000000" font-family="sans-serif" font-size="22.9167" lengthAdjust="spacingAndGlyphs" textLength="83.3333" x="464.5833" y="218.5974">inquire()</text><!--MD5=[4492dfa48421622ca6a269e91dc2026c]
class mathContract--><rect fill="#FEFECE" filter="url(#fpahuwpxscma1)" height="100" id="mathContract" style="stroke: #A80036; stroke-width: 3.125;" width="218.75" x="498.9583" y="356.25"/><ellipse cx="530.2083" cy="389.5833" fill="#ADD1B2" rx="22.9167" ry="22.9167" style="stroke: #A80036; stroke-width: 2.0833333333333335;"/><path d="M535.9701,380.9896 Q536.2956,380.5339 536.6862,380.306 Q537.0768,380.0781 537.5326,380.0781 Q538.3138,380.0781 538.8021,380.6315 Q539.2904,381.1523 539.2904,382.4219 L539.2904,385.4492 Q539.2904,386.7188 538.8021,387.2721 Q538.3138,387.8255 537.5326,387.8255 Q536.8164,387.8255 536.3932,387.4023 Q535.9701,387.0117 535.7422,385.9375 Q535.6445,385.1888 535.2539,384.7982 Q534.5703,384.0169 533.3008,383.5612 Q532.0313,383.1055 530.7292,383.1055 Q529.1341,383.1055 527.7995,383.7891 Q526.4974,384.4727 525.4557,386.0352 Q524.4466,387.5977 524.4466,389.7461 L524.4466,392.0247 Q524.4466,394.5964 526.3021,396.3216 Q528.1576,398.0143 531.4779,398.0143 Q533.431,398.0143 534.7982,397.4935 Q535.612,397.168 536.4909,396.2565 Q537.0443,395.7031 537.3372,395.5404 Q537.6628,395.3776 538.0859,395.3776 Q538.7695,395.3776 539.2904,395.931 Q539.8438,396.4518 539.8438,397.168 Q539.8438,397.8841 539.1276,398.7305 Q538.0859,399.9349 536.4258,400.6185 Q534.1797,401.5625 531.4779,401.5625 Q528.3203,401.5625 525.8138,400.2604 Q523.763,399.2188 522.3307,397.0052 Q520.8984,394.7591 520.8984,392.0898 L520.8984,389.681 Q520.8984,386.9141 522.168,384.5378 Q523.4701,382.1289 525.7487,380.8594 Q528.0273,379.5573 530.599,379.5573 Q532.1289,379.5573 533.4635,379.9154 Q534.8307,380.2409 535.9701,380.9896 Z "/><text fill="#000000" font-family="sans-serif" font-size="25" lengthAdjust="spacingAndGlyphs" textLength="152.0833" x="559.375" y="399.8128">mathContract</text><line style="stroke: #A80036; stroke-width: 3.125;" x1="501.0417" x2="715.625" y1="422.9167" y2="422.9167"/><line style="stroke: #A80036; stroke-width: 3.125;" x1="501.0417" x2="715.625" y1="439.5833" y2="439.5833"/><!--MD5=[214f35c2ec45132da36a09b63cdd248e]
reverse link OrbitMath to InterfaceMathLife--><path d="M181.25,216.2771 C181.25,262.5079 181.25,316.9858 181.25,355.3429 " fill="none" id="OrbitMath&lt;-InterfaceMathLife" style="stroke: #A80036; stroke-width: 2.0833333333333335;"/><polygon fill="none" points="166.6669,216.1542,181.25,174.4875,195.8335,216.1542,166.6669,216.1542" style="stroke: #A80036; stroke-width: 2.0833333333333335;"/><!--MD5=[2c8c7cd8a22911fe1e1c32ab37b97186]
reverse link mathbase to mathContract--><path d="M608.3333,273.7804 C608.3333,303.499 608.3333,332.6871 608.3333,355.8873 " fill="none" id="mathbase&lt;-mathContract" style="stroke: #A80036; stroke-width: 2.0833333333333335;"/><polygon fill="none" points="593.75,273.649,608.3333,231.9813,622.9167,273.6488,593.75,273.649" style="stroke: #A80036; stroke-width: 2.0833333333333335;"/><!--MD5=[f288705047b69237950263c85b3f9c82]
@startuml
skinparam dpi 200



class OrbitMath<mathContract> #aqua  {
}


OrbitMath <|- - InterfaceMathLife



class mathbase<ContractContext> #aqua {
+init()
+compute()
+uninit()
+inquire()
}

mathbase <|- - mathContract

@enduml

PlantUML version 1.2020.09(Sun May 10 12:51:06 CEST 2020)
(GPL source distribution)
Java Runtime: OpenJDK Runtime Environment
JVM: OpenJDK 64-Bit Server VM
Java Version: 12.0.1+12
Operating System: Windows 10
Default Encoding: UTF-8
Language: en
Country: US
--></g></svg>