<?xml version="1.0" encoding="UTF-8" standalone="no"?><svg xmlns="http://www.w3.org/2000/svg" xmlns:xlink="http://www.w3.org/1999/xlink" contentScriptType="application/ecmascript" contentStyleType="text/css" height="364.5833px" preserveAspectRatio="none" style="width:681px;height:364px;" version="1.1" viewBox="0 0 681 364" width="681.25px" zoomAndPan="magnify"><defs><filter height="300%" id="f1e9jir443tpkm" width="300%" x="-1" y="-1"><feGaussianBlur result="blurOut" stdDeviation="4.166666666666667"/><feColorMatrix in="blurOut" result="blurOut2" type="matrix" values="0 0 0 0 0 0 0 0 0 0 0 0 0 0 0 0 0 0 .4 0"/><feOffset dx="8.333333333333334" dy="8.333333333333334" in="blurOut2" result="blurOut3"/><feBlend in="SourceGraphic" in2="blurOut3" mode="normal"/></filter></defs><g><!--MD5=[37d4e7b909a7267eaf154fe45496e496]
class DataBuffer--><rect fill="#00FFFF" filter="url(#f1e9jir443tpkm)" height="100" id="DataBuffer" style="stroke: #A80036; stroke-width: 3.125;" width="187.5" x="263.5417" y="16.6667"/><ellipse cx="294.7917" cy="50" fill="#ADD1B2" rx="22.9167" ry="22.9167" style="stroke: #A80036; stroke-width: 2.0833333333333335;"/><path d="M300.5534,41.4063 Q300.8789,40.9505 301.2695,40.7227 Q301.6602,40.4948 302.1159,40.4948 Q302.8971,40.4948 303.3854,41.0482 Q303.8737,41.569 303.8737,42.8385 L303.8737,45.8659 Q303.8737,47.1354 303.3854,47.6888 Q302.8971,48.2422 302.1159,48.2422 Q301.3997,48.2422 300.9766,47.819 Q300.5534,47.4284 300.3255,46.3542 Q300.2279,45.6055 299.8372,45.2148 Q299.1536,44.4336 297.8841,43.9779 Q296.6146,43.5221 295.3125,43.5221 Q293.7174,43.5221 292.3828,44.2057 Q291.0807,44.8893 290.0391,46.4518 Q289.0299,48.0143 289.0299,50.1628 L289.0299,52.4414 Q289.0299,55.013 290.8854,56.7383 Q292.7409,58.431 296.0612,58.431 Q298.0143,58.431 299.3815,57.9102 Q300.1953,57.5846 301.0742,56.6732 Q301.6276,56.1198 301.9206,55.957 Q302.2461,55.7943 302.6693,55.7943 Q303.3529,55.7943 303.8737,56.3477 Q304.4271,56.8685 304.4271,57.5846 Q304.4271,58.3008 303.7109,59.1471 Q302.6693,60.3516 301.0091,61.0352 Q298.763,61.9792 296.0612,61.9792 Q292.9036,61.9792 290.3971,60.6771 Q288.3464,59.6354 286.9141,57.4219 Q285.4818,55.1758 285.4818,52.5065 L285.4818,50.0977 Q285.4818,47.3307 286.7513,44.9544 Q288.0534,42.5456 290.332,41.276 Q292.6107,39.974 295.1823,39.974 Q296.7122,39.974 298.0469,40.332 Q299.4141,40.6576 300.5534,41.4063 Z "/><text fill="#000000" font-family="sans-serif" font-size="25" lengthAdjust="spacingAndGlyphs" textLength="120.8333" x="323.9583" y="60.2295">DataBuffer</text><line style="stroke: #A80036; stroke-width: 3.125;" x1="265.625" x2="448.9583" y1="83.3333" y2="83.3333"/><line style="stroke: #A80036; stroke-width: 3.125;" x1="265.625" x2="448.9583" y1="100" y2="100"/><!--MD5=[12057da738a717c4f15453f0fe846184]
class CacheChainDataBuffer--><rect fill="#00FFFF" filter="url(#f1e9jir443tpkm)" height="100" id="CacheChainDataBuffer" style="stroke: #A80036; stroke-width: 3.125;" width="331.25" x="12.5" y="241.6667"/><ellipse cx="43.75" cy="275" fill="#ADD1B2" rx="22.9167" ry="22.9167" style="stroke: #A80036; stroke-width: 2.0833333333333335;"/><path d="M49.5117,266.4063 Q49.8372,265.9505 50.2279,265.7227 Q50.6185,265.4948 51.0742,265.4948 Q51.8555,265.4948 52.3438,266.0482 Q52.832,266.569 52.832,267.8385 L52.832,270.8659 Q52.832,272.1354 52.3438,272.6888 Q51.8555,273.2422 51.0742,273.2422 Q50.3581,273.2422 49.9349,272.819 Q49.5117,272.4284 49.2839,271.3542 Q49.1862,270.6055 48.7956,270.2148 Q48.112,269.4336 46.8424,268.9779 Q45.5729,268.5221 44.2708,268.5221 Q42.6758,268.5221 41.3411,269.2057 Q40.0391,269.8893 38.9974,271.4518 Q37.9883,273.0143 37.9883,275.1628 L37.9883,277.4414 Q37.9883,280.013 39.8438,281.7383 Q41.6992,283.431 45.0195,283.431 Q46.9727,283.431 48.3398,282.9102 Q49.1536,282.5846 50.0326,281.6732 Q50.5859,281.1198 50.8789,280.957 Q51.2044,280.7943 51.6276,280.7943 Q52.3112,280.7943 52.832,281.3477 Q53.3854,281.8685 53.3854,282.5846 Q53.3854,283.3008 52.6693,284.1471 Q51.6276,285.3516 49.9674,286.0352 Q47.7214,286.9792 45.0195,286.9792 Q41.862,286.9792 39.3555,285.6771 Q37.3047,284.6354 35.8724,282.4219 Q34.4401,280.1758 34.4401,277.5065 L34.4401,275.0977 Q34.4401,272.3307 35.7096,269.9544 Q37.0117,267.5456 39.2904,266.276 Q41.569,264.974 44.1406,264.974 Q45.6706,264.974 47.0052,265.332 Q48.3724,265.6576 49.5117,266.4063 Z "/><text fill="#000000" font-family="sans-serif" font-size="25" lengthAdjust="spacingAndGlyphs" textLength="264.5833" x="72.9167" y="285.2295">CacheChainDataBuffer</text><line style="stroke: #A80036; stroke-width: 3.125;" x1="14.5833" x2="341.6667" y1="308.3333" y2="308.3333"/><line style="stroke: #A80036; stroke-width: 3.125;" x1="14.5833" x2="341.6667" y1="325" y2="325"/><!--MD5=[9bc89675e0c1ffa35c58325ad4d23c5f]
class JsonDataBuffer--><rect fill="#00FFFF" filter="url(#f1e9jir443tpkm)" height="100" id="JsonDataBuffer" style="stroke: #A80036; stroke-width: 3.125;" width="241.6667" x="417.7083" y="241.6667"/><ellipse cx="448.9583" cy="275" fill="#ADD1B2" rx="22.9167" ry="22.9167" style="stroke: #A80036; stroke-width: 2.0833333333333335;"/><path d="M454.7201,266.4063 Q455.0456,265.9505 455.4362,265.7227 Q455.8268,265.4948 456.2826,265.4948 Q457.0638,265.4948 457.5521,266.0482 Q458.0404,266.569 458.0404,267.8385 L458.0404,270.8659 Q458.0404,272.1354 457.5521,272.6888 Q457.0638,273.2422 456.2826,273.2422 Q455.5664,273.2422 455.1432,272.819 Q454.7201,272.4284 454.4922,271.3542 Q454.3945,270.6055 454.0039,270.2148 Q453.3203,269.4336 452.0508,268.9779 Q450.7813,268.5221 449.4792,268.5221 Q447.8841,268.5221 446.5495,269.2057 Q445.2474,269.8893 444.2057,271.4518 Q443.1966,273.0143 443.1966,275.1628 L443.1966,277.4414 Q443.1966,280.013 445.0521,281.7383 Q446.9076,283.431 450.2279,283.431 Q452.181,283.431 453.5482,282.9102 Q454.362,282.5846 455.2409,281.6732 Q455.7943,281.1198 456.0872,280.957 Q456.4128,280.7943 456.8359,280.7943 Q457.5195,280.7943 458.0404,281.3477 Q458.5938,281.8685 458.5938,282.5846 Q458.5938,283.3008 457.8776,284.1471 Q456.8359,285.3516 455.1758,286.0352 Q452.9297,286.9792 450.2279,286.9792 Q447.0703,286.9792 444.5638,285.6771 Q442.513,284.6354 441.0807,282.4219 Q439.6484,280.1758 439.6484,277.5065 L439.6484,275.0977 Q439.6484,272.3307 440.918,269.9544 Q442.2201,267.5456 444.4987,266.276 Q446.7773,264.974 449.349,264.974 Q450.8789,264.974 452.2135,265.332 Q453.5807,265.6576 454.7201,266.4063 Z "/><text fill="#000000" font-family="sans-serif" font-size="25" lengthAdjust="spacingAndGlyphs" textLength="175" x="478.125" y="285.2295">JsonDataBuffer</text><line style="stroke: #A80036; stroke-width: 3.125;" x1="419.7917" x2="657.2917" y1="308.3333" y2="308.3333"/><line style="stroke: #A80036; stroke-width: 3.125;" x1="419.7917" x2="657.2917" y1="325" y2="325"/><!--MD5=[fce27364f793bb88d933e0df878d7a96]
reverse link DataBuffer to CacheChainDataBuffer--><path d="M291.875,149.3794 C266.95,180.101 239.3271,214.1477 217.5444,240.9967 " fill="none" id="DataBuffer&lt;-CacheChainDataBuffer" style="stroke: #A80036; stroke-width: 2.0833333333333335;"/><polygon fill="none" points="280.8375,139.8363,318.4146,116.6667,303.4875,158.2125,280.8375,139.8363" style="stroke: #A80036; stroke-width: 2.0833333333333335;"/><!--MD5=[a961fa7e165e8875f632156abebadc48]
reverse link DataBuffer to JsonDataBuffer--><path d="M423.4688,149.3794 C448.6833,180.101 476.6271,214.1477 498.6646,240.9967 " fill="none" id="DataBuffer&lt;-JsonDataBuffer" style="stroke: #A80036; stroke-width: 2.0833333333333335;"/><polygon fill="none" points="411.7813,158.1273,396.6208,116.6667,434.3271,139.6231,411.7813,158.1273" style="stroke: #A80036; stroke-width: 2.0833333333333335;"/><!--MD5=[75f7648bc75a29abab05aa6c8248ccb8]
@startuml
skinparam dpi 200


class DataBuffer #aqua
class CacheChainDataBuffer #aqua
class JsonDataBuffer #aqua

DataBuffer <|- - CacheChainDataBuffer
DataBuffer <|- - JsonDataBuffer

@enduml

PlantUML version 1.2020.09(Sun May 10 12:51:06 CEST 2020)
(GPL source distribution)
Java Runtime: OpenJDK Runtime Environment
JVM: OpenJDK 64-Bit Server VM
Java Version: 12.0.1+12
Operating System: Windows 10
Default Encoding: UTF-8
Language: en
Country: US
--></g></svg>