<?xml version="1.0" encoding="UTF-8" standalone="no"?><svg xmlns="http://www.w3.org/2000/svg" xmlns:xlink="http://www.w3.org/1999/xlink" contentScriptType="application/ecmascript" contentStyleType="text/css" height="762.5px" preserveAspectRatio="none" style="width:804px;height:762px;" version="1.1" viewBox="0 0 804 762" width="804.1667px" zoomAndPan="magnify"><defs><filter height="300%" id="f1e1p2ewyjmbay" width="300%" x="-1" y="-1"><feGaussianBlur result="blurOut" stdDeviation="4.166666666666667"/><feColorMatrix in="blurOut" result="blurOut2" type="matrix" values="0 0 0 0 0 0 0 0 0 0 0 0 0 0 0 0 0 0 .4 0"/><feOffset dx="8.333333333333334" dy="8.333333333333334" in="blurOut2" result="blurOut3"/><feBlend in="SourceGraphic" in2="blurOut3" mode="normal"/></filter></defs><g><!--MD5=[4296a1ab0576a383a1a509d52c22ebf0]
class Type--><rect fill="#00FFFF" filter="url(#f1e1p2ewyjmbay)" height="272.9492" id="Type" style="stroke: #A80036; stroke-width: 3.125;" width="168.75" x="313.5417" y="241.6667"/><ellipse cx="365.4167" cy="275" fill="#ADD1B2" rx="22.9167" ry="22.9167" style="stroke: #A80036; stroke-width: 2.0833333333333335;"/><path d="M371.1784,266.4063 Q371.5039,265.9505 371.8945,265.7227 Q372.2852,265.4948 372.7409,265.4948 Q373.5221,265.4948 374.0104,266.0482 Q374.4987,266.569 374.4987,267.8385 L374.4987,270.8659 Q374.4987,272.1354 374.0104,272.6888 Q373.5221,273.2422 372.7409,273.2422 Q372.0247,273.2422 371.6016,272.819 Q371.1784,272.4284 370.9505,271.3542 Q370.8529,270.6055 370.4622,270.2148 Q369.7786,269.4336 368.5091,268.9779 Q367.2396,268.5221 365.9375,268.5221 Q364.3424,268.5221 363.0078,269.2057 Q361.7057,269.8893 360.6641,271.4518 Q359.6549,273.0143 359.6549,275.1628 L359.6549,277.4414 Q359.6549,280.013 361.5104,281.7383 Q363.3659,283.431 366.6862,283.431 Q368.6393,283.431 370.0065,282.9102 Q370.8203,282.5846 371.6992,281.6732 Q372.2526,281.1198 372.5456,280.957 Q372.8711,280.7943 373.2943,280.7943 Q373.9779,280.7943 374.4987,281.3477 Q375.0521,281.8685 375.0521,282.5846 Q375.0521,283.3008 374.3359,284.1471 Q373.2943,285.3516 371.6341,286.0352 Q369.388,286.9792 366.6862,286.9792 Q363.5286,286.9792 361.0221,285.6771 Q358.9714,284.6354 357.5391,282.4219 Q356.1068,280.1758 356.1068,277.5065 L356.1068,275.0977 Q356.1068,272.3307 357.3763,269.9544 Q358.6784,267.5456 360.957,266.276 Q363.2357,264.974 365.8073,264.974 Q367.3372,264.974 368.6719,265.332 Q370.0391,265.6576 371.1784,266.4063 Z "/><text fill="#000000" font-family="sans-serif" font-size="25" lengthAdjust="spacingAndGlyphs" textLength="56.25" x="399.1667" y="285.2295">Type</text><line style="stroke: #A80036; stroke-width: 3.125;" x1="315.625" x2="480.2083" y1="308.3333" y2="308.3333"/><ellipse cx="336.4583" cy="331.25" fill="#84BE84" rx="6.25" ry="6.25" style="stroke: #038048; stroke-width: 2.0833333333333335;"/><text fill="#000000" font-family="sans-serif" font-size="22.9167" lengthAdjust="spacingAndGlyphs" textLength="102.0833" x="355.2083" y="340.4561">AsString()</text><ellipse cx="336.4583" cy="360.0749" fill="#84BE84" rx="6.25" ry="6.25" style="stroke: #038048; stroke-width: 2.0833333333333335;"/><text fill="#000000" font-family="sans-serif" font-size="22.9167" lengthAdjust="spacingAndGlyphs" textLength="114.5833" x="355.2083" y="369.281">AsDouble()</text><ellipse cx="336.4583" cy="388.8997" fill="#84BE84" rx="6.25" ry="6.25" style="stroke: #038048; stroke-width: 2.0833333333333335;"/><text fill="#000000" font-family="sans-serif" font-size="22.9167" lengthAdjust="spacingAndGlyphs" textLength="68.75" x="355.2083" y="398.1059">AsInt()</text><ellipse cx="336.4583" cy="417.7246" fill="#84BE84" rx="6.25" ry="6.25" style="stroke: #038048; stroke-width: 2.0833333333333335;"/><text fill="#000000" font-family="sans-serif" font-size="22.9167" lengthAdjust="spacingAndGlyphs" textLength="77.0833" x="355.2083" y="426.9307">GetIlk()</text><line style="stroke: #A80036; stroke-width: 2.0833333333333335; stroke-dasharray: 1.0,2.0;" x1="315.625" x2="480.2083" y1="440.2995" y2="440.2995"/><rect fill="none" height="12.5" style="stroke: #C82930; stroke-width: 2.0833333333333335;" width="12.5" x="330.2083" y="456.9661"/><text fill="#000000" font-family="sans-serif" font-size="22.9167" lengthAdjust="spacingAndGlyphs" textLength="60.4167" x="355.2083" y="472.4223">m_Ilk;</text><rect fill="none" height="12.5" style="stroke: #C82930; stroke-width: 2.0833333333333335;" width="12.5" x="330.2083" y="485.791"/><text fill="#000000" font-family="sans-serif" font-size="22.9167" lengthAdjust="spacingAndGlyphs" textLength="106.25" x="355.2083" y="501.2472">m_Values;</text><!--MD5=[cf1d29bbcaf5a941b65a5a80d4f35099]
class AttributeClient--><rect fill="#FEFECE" filter="url(#f1e1p2ewyjmbay)" height="100" id="AttributeClient" style="stroke: #A80036; stroke-width: 3.125;" width="227.0833" x="284.375" y="16.6667"/><ellipse cx="315.625" cy="50" fill="#ADD1B2" rx="22.9167" ry="22.9167" style="stroke: #A80036; stroke-width: 2.0833333333333335;"/><path d="M321.3867,41.4063 Q321.7122,40.9505 322.1029,40.7227 Q322.4935,40.4948 322.9492,40.4948 Q323.7305,40.4948 324.2188,41.0482 Q324.707,41.569 324.707,42.8385 L324.707,45.8659 Q324.707,47.1354 324.2188,47.6888 Q323.7305,48.2422 322.9492,48.2422 Q322.2331,48.2422 321.8099,47.819 Q321.3867,47.4284 321.1589,46.3542 Q321.0612,45.6055 320.6706,45.2148 Q319.987,44.4336 318.7174,43.9779 Q317.4479,43.5221 316.1458,43.5221 Q314.5508,43.5221 313.2161,44.2057 Q311.9141,44.8893 310.8724,46.4518 Q309.8633,48.0143 309.8633,50.1628 L309.8633,52.4414 Q309.8633,55.013 311.7188,56.7383 Q313.5742,58.431 316.8945,58.431 Q318.8477,58.431 320.2148,57.9102 Q321.0286,57.5846 321.9076,56.6732 Q322.4609,56.1198 322.7539,55.957 Q323.0794,55.7943 323.5026,55.7943 Q324.1862,55.7943 324.707,56.3477 Q325.2604,56.8685 325.2604,57.5846 Q325.2604,58.3008 324.5443,59.1471 Q323.5026,60.3516 321.8424,61.0352 Q319.5964,61.9792 316.8945,61.9792 Q313.737,61.9792 311.2305,60.6771 Q309.1797,59.6354 307.7474,57.4219 Q306.3151,55.1758 306.3151,52.5065 L306.3151,50.0977 Q306.3151,47.3307 307.5846,44.9544 Q308.8867,42.5456 311.1654,41.276 Q313.444,39.974 316.0156,39.974 Q317.5456,39.974 318.8802,40.332 Q320.2474,40.6576 321.3867,41.4063 Z "/><text fill="#000000" font-family="sans-serif" font-size="25" lengthAdjust="spacingAndGlyphs" textLength="160.4167" x="344.7917" y="60.2295">AttributeClient</text><line style="stroke: #A80036; stroke-width: 3.125;" x1="286.4583" x2="509.375" y1="83.3333" y2="83.3333"/><line style="stroke: #A80036; stroke-width: 3.125;" x1="286.4583" x2="509.375" y1="100" y2="100"/><!--MD5=[435987a092acd998883c72f97c5c9408]
class Number--><rect fill="#FEFECE" filter="url(#f1e1p2ewyjmbay)" height="100" id="Number" style="stroke: #A80036; stroke-width: 3.125;" width="158.3333" x="12.5" y="639.5833"/><ellipse cx="43.75" cy="672.9167" fill="#ADD1B2" rx="22.9167" ry="22.9167" style="stroke: #A80036; stroke-width: 2.0833333333333335;"/><path d="M49.5117,664.3229 Q49.8372,663.8672 50.2279,663.6393 Q50.6185,663.4115 51.0742,663.4115 Q51.8555,663.4115 52.3438,663.9648 Q52.832,664.4857 52.832,665.7552 L52.832,668.7826 Q52.832,670.0521 52.3438,670.6055 Q51.8555,671.1589 51.0742,671.1589 Q50.3581,671.1589 49.9349,670.7357 Q49.5117,670.3451 49.2839,669.2708 Q49.1862,668.5221 48.7956,668.1315 Q48.112,667.3503 46.8424,666.8945 Q45.5729,666.4388 44.2708,666.4388 Q42.6758,666.4388 41.3411,667.1224 Q40.0391,667.806 38.9974,669.3685 Q37.9883,670.931 37.9883,673.0794 L37.9883,675.3581 Q37.9883,677.9297 39.8438,679.6549 Q41.6992,681.3477 45.0195,681.3477 Q46.9727,681.3477 48.3398,680.8268 Q49.1536,680.5013 50.0326,679.5898 Q50.5859,679.0365 50.8789,678.8737 Q51.2044,678.7109 51.6276,678.7109 Q52.3112,678.7109 52.832,679.2643 Q53.3854,679.7852 53.3854,680.5013 Q53.3854,681.2174 52.6693,682.0638 Q51.6276,683.2682 49.9674,683.9518 Q47.7214,684.8958 45.0195,684.8958 Q41.862,684.8958 39.3555,683.5938 Q37.3047,682.5521 35.8724,680.3385 Q34.4401,678.0924 34.4401,675.4232 L34.4401,673.0143 Q34.4401,670.2474 35.7096,667.8711 Q37.0117,665.4622 39.2904,664.1927 Q41.569,662.8906 44.1406,662.8906 Q45.6706,662.8906 47.0052,663.2487 Q48.3724,663.5742 49.5117,664.3229 Z "/><text fill="#000000" font-family="sans-serif" font-size="25" lengthAdjust="spacingAndGlyphs" textLength="91.6667" x="72.9167" y="683.1462">Number</text><line style="stroke: #A80036; stroke-width: 3.125;" x1="14.5833" x2="168.75" y1="706.25" y2="706.25"/><line style="stroke: #A80036; stroke-width: 3.125;" x1="14.5833" x2="168.75" y1="722.9167" y2="722.9167"/><!--MD5=[02a8746eb15ecbb4566dafa16ea4db73]
class Text--><rect fill="#FEFECE" filter="url(#f1e1p2ewyjmbay)" height="100" id="Text" style="stroke: #A80036; stroke-width: 3.125;" width="114.5833" x="244.7917" y="639.5833"/><ellipse cx="276.0417" cy="672.9167" fill="#ADD1B2" rx="22.9167" ry="22.9167" style="stroke: #A80036; stroke-width: 2.0833333333333335;"/><path d="M281.8034,664.3229 Q282.1289,663.8672 282.5195,663.6393 Q282.9102,663.4115 283.3659,663.4115 Q284.1471,663.4115 284.6354,663.9648 Q285.1237,664.4857 285.1237,665.7552 L285.1237,668.7826 Q285.1237,670.0521 284.6354,670.6055 Q284.1471,671.1589 283.3659,671.1589 Q282.6497,671.1589 282.2266,670.7357 Q281.8034,670.3451 281.5755,669.2708 Q281.4779,668.5221 281.0872,668.1315 Q280.4036,667.3503 279.1341,666.8945 Q277.8646,666.4388 276.5625,666.4388 Q274.9674,666.4388 273.6328,667.1224 Q272.3307,667.806 271.2891,669.3685 Q270.2799,670.931 270.2799,673.0794 L270.2799,675.3581 Q270.2799,677.9297 272.1354,679.6549 Q273.9909,681.3477 277.3112,681.3477 Q279.2643,681.3477 280.6315,680.8268 Q281.4453,680.5013 282.3242,679.5898 Q282.8776,679.0365 283.1706,678.8737 Q283.4961,678.7109 283.9193,678.7109 Q284.6029,678.7109 285.1237,679.2643 Q285.6771,679.7852 285.6771,680.5013 Q285.6771,681.2174 284.9609,682.0638 Q283.9193,683.2682 282.2591,683.9518 Q280.013,684.8958 277.3112,684.8958 Q274.1536,684.8958 271.6471,683.5938 Q269.5964,682.5521 268.1641,680.3385 Q266.7318,678.0924 266.7318,675.4232 L266.7318,673.0143 Q266.7318,670.2474 268.0013,667.8711 Q269.3034,665.4622 271.582,664.1927 Q273.8607,662.8906 276.4323,662.8906 Q277.9622,662.8906 279.2969,663.2487 Q280.6641,663.5742 281.8034,664.3229 Z "/><text fill="#000000" font-family="sans-serif" font-size="25" lengthAdjust="spacingAndGlyphs" textLength="47.9167" x="305.2083" y="683.1462">Text</text><line style="stroke: #A80036; stroke-width: 3.125;" x1="246.875" x2="357.2917" y1="706.25" y2="706.25"/><line style="stroke: #A80036; stroke-width: 3.125;" x1="246.875" x2="357.2917" y1="722.9167" y2="722.9167"/><!--MD5=[7829b64950ce38e0487c4015ea331f97]
class Date--><rect fill="#FEFECE" filter="url(#f1e1p2ewyjmbay)" height="100" id="Date" style="stroke: #A80036; stroke-width: 3.125;" width="120.8333" x="433.3333" y="639.5833"/><ellipse cx="464.5833" cy="672.9167" fill="#ADD1B2" rx="22.9167" ry="22.9167" style="stroke: #A80036; stroke-width: 2.0833333333333335;"/><path d="M470.3451,664.3229 Q470.6706,663.8672 471.0612,663.6393 Q471.4518,663.4115 471.9076,663.4115 Q472.6888,663.4115 473.1771,663.9648 Q473.6654,664.4857 473.6654,665.7552 L473.6654,668.7826 Q473.6654,670.0521 473.1771,670.6055 Q472.6888,671.1589 471.9076,671.1589 Q471.1914,671.1589 470.7682,670.7357 Q470.3451,670.3451 470.1172,669.2708 Q470.0195,668.5221 469.6289,668.1315 Q468.9453,667.3503 467.6758,666.8945 Q466.4063,666.4388 465.1042,666.4388 Q463.5091,666.4388 462.1745,667.1224 Q460.8724,667.806 459.8307,669.3685 Q458.8216,670.931 458.8216,673.0794 L458.8216,675.3581 Q458.8216,677.9297 460.6771,679.6549 Q462.5326,681.3477 465.8529,681.3477 Q467.806,681.3477 469.1732,680.8268 Q469.987,680.5013 470.8659,679.5898 Q471.4193,679.0365 471.7122,678.8737 Q472.0378,678.7109 472.4609,678.7109 Q473.1445,678.7109 473.6654,679.2643 Q474.2188,679.7852 474.2188,680.5013 Q474.2188,681.2174 473.5026,682.0638 Q472.4609,683.2682 470.8008,683.9518 Q468.5547,684.8958 465.8529,684.8958 Q462.6953,684.8958 460.1888,683.5938 Q458.138,682.5521 456.7057,680.3385 Q455.2734,678.0924 455.2734,675.4232 L455.2734,673.0143 Q455.2734,670.2474 456.543,667.8711 Q457.8451,665.4622 460.1237,664.1927 Q462.4023,662.8906 464.974,662.8906 Q466.5039,662.8906 467.8385,663.2487 Q469.2057,663.5742 470.3451,664.3229 Z "/><text fill="#000000" font-family="sans-serif" font-size="25" lengthAdjust="spacingAndGlyphs" textLength="54.1667" x="493.75" y="683.1462">Date</text><line style="stroke: #A80036; stroke-width: 3.125;" x1="435.4167" x2="552.0833" y1="706.25" y2="706.25"/><line style="stroke: #A80036; stroke-width: 3.125;" x1="435.4167" x2="552.0833" y1="722.9167" y2="722.9167"/><!--MD5=[81ac267a4c34f069ed716f6ba598193d]
class Percent--><rect fill="#FEFECE" filter="url(#f1e1p2ewyjmbay)" height="100" id="Percent" style="stroke: #A80036; stroke-width: 3.125;" width="154.1667" x="627.0833" y="639.5833"/><ellipse cx="658.3333" cy="672.9167" fill="#ADD1B2" rx="22.9167" ry="22.9167" style="stroke: #A80036; stroke-width: 2.0833333333333335;"/><path d="M664.0951,664.3229 Q664.4206,663.8672 664.8112,663.6393 Q665.2018,663.4115 665.6576,663.4115 Q666.4388,663.4115 666.9271,663.9648 Q667.4154,664.4857 667.4154,665.7552 L667.4154,668.7826 Q667.4154,670.0521 666.9271,670.6055 Q666.4388,671.1589 665.6576,671.1589 Q664.9414,671.1589 664.5182,670.7357 Q664.0951,670.3451 663.8672,669.2708 Q663.7695,668.5221 663.3789,668.1315 Q662.6953,667.3503 661.4258,666.8945 Q660.1563,666.4388 658.8542,666.4388 Q657.2591,666.4388 655.9245,667.1224 Q654.6224,667.806 653.5807,669.3685 Q652.5716,670.931 652.5716,673.0794 L652.5716,675.3581 Q652.5716,677.9297 654.4271,679.6549 Q656.2826,681.3477 659.6029,681.3477 Q661.556,681.3477 662.9232,680.8268 Q663.737,680.5013 664.6159,679.5898 Q665.1693,679.0365 665.4622,678.8737 Q665.7878,678.7109 666.2109,678.7109 Q666.8945,678.7109 667.4154,679.2643 Q667.9688,679.7852 667.9688,680.5013 Q667.9688,681.2174 667.2526,682.0638 Q666.2109,683.2682 664.5508,683.9518 Q662.3047,684.8958 659.6029,684.8958 Q656.4453,684.8958 653.9388,683.5938 Q651.888,682.5521 650.4557,680.3385 Q649.0234,678.0924 649.0234,675.4232 L649.0234,673.0143 Q649.0234,670.2474 650.293,667.8711 Q651.5951,665.4622 653.8737,664.1927 Q656.1523,662.8906 658.724,662.8906 Q660.2539,662.8906 661.5885,663.2487 Q662.9557,663.5742 664.0951,664.3229 Z "/><text fill="#000000" font-family="sans-serif" font-size="25" lengthAdjust="spacingAndGlyphs" textLength="87.5" x="687.5" y="683.1462">Percent</text><line style="stroke: #A80036; stroke-width: 3.125;" x1="629.1667" x2="779.1667" y1="706.25" y2="706.25"/><line style="stroke: #A80036; stroke-width: 3.125;" x1="629.1667" x2="779.1667" y1="722.9167" y2="722.9167"/><!--MD5=[1000a02c38d681539177bb868d9448ff]
reverse link AttributeClient to Type--><path d="M397.9167,159.2604 C397.9167,185.0354 397.9167,213.6833 397.9167,241.4833 " fill="none" id="AttributeClient&lt;-Type" style="stroke: #A80036; stroke-width: 2.0833333333333335;"/><polygon fill="none" points="383.3333,158.4313,397.9167,116.7646,412.5,158.4313,383.3333,158.4313" style="stroke: #A80036; stroke-width: 2.0833333333333335;"/><!--MD5=[bedc5801b5fd01784e132fc6cd541608]
reverse link Type to Number--><path d="M283.4125,495.1021 C233.6813,545.0019 178.1354,600.7373 139.6813,639.3221 " fill="none" id="Type&lt;-Number" style="stroke: #A80036; stroke-width: 2.0833333333333335;"/><polygon fill="none" points="273.6792,484.2083,313.4208,464.9896,294.3375,504.7979,273.6792,484.2083" style="stroke: #A80036; stroke-width: 2.0833333333333335;"/><!--MD5=[93048d543d97446a80fcce5a0ac39840]
reverse link Type to Text--><path d="M343.2354,555.5458 C333.675,586.2008 324.4813,615.6804 317.2188,638.9704 " fill="none" id="Type&lt;-Text" style="stroke: #A80036; stroke-width: 2.0833333333333335;"/><polygon fill="none" points="329.5563,550.4263,355.8833,514.9917,357.4,559.11,329.5563,550.4263" style="stroke: #A80036; stroke-width: 2.0833333333333335;"/><!--MD5=[3cc80d19faf9dbbd7baab678d0685516]
reverse link Type to Date--><path d="M452.5979,555.5458 C462.1583,586.2008 471.3521,615.6804 478.6146,638.9704 " fill="none" id="Type&lt;-Date" style="stroke: #A80036; stroke-width: 2.0833333333333335;"/><polygon fill="none" points="438.4333,559.11,439.95,514.9917,466.2771,550.4263,438.4333,559.11" style="stroke: #A80036; stroke-width: 2.0833333333333335;"/><!--MD5=[ee19a97858e90cdf99a5da223726e114]
reverse link Type to Percent--><path d="M512.4208,495.1021 C562.1521,545.0019 617.6979,600.7373 656.1521,639.3221 " fill="none" id="Type&lt;-Percent" style="stroke: #A80036; stroke-width: 2.0833333333333335;"/><polygon fill="none" points="501.4958,504.7979,482.4125,464.9896,522.1542,484.2083,501.4958,504.7979" style="stroke: #A80036; stroke-width: 2.0833333333333335;"/><!--MD5=[7fe8bba34cfc8e91ab17ca1f623668fe]
@startuml
skinparam dpi 200


class Type #aqua {
 +AsString()
 +AsDouble()
 +AsInt()
 +GetIlk()
 ..
 -m_Ilk;
 -m_Values;
}

AttributeClient <|- - Type
Type <|- - Number
Type <|- - Text
Type <|- - Date
Type <|- - Percent

@enduml

PlantUML version 1.2020.09(Sun May 10 12:51:06 CEST 2020)
(GPL source distribution)
Java Runtime: OpenJDK Runtime Environment
JVM: OpenJDK 64-Bit Server VM
Java Version: 12.0.1+12
Operating System: Windows 10
Default Encoding: UTF-8
Language: en
Country: US
--></g></svg>