<?xml version="1.0" encoding="UTF-8" standalone="no"?><svg xmlns="http://www.w3.org/2000/svg" xmlns:xlink="http://www.w3.org/1999/xlink" contentScriptType="application/ecmascript" contentStyleType="text/css" height="554.1667px" preserveAspectRatio="none" style="width:962px;height:554px;" version="1.1" viewBox="0 0 962 554" width="962.5px" zoomAndPan="magnify"><defs><filter height="300%" id="fcjnm04rxjyg0" width="300%" x="-1" y="-1"><feGaussianBlur result="blurOut" stdDeviation="4.166666666666667"/><feColorMatrix in="blurOut" result="blurOut2" type="matrix" values="0 0 0 0 0 0 0 0 0 0 0 0 0 0 0 0 0 0 .4 0"/><feOffset dx="8.333333333333334" dy="8.333333333333334" in="blurOut2" result="blurOut3"/><feBlend in="SourceGraphic" in2="blurOut3" mode="normal"/></filter></defs><g><!--MD5=[b21731e5b76ea51e65f41a3862712447]
class StringRep--><rect fill="#00FFFF" filter="url(#fcjnm04rxjyg0)" height="100" id="StringRep" style="stroke: #A80036; stroke-width: 3.125;" width="181.25" x="43.75" y="431.25"/><ellipse cx="75" cy="464.5833" fill="#ADD1B2" rx="22.9167" ry="22.9167" style="stroke: #A80036; stroke-width: 2.0833333333333335;"/><path d="M80.7617,455.9896 Q81.0872,455.5339 81.4779,455.306 Q81.8685,455.0781 82.3242,455.0781 Q83.1055,455.0781 83.5938,455.6315 Q84.082,456.1523 84.082,457.4219 L84.082,460.4492 Q84.082,461.7188 83.5938,462.2721 Q83.1055,462.8255 82.3242,462.8255 Q81.6081,462.8255 81.1849,462.4023 Q80.7617,462.0117 80.5339,460.9375 Q80.4362,460.1888 80.0456,459.7982 Q79.362,459.0169 78.0924,458.5612 Q76.8229,458.1055 75.5208,458.1055 Q73.9258,458.1055 72.5911,458.7891 Q71.2891,459.4727 70.2474,461.0352 Q69.2383,462.5977 69.2383,464.7461 L69.2383,467.0247 Q69.2383,469.5964 71.0938,471.3216 Q72.9492,473.0143 76.2695,473.0143 Q78.2227,473.0143 79.5898,472.4935 Q80.4036,472.168 81.2826,471.2565 Q81.8359,470.7031 82.1289,470.5404 Q82.4544,470.3776 82.8776,470.3776 Q83.5612,470.3776 84.082,470.931 Q84.6354,471.4518 84.6354,472.168 Q84.6354,472.8841 83.9193,473.7305 Q82.8776,474.9349 81.2174,475.6185 Q78.9714,476.5625 76.2695,476.5625 Q73.112,476.5625 70.6055,475.2604 Q68.5547,474.2188 67.1224,472.0052 Q65.6901,469.7591 65.6901,467.0898 L65.6901,464.681 Q65.6901,461.9141 66.9596,459.5378 Q68.2617,457.1289 70.5404,455.8594 Q72.819,454.5573 75.3906,454.5573 Q76.9206,454.5573 78.2552,454.9154 Q79.6224,455.2409 80.7617,455.9896 Z "/><text fill="#000000" font-family="sans-serif" font-size="25" lengthAdjust="spacingAndGlyphs" textLength="114.5833" x="104.1667" y="474.8128">StringRep</text><line style="stroke: #A80036; stroke-width: 3.125;" x1="45.8333" x2="222.9167" y1="497.9167" y2="497.9167"/><line style="stroke: #A80036; stroke-width: 3.125;" x1="45.8333" x2="222.9167" y1="514.5833" y2="514.5833"/><!--MD5=[6de24c9d39507328fb4ca360c1778f1a]
class DoubleRep--><rect fill="#00FFFF" filter="url(#fcjnm04rxjyg0)" height="100" id="DoubleRep" style="stroke: #A80036; stroke-width: 3.125;" width="197.9167" x="318.75" y="431.25"/><ellipse cx="350" cy="464.5833" fill="#ADD1B2" rx="22.9167" ry="22.9167" style="stroke: #A80036; stroke-width: 2.0833333333333335;"/><path d="M355.7617,455.9896 Q356.0872,455.5339 356.4779,455.306 Q356.8685,455.0781 357.3242,455.0781 Q358.1055,455.0781 358.5938,455.6315 Q359.082,456.1523 359.082,457.4219 L359.082,460.4492 Q359.082,461.7188 358.5938,462.2721 Q358.1055,462.8255 357.3242,462.8255 Q356.6081,462.8255 356.1849,462.4023 Q355.7617,462.0117 355.5339,460.9375 Q355.4362,460.1888 355.0456,459.7982 Q354.362,459.0169 353.0924,458.5612 Q351.8229,458.1055 350.5208,458.1055 Q348.9258,458.1055 347.5911,458.7891 Q346.2891,459.4727 345.2474,461.0352 Q344.2383,462.5977 344.2383,464.7461 L344.2383,467.0247 Q344.2383,469.5964 346.0938,471.3216 Q347.9492,473.0143 351.2695,473.0143 Q353.2227,473.0143 354.5898,472.4935 Q355.4036,472.168 356.2826,471.2565 Q356.8359,470.7031 357.1289,470.5404 Q357.4544,470.3776 357.8776,470.3776 Q358.5612,470.3776 359.082,470.931 Q359.6354,471.4518 359.6354,472.168 Q359.6354,472.8841 358.9193,473.7305 Q357.8776,474.9349 356.2174,475.6185 Q353.9714,476.5625 351.2695,476.5625 Q348.112,476.5625 345.6055,475.2604 Q343.5547,474.2188 342.1224,472.0052 Q340.6901,469.7591 340.6901,467.0898 L340.6901,464.681 Q340.6901,461.9141 341.9596,459.5378 Q343.2617,457.1289 345.5404,455.8594 Q347.819,454.5573 350.3906,454.5573 Q351.9206,454.5573 353.2552,454.9154 Q354.6224,455.2409 355.7617,455.9896 Z "/><text fill="#000000" font-family="sans-serif" font-size="25" lengthAdjust="spacingAndGlyphs" textLength="131.25" x="379.1667" y="474.8128">DoubleRep</text><line style="stroke: #A80036; stroke-width: 3.125;" x1="320.8333" x2="514.5833" y1="497.9167" y2="497.9167"/><line style="stroke: #A80036; stroke-width: 3.125;" x1="320.8333" x2="514.5833" y1="514.5833" y2="514.5833"/><!--MD5=[ce5894ce2ef57eea4aa2415d24b3b1f4]
class ValuesHolder--><rect fill="#00FFFF" filter="url(#fcjnm04rxjyg0)" height="100" id="ValuesHolder" style="stroke: #A80036; stroke-width: 3.125;" width="222.9167" x="12.5" y="111.4583"/><ellipse cx="43.75" cy="144.7917" fill="#ADD1B2" rx="22.9167" ry="22.9167" style="stroke: #A80036; stroke-width: 2.0833333333333335;"/><path d="M49.5117,136.1979 Q49.8372,135.7422 50.2279,135.5143 Q50.6185,135.2865 51.0742,135.2865 Q51.8555,135.2865 52.3438,135.8398 Q52.832,136.3607 52.832,137.6302 L52.832,140.6576 Q52.832,141.9271 52.3438,142.4805 Q51.8555,143.0339 51.0742,143.0339 Q50.3581,143.0339 49.9349,142.6107 Q49.5117,142.2201 49.2839,141.1458 Q49.1862,140.3971 48.7956,140.0065 Q48.112,139.2253 46.8424,138.7695 Q45.5729,138.3138 44.2708,138.3138 Q42.6758,138.3138 41.3411,138.9974 Q40.0391,139.681 38.9974,141.2435 Q37.9883,142.806 37.9883,144.9544 L37.9883,147.2331 Q37.9883,149.8047 39.8438,151.5299 Q41.6992,153.2227 45.0195,153.2227 Q46.9727,153.2227 48.3398,152.7018 Q49.1536,152.3763 50.0326,151.4648 Q50.5859,150.9115 50.8789,150.7487 Q51.2044,150.5859 51.6276,150.5859 Q52.3112,150.5859 52.832,151.1393 Q53.3854,151.6602 53.3854,152.3763 Q53.3854,153.0924 52.6693,153.9388 Q51.6276,155.1432 49.9674,155.8268 Q47.7214,156.7708 45.0195,156.7708 Q41.862,156.7708 39.3555,155.4688 Q37.3047,154.4271 35.8724,152.2135 Q34.4401,149.9674 34.4401,147.2982 L34.4401,144.8893 Q34.4401,142.1224 35.7096,139.7461 Q37.0117,137.3372 39.2904,136.0677 Q41.569,134.7656 44.1406,134.7656 Q45.6706,134.7656 47.0052,135.1237 Q48.3724,135.4492 49.5117,136.1979 Z "/><text fill="#000000" font-family="sans-serif" font-size="25" lengthAdjust="spacingAndGlyphs" textLength="156.25" x="72.9167" y="155.0212">ValuesHolder</text><line style="stroke: #A80036; stroke-width: 3.125;" x1="14.5833" x2="233.3333" y1="178.125" y2="178.125"/><line style="stroke: #A80036; stroke-width: 3.125;" x1="14.5833" x2="233.3333" y1="194.7917" y2="194.7917"/><!--MD5=[9115e81965336a72da3e8004153789ff]
class Representation--><rect fill="#FEFECE" filter="url(#fcjnm04rxjyg0)" height="100" id="Representation" style="stroke: #A80036; stroke-width: 3.125;" width="241.6667" x="309.375" y="111.4583"/><ellipse cx="340.625" cy="144.7917" fill="#ADD1B2" rx="22.9167" ry="22.9167" style="stroke: #A80036; stroke-width: 2.0833333333333335;"/><path d="M346.3867,136.1979 Q346.7122,135.7422 347.1029,135.5143 Q347.4935,135.2865 347.9492,135.2865 Q348.7305,135.2865 349.2188,135.8398 Q349.707,136.3607 349.707,137.6302 L349.707,140.6576 Q349.707,141.9271 349.2188,142.4805 Q348.7305,143.0339 347.9492,143.0339 Q347.2331,143.0339 346.8099,142.6107 Q346.3867,142.2201 346.1589,141.1458 Q346.0612,140.3971 345.6706,140.0065 Q344.987,139.2253 343.7174,138.7695 Q342.4479,138.3138 341.1458,138.3138 Q339.5508,138.3138 338.2161,138.9974 Q336.9141,139.681 335.8724,141.2435 Q334.8633,142.806 334.8633,144.9544 L334.8633,147.2331 Q334.8633,149.8047 336.7188,151.5299 Q338.5742,153.2227 341.8945,153.2227 Q343.8477,153.2227 345.2148,152.7018 Q346.0286,152.3763 346.9076,151.4648 Q347.4609,150.9115 347.7539,150.7487 Q348.0794,150.5859 348.5026,150.5859 Q349.1862,150.5859 349.707,151.1393 Q350.2604,151.6602 350.2604,152.3763 Q350.2604,153.0924 349.5443,153.9388 Q348.5026,155.1432 346.8424,155.8268 Q344.5964,156.7708 341.8945,156.7708 Q338.737,156.7708 336.2305,155.4688 Q334.1797,154.4271 332.7474,152.2135 Q331.3151,149.9674 331.3151,147.2982 L331.3151,144.8893 Q331.3151,142.1224 332.5846,139.7461 Q333.8867,137.3372 336.1654,136.0677 Q338.444,134.7656 341.0156,134.7656 Q342.5456,134.7656 343.8802,135.1237 Q345.2474,135.4492 346.3867,136.1979 Z "/><text fill="#000000" font-family="sans-serif" font-size="25" lengthAdjust="spacingAndGlyphs" textLength="175" x="369.7917" y="155.0212">Representation</text><line style="stroke: #A80036; stroke-width: 3.125;" x1="311.4583" x2="548.9583" y1="178.125" y2="178.125"/><line style="stroke: #A80036; stroke-width: 3.125;" x1="311.4583" x2="548.9583" y1="194.7917" y2="194.7917"/><!--MD5=[cf1d29bbcaf5a941b65a5a80d4f35099]
class AttributeClient--><rect fill="#00FFFF" filter="url(#fcjnm04rxjyg0)" height="289.6159" id="AttributeClient" style="stroke: #A80036; stroke-width: 3.125;" width="314.5833" x="625" y="16.6667"/><ellipse cx="695.625" cy="50" fill="#ADD1B2" rx="22.9167" ry="22.9167" style="stroke: #A80036; stroke-width: 2.0833333333333335;"/><path d="M701.3867,41.4063 Q701.7122,40.9505 702.1029,40.7227 Q702.4935,40.4948 702.9492,40.4948 Q703.7305,40.4948 704.2188,41.0482 Q704.707,41.569 704.707,42.8385 L704.707,45.8659 Q704.707,47.1354 704.2188,47.6888 Q703.7305,48.2422 702.9492,48.2422 Q702.2331,48.2422 701.8099,47.819 Q701.3867,47.4284 701.1589,46.3542 Q701.0612,45.6055 700.6706,45.2148 Q699.987,44.4336 698.7174,43.9779 Q697.4479,43.5221 696.1458,43.5221 Q694.5508,43.5221 693.2161,44.2057 Q691.9141,44.8893 690.8724,46.4518 Q689.8633,48.0143 689.8633,50.1628 L689.8633,52.4414 Q689.8633,55.013 691.7188,56.7383 Q693.5742,58.431 696.8945,58.431 Q698.8477,58.431 700.2148,57.9102 Q701.0286,57.5846 701.9076,56.6732 Q702.4609,56.1198 702.7539,55.957 Q703.0794,55.7943 703.5026,55.7943 Q704.1862,55.7943 704.707,56.3477 Q705.2604,56.8685 705.2604,57.5846 Q705.2604,58.3008 704.5443,59.1471 Q703.5026,60.3516 701.8424,61.0352 Q699.5964,61.9792 696.8945,61.9792 Q693.737,61.9792 691.2305,60.6771 Q689.1797,59.6354 687.7474,57.4219 Q686.3151,55.1758 686.3151,52.5065 L686.3151,50.0977 Q686.3151,47.3307 687.5846,44.9544 Q688.8867,42.5456 691.1654,41.276 Q693.444,39.974 696.0156,39.974 Q697.5456,39.974 698.8802,40.332 Q700.2474,40.6576 701.3867,41.4063 Z "/><text fill="#000000" font-family="sans-serif" font-size="25" lengthAdjust="spacingAndGlyphs" textLength="160.4167" x="733.5417" y="60.2295">AttributeClient</text><line style="stroke: #A80036; stroke-width: 3.125;" x1="627.0833" x2="937.5" y1="83.3333" y2="83.3333"/><ellipse cx="647.9167" cy="106.25" fill="#84BE84" rx="6.25" ry="6.25" style="stroke: #038048; stroke-width: 2.0833333333333335;"/><text fill="#000000" font-family="sans-serif" font-size="22.9167" lengthAdjust="spacingAndGlyphs" textLength="137.5" x="666.6667" y="115.4561">GetAttribute()</text><ellipse cx="647.9167" cy="135.0749" fill="#84BE84" rx="6.25" ry="6.25" style="stroke: #038048; stroke-width: 2.0833333333333335;"/><text fill="#000000" font-family="sans-serif" font-size="22.9167" lengthAdjust="spacingAndGlyphs" textLength="133.3333" x="666.6667" y="144.281">SetAttribute()</text><ellipse cx="647.9167" cy="163.8997" fill="#84BE84" rx="6.25" ry="6.25" style="stroke: #038048; stroke-width: 2.0833333333333335;"/><text fill="#000000" font-family="sans-serif" font-size="22.9167" lengthAdjust="spacingAndGlyphs" textLength="260.4167" x="666.6667" y="173.1059">GetRawConversionMap()</text><line style="stroke: #A80036; stroke-width: 2.0833333333333335; stroke-dasharray: 1.0,2.0;" x1="627.0833" x2="937.5" y1="186.4746" y2="186.4746"/><polygon fill="#FFFF44" points="647.9167,198.9746,656.25,207.3079,647.9167,215.6413,639.5833,207.3079" style="stroke: #B38D22; stroke-width: 2.0833333333333335;"/><text fill="#000000" font-family="sans-serif" font-size="22.9167" lengthAdjust="spacingAndGlyphs" textLength="214.5833" x="666.6667" y="218.5974">AttributeDescription()</text><polygon fill="#FFFF44" points="647.9167,227.7995,656.25,236.1328,647.9167,244.4661,639.5833,236.1328" style="stroke: #B38D22; stroke-width: 2.0833333333333335;"/><text fill="#000000" font-family="sans-serif" font-size="22.9167" lengthAdjust="spacingAndGlyphs" textLength="135.4167" x="666.6667" y="247.4223">GetNullMap()</text><line style="stroke: #A80036; stroke-width: 2.0833333333333335; stroke-dasharray: 1.0,2.0;" x1="627.0833" x2="937.5" y1="260.791" y2="260.791"/><rect fill="none" height="12.5" style="stroke: #C82930; stroke-width: 2.0833333333333335;" width="12.5" x="641.6667" y="277.4577"/><text fill="#000000" font-family="sans-serif" font-size="22.9167" lengthAdjust="spacingAndGlyphs" textLength="114.5833" x="666.6667" y="292.9138">m_pAttribut</text><!--MD5=[67f8d6b1c07a4695520e0e11b85569f9]
reverse link ValuesHolder to StringRep--><path d="M126.4394,238.7167 C128.404,298.2438 131.0896,379.6196 132.7781,430.779 " fill="none" id="ValuesHolder&lt;-StringRep" style="stroke: #A80036; stroke-width: 2.0833333333333335;"/><polygon fill="#FFFFFF" points="125.5404,211.4792,117.6251,224.248,126.3673,236.4655,134.2827,223.6967,125.5404,211.4792" style="stroke: #A80036; stroke-width: 2.0833333333333335;"/><!--MD5=[e49d444edaaa9e2910bad7d00be35b69]
reverse link ValuesHolder to DoubleRep--><path d="M187.2296,231.525 C243.0813,291.5354 323.1125,377.5267 372.675,430.779 " fill="none" id="ValuesHolder&lt;-DoubleRep" style="stroke: #A80036; stroke-width: 2.0833333333333335;"/><polygon fill="#FFFFFF" points="168.5727,211.4792,170.9889,226.3067,185.6052,229.7792,183.189,214.9517,168.5727,211.4792" style="stroke: #A80036; stroke-width: 2.0833333333333335;"/><!--MD5=[27ddefd1a85f9dfa85a6bf7771a9796f]
reverse link Representation to StringRep--><path d="M356.6833,241.9854 C301.1896,301.1917 226.8083,380.5498 179.7285,430.779 " fill="none" id="Representation&lt;-StringRep" style="stroke: #A80036; stroke-width: 2.0833333333333335;"/><polygon fill="none" points="346.1438,231.9063,385.2771,211.4792,367.4229,251.8521,346.1438,231.9063" style="stroke: #A80036; stroke-width: 2.0833333333333335;"/><!--MD5=[a898cb233984ca8bf3bfed0254ce8cb9]
reverse link Representation to DoubleRep--><path d="M426.6354,253.7375 C424.3542,311.3563 421.4854,383.8054 419.625,430.779 " fill="none" id="Representation&lt;-DoubleRep" style="stroke: #A80036; stroke-width: 2.0833333333333335;"/><polygon fill="none" points="412.0896,252.5354,428.3104,211.4792,441.2333,253.6896,412.0896,252.5354" style="stroke: #A80036; stroke-width: 2.0833333333333335;"/><!--MD5=[05a6f9ad2960c5b700befbc1dc83bb8b]
@startuml
skinparam dpi 200


class StringRep  #aqua {
}

class DoubleRep  #aqua {
}

class ValuesHolder #aqua {
}



ValuesHolder o- - StringRep
ValuesHolder o- - DoubleRep


Representation <|- - StringRep
Representation <|- - DoubleRep


class AttributeClient #aqua {
 +GetAttribute()
 +SetAttribute()
 +GetRawConversionMap()
 ..
 #AttributeDescription()
 #GetNullMap()
 ..
 -m_pAttribut
}

@enduml

PlantUML version 1.2020.09(Sun May 10 12:51:06 CEST 2020)
(GPL source distribution)
Java Runtime: OpenJDK Runtime Environment
JVM: OpenJDK 64-Bit Server VM
Java Version: 12.0.1+12
Operating System: Windows 10
Default Encoding: UTF-8
Language: en
Country: US
--></g></svg>